<mxfile host="app.diagrams.net" modified="2023-04-05T13:41:34.480Z" agent="Mozilla/5.0 (Windows NT 10.0; Win64; x64) AppleWebKit/537.36 (KHTML, like Gecko) Chrome/111.0.0.0 Safari/537.36" etag="QKi6lTkArTZ4EqH1HPDL" version="21.1.4" type="device">
  <diagram name="Page-1" id="na7zzv-fnRlMRzOz7OdL">
    <mxGraphModel dx="1497" dy="1003" grid="1" gridSize="10" guides="1" tooltips="1" connect="1" arrows="1" fold="1" page="1" pageScale="1" pageWidth="850" pageHeight="1100" math="0" shadow="0">
      <root>
        <mxCell id="0" />
        <mxCell id="1" parent="0" />
        <object placeholders="1" c4Name="" c4Type="ContainerScopeBoundary" c4Application="Host machine" label="&lt;font style=&quot;font-size: 16px&quot;&gt;&lt;b&gt;&lt;div style=&quot;text-align: left&quot;&gt;%c4Name%&lt;/div&gt;&lt;/b&gt;&lt;/font&gt;&lt;div style=&quot;text-align: left&quot;&gt;[%c4Application%]&lt;/div&gt;" id="goY5rZ3ymkB16XzDZ8tm-1">
          <mxCell style="rounded=1;fontSize=11;whiteSpace=wrap;html=1;dashed=1;arcSize=20;fillColor=none;strokeColor=#666666;fontColor=#333333;labelBackgroundColor=none;align=left;verticalAlign=bottom;labelBorderColor=none;spacingTop=0;spacing=10;dashPattern=8 4;metaEdit=1;rotatable=0;perimeter=rectanglePerimeter;noLabel=0;labelPadding=0;allowArrows=0;connectable=0;expand=0;recursiveResize=0;editable=1;pointerEvents=0;absoluteArcSize=1;points=[[0.25,0,0],[0.5,0,0],[0.75,0,0],[1,0.25,0],[1,0.5,0],[1,0.75,0],[0.75,1,0],[0.5,1,0],[0.25,1,0],[0,0.75,0],[0,0.5,0],[0,0.25,0]];" vertex="1" parent="1">
            <mxGeometry x="120" y="100" width="800" height="510" as="geometry" />
          </mxCell>
        </object>
        <object placeholders="1" c4Name="" c4Type="ContainerScopeBoundary" c4Application="Test container" label="&lt;font style=&quot;font-size: 16px&quot;&gt;&lt;b&gt;&lt;div style=&quot;text-align: left&quot;&gt;%c4Name%&lt;/div&gt;&lt;/b&gt;&lt;/font&gt;&lt;div style=&quot;text-align: left&quot;&gt;[%c4Application%]&lt;/div&gt;" id="goY5rZ3ymkB16XzDZ8tm-2">
          <mxCell style="rounded=1;fontSize=11;whiteSpace=wrap;html=1;dashed=1;arcSize=20;fillColor=none;strokeColor=#666666;fontColor=#333333;labelBackgroundColor=none;align=left;verticalAlign=bottom;labelBorderColor=none;spacingTop=0;spacing=10;dashPattern=8 4;metaEdit=1;rotatable=0;perimeter=rectanglePerimeter;noLabel=0;labelPadding=0;allowArrows=0;connectable=0;expand=0;recursiveResize=0;editable=1;pointerEvents=0;absoluteArcSize=1;points=[[0.25,0,0],[0.5,0,0],[0.75,0,0],[1,0.25,0],[1,0.5,0],[1,0.75,0],[0.75,1,0],[0.5,1,0],[0.25,1,0],[0,0.75,0],[0,0.5,0],[0,0.25,0]];" vertex="1" parent="1">
            <mxGeometry x="450" y="210" width="420" height="250" as="geometry" />
          </mxCell>
        </object>
        <mxCell id="goY5rZ3ymkB16XzDZ8tm-4" value="" style="shape=image;verticalLabelPosition=bottom;labelBackgroundColor=default;verticalAlign=top;aspect=fixed;imageAspect=0;image=data:image/svg+xml,PHN2ZyB4bWxucz0iaHR0cDovL3d3dy53My5vcmcvMjAwMC9zdmciIGZpbGw9Im5vbmUiIHZpZXdCb3g9IjAgMCA2NCA2NCIgaGVpZ2h0PSI4MDBweCIgd2lkdGg9IjgwMHB4Ij4mI3hhOyYjeGE7PGcgY2xpcC1wYXRoPSJ1cmwoI2EpIj4mI3hhOyYjeGE7PHBhdGggc3Ryb2tlLWxpbmVqb2luPSJyb3VuZCIgc3Ryb2tlLWxpbmVjYXA9InJvdW5kIiBzdHJva2U9IiMzOTRENTQiIGQ9Im00OS41MDUgMzMuMjguMDA0IDIuNzA0LS4wMTgtNy41MzYuMDE0IDQuODMxem0wIDAgMi43MjItMi43NW0tMi43MjIgMi43NSAyLjczNiAyLjcxM00zNCAzMy4zMTVhMi43NjIgMi43NjIgMCAwIDAtLjQ5Ny0xLjY1MmMtLjQ5Mi0uNjkxLTEuMjg4LTEuMTYzLTIuMTYyLTEuMTczLS4wNTkgMC0uMTE2IDAtLjE3NS4wMDQtLjM0Ni4wMjEtLjY4LjA3LS45NzYuMTkzLTEuOTQ4LjgxLTIuMjkzIDMuNTE0LS42NSA0LjczNyAxLjQyMyAxLjA2IDMuNDkzLjYyNyA0LjIxLS45OWEyLjk3IDIuOTcgMCAwIDAgLjI1LTEuMTE5em0wIDB2LTQuODltMTMuMTQgMi4zODdjLS40MDQtLjI2LS44NzQtLjM1NS0xLjM0LS4zNTQtLjA1IDAtLjEwMi4wMDMtLjE0Ny4wMDUtMS4zNDYuMDU4LTIuNTkzIDEuMDA4LTIuNTkzIDIuODUyIDAgMi4xOCAyLjMzNyAzLjM1NyA0LjA4NCAyLjMyOW03Ljg0NS0uMjM3IDQuMTM0LTMuNTQzcy0uMS0uMTktLjE2Ni0uMjc3Yy0uNTU2LS43NDctMS40MDYtMS4xMi0yLjMwMi0xLjEyLTIuMjEyIDAtMy44NzEgMi44NjEtMS42NjYgNC45NHptMCAwYy4xNTMuMTQzLjM2My4yNTYuNTk2LjM1My44MS4zMzggMS45MTcuMzEgMi41MTctLjEzNGwtMy4xMTMtLjIyek02NCAzMC41M2MtLjY4LjAwMi0xLjM0MS4yNC0xLjgzMi42OTgtLjc3My42MzktLjk0IDEuNDQ1LS45MzEgMi40NjNsLjAyMiAyLjMxNm0tMjIuNzM1LTUuNTNjLS4wNjMgMC0uMTI1LjAwNy0uMTg4LjAwOC0xLjY3OC4wMy0yLjg4OCAxLjc3NC0yLjUyMSAzLjM5LjM1NyAxLjU3NSAyLjA3OCAyLjUwOCAzLjU2NCAxLjk5MyAxLjczMi0uNDU0IDIuNDM4LTIuNjM0IDEuNDg3LTQuMTA3LS41Mi0uODA1LTEuNDAxLTEuMzAzLTIuMzQyLTEuMjg1eiIvPiYjeGE7JiN4YTs8cGF0aCBmaWxsPSIjMzk0RDU0IiBkPSJNMTUuNjA4IDI4Ljg0aDIuNDJ2Mi40NzRoMS4yMjRjLjU2NSAwIDEuMTQ2LS4xMDEgMS42ODEtLjI4Mi4yNjMtLjA5LjU1OC0uMjE0LjgxOC0uMzctLjM0Mi0uNDQ2LS41MTYtMS4wMDktLjU2OC0xLjU2NC0uMDctLjc1NS4wODMtMS43MzguNTk0LTIuMzI5bC4yNTQtLjI5NC4zMDMuMjQ0Yy43NjQuNjEzIDEuNDA1IDEuNDcgMS41MTkgMi40NDYuOTE4LS4yNyAxLjk5Ny0uMjA2IDIuODA3LjI2MWwuMzMzLjE5Mi0uMTc1LjM0MWMtLjY4NSAxLjMzOC0yLjExNyAxLjc1Mi0zLjUxNyAxLjY3OC0yLjA5NiA1LjIxOS02LjY1NyA3LjY5LTEyLjE4NyA3LjY5LTIuODU4IDAtNS40OC0xLjA2OS02Ljk3Mi0zLjYwNC0uMDg4LS4xNTctLjE2My0uMzIyLS4yNDItLjQ4NC0uNTA1LTEuMTE2LS42NzItMi4zMzgtLjU1OS0zLjU2bC4wMzUtLjM2NWgyLjA2OVYyOC44NGgyLjQydi0yLjQyaDQuODRWMjRoMi45MDN2NC44NCIvPiYjeGE7JiN4YTs8bWFzayBoZWlnaHQ9IjE1IiB3aWR0aD0iMjQiIHk9IjI0IiB4PSIzIiBtYXNrVW5pdHM9InVzZXJTcGFjZU9uVXNlIiBpZD0iYiI+JiN4YTsmI3hhOzxwYXRoIGZpbGw9IiNmZmZmZmYiIGQ9Ik04LjA0MyAyNC4yMTJ2NC44NjhINS43MTV2Mi40MzRoLTEuOTVjLS4wMDguMDctLjAxNC4xNC0uMDIxLjIxMS0uMTIyIDEuMzI3LjExIDIuNTUuNjQxIDMuNTk1bC4xNzkuMzIxYy4xMDcuMTkyLjIzMi4zNzMuMzY0LjU1LjEzMS4xNzUuMTc4LjI3Mi4yNjEuMzkgMS40MDYgMS41OCAzLjUwMyAyLjM0IDUuOTIzIDIuMzQgNS4zNiAwIDkuOTEtMi4zNzQgMTEuOTIzLTcuNzA4IDEuNDI4LjE0NiAyLjc5OC0uMjIgMy40MjItMS40MzktLjk5NC0uNTc0LTIuMjczLS4zOS0zLjAxLS4wMmwxLjk1Mi01LjU0My03LjYyIDQuODY5aC0yLjQzNHYtNC44NjhIOC4wNDN6Ii8+JiN4YTsmI3hhOzwvbWFzaz4mI3hhOyYjeGE7PGcgbWFzaz0idXJsKCNiKSI+JiN4YTsmI3hhOzxwYXRoIGZpbGw9IiMyMEMyRUYiIGQ9Ik0xMy4xMDggMjQuNDAzaDIuMDk3djIuMDk4aC0yLjA5N3YtMi4wOTh6Ii8+JiN4YTsmI3hhOzxwYXRoIGZpbGw9IiMwMDAwMDAiIGQ9Ik0xMy4zNjYgMjYuMzI2di0xLjc0OCAxLjc0OHptLjMxNCAwdi0xLjc0OCAxLjc0OHptLjMxOCAwdi0xLjc0OCAxLjc0OHptLjMxOCAwdi0xLjc0OCAxLjc0OHptLjMxNyAwdi0xLjc0OCAxLjc0OHptLjMxNSAwdi0xLjc0OCAxLjc0OHoiLz4mI3hhOyYjeGE7PHBhdGggc3Ryb2tlLXdpZHRoPSIxLjU2IiBzdHJva2U9IiMzOTRENTQiIGQ9Ik0xNC45NDggMjYuMzI2di0xLjc0OG0tMS41ODIgMS43NDh2LTEuNzQ4IDEuNzQ4em0uMzE0IDB2LTEuNzQ4IDEuNzQ4em0uMzE4IDB2LTEuNzQ4IDEuNzQ4em0uMzE4IDB2LTEuNzQ4IDEuNzQ4em0uMzE3IDB2LTEuNzQ4IDEuNzQ4eiIvPiYjeGE7JiN4YTs8cGF0aCBmaWxsPSIjMDBBQ0QzIiBkPSJNMTUuNTI4IDI2LjVoMi4wOTd2LTIuMDk3aC0yLjA5N3YyLjA5OHoiLz4mI3hhOyYjeGE7PHBhdGggZmlsbD0iIzAwMDAwMCIgZD0iTTE1Ljc4NSAyNC41Nzh2MS43NDgtMS43NDh6bS4zMTUgMHYxLjc0OC0xLjc0OHptLjMxOCAwdjEuNzQ4LTEuNzQ4em0uMzE3IDB2MS43NDgtMS43NDh6bS4zMTggMHYxLjc0OC0xLjc0OHptLjMxNSAwdjEuNzQ4LTEuNzQ4eiIvPiYjeGE7JiN4YTs8cGF0aCBzdHJva2Utd2lkdGg9IjEuNTYiIHN0cm9rZT0iIzM5NEQ1NCIgZD0iTTE3LjM2OCAyNC41Nzh2MS43NDhtLTEuNTgzLTEuNzQ4djEuNzQ4LTEuNzQ4em0uMzE1IDB2MS43NDgtMS43NDh6bS4zMTggMHYxLjc0OC0xLjc0OHptLjMxNyAwdjEuNzQ4LTEuNzQ4em0uMzE4IDB2MS43NDgtMS43NDh6Ii8+JiN4YTsmI3hhOzxwYXRoIGZpbGw9IiMwMEFDRDMiIGQ9Ik0zLjQyOCAyNi44MjRoMi4wOTh2Mi4wOTdIMy40Mjh2LTIuMDk3eiIvPiYjeGE7JiN4YTs8cGF0aCBmaWxsPSIjMjBDMkVGIiBkPSJNMy40MjggMjkuMjQzaDIuMDk4djIuMDk4SDMuNDI4di0yLjA5OHoiLz4mI3hhOyYjeGE7PHBhdGggZmlsbD0iIzAwMDAwMCIgZD0iTTMuNjg2IDI4Ljc0NnYtMS43NDggMS43NDh6bS4zMTQgMHYtMS43NDggMS43NDh6bS4zMTggMHYtMS43NDggMS43NDh6bS4zMTggMHYtMS43NDggMS43NDh6bS4zMTggMHYtMS43NDggMS43NDh6bS4zMTQgMHYtMS43NDggMS43NDh6Ii8+JiN4YTsmI3hhOzxwYXRoIHN0cm9rZS13aWR0aD0iMS41NiIgc3Ryb2tlPSIjMzk0RDU0IiBkPSJNNS4yNjggMjguNzQ2di0xLjc0OG0tMS41ODIgMS43NDh2LTEuNzQ4IDEuNzQ4em0uMzE0IDB2LTEuNzQ4IDEuNzQ4em0uMzE4IDB2LTEuNzQ4IDEuNzQ4em0uMzE4IDB2LTEuNzQ4IDEuNzQ4em0uMzE4IDB2LTEuNzQ4IDEuNzQ4eiIvPiYjeGE7JiN4YTs8cGF0aCBmaWxsPSIjMDAwMDAwIiBkPSJNMy42ODYgMzEuMTY2di0xLjc0OCAxLjc0OHptLjMxNCAwdi0xLjc0OCAxLjc0OHptLjMxOCAwdi0xLjc0OCAxLjc0OHptLjMxOCAwdi0xLjc0OCAxLjc0OHptLjMxOCAwdi0xLjc0OCAxLjc0OHptLjMxNCAwdi0xLjc0OCAxLjc0OHoiLz4mI3hhOyYjeGE7PHBhdGggc3Ryb2tlLXdpZHRoPSIxLjU2IiBzdHJva2U9IiMzOTRENTQiIGQ9Ik01LjI2OCAzMS4xNjZ2LTEuNzQ4bS0xLjU4MiAxLjc0OHYtMS43NDggMS43NDh6bS4zMTQgMHYtMS43NDggMS43NDh6bS4zMTggMHYtMS43NDggMS43NDh6bS4zMTggMHYtMS43NDggMS43NDh6bS4zMTggMHYtMS43NDggMS43NDh6Ii8+JiN4YTsmI3hhOzxwYXRoIGZpbGw9IiMwMEFDRDMiIGQ9Ik01Ljg0OCAzMS4zNGgyLjA5OHYtMi4wOTdINS44NDh2Mi4wOTd6Ii8+JiN4YTsmI3hhOzxwYXRoIGZpbGw9IiMyMEMyRUYiIGQ9Ik01Ljg0OCAyOC45MmgyLjA5OHYtMi4wOTdINS44NDh2Mi4wOTd6Ii8+JiN4YTsmI3hhOzxwYXRoIGZpbGw9IiMwMDAwMDAiIGQ9Ik02LjEwNiAyOS40MTh2MS43NDgtMS43NDh6bS4zMTQgMHYxLjc0OC0xLjc0OHptLjMxOCAwdjEuNzQ4LTEuNzQ4em0uMzE4IDB2MS43NDgtMS43NDh6bS4zMTggMHYxLjc0OC0xLjc0OHptLjMxNCAwdjEuNzQ4LTEuNzQ4eiIvPiYjeGE7JiN4YTs8cGF0aCBzdHJva2Utd2lkdGg9IjEuNTYiIHN0cm9rZT0iIzM5NEQ1NCIgZD0iTTcuNjg4IDI5LjQxOHYxLjc0OG0tMS41ODItMS43NDh2MS43NDgtMS43NDh6bS4zMTQgMHYxLjc0OC0xLjc0OHptLjMxOCAwdjEuNzQ4LTEuNzQ4em0uMzE4IDB2MS43NDgtMS43NDh6bS4zMTggMHYxLjc0OC0xLjc0OHoiLz4mI3hhOyYjeGE7PHBhdGggZmlsbD0iIzAwMDAwMCIgZD0iTTYuMTA2IDI2Ljk5OHYxLjc0OC0xLjc0OHptLjMxNCAwdjEuNzQ4LTEuNzQ4em0uMzE4IDB2MS43NDgtMS43NDh6bS4zMTggMHYxLjc0OC0xLjc0OHptLjMxOCAwdjEuNzQ4LTEuNzQ4em0uMzE0IDB2MS43NDgtMS43NDh6Ii8+JiN4YTsmI3hhOzxwYXRoIHN0cm9rZS13aWR0aD0iMS41NiIgc3Ryb2tlPSIjMzk0RDU0IiBkPSJNNy42ODggMjYuOTk4djEuNzQ4bS0xLjU4Mi0xLjc0OHYxLjc0OC0xLjc0OHptLjMxNCAwdjEuNzQ4LTEuNzQ4em0uMzE4IDB2MS43NDgtMS43NDh6bS4zMTggMHYxLjc0OC0xLjc0OHptLjMxOCAwdjEuNzQ4LTEuNzQ4eiIvPiYjeGE7JiN4YTs8cGF0aCBmaWxsPSIjMDBBQ0QzIiBkPSJNOC4yNjggMjYuODI0aDIuMDk4djIuMDk3SDguMjY4di0yLjA5N3oiLz4mI3hhOyYjeGE7PHBhdGggZmlsbD0iIzIwQzJFRiIgZD0iTTguMjY4IDI5LjI0M2gyLjA5N3YyLjA5OEg4LjI2OHYtMi4wOTh6Ii8+JiN4YTsmI3hhOzxwYXRoIGZpbGw9IiMwMDAwMDAiIGQ9Ik04LjUyNiAyOC43NDZ2LTEuNzQ4IDEuNzQ4em0uMzE0IDB2LTEuNzQ4IDEuNzQ4em0uMzE4IDB2LTEuNzQ4IDEuNzQ4em0uMzE4IDB2LTEuNzQ4IDEuNzQ4em0uMzE4IDB2LTEuNzQ4IDEuNzQ4em0uMzE0IDB2LTEuNzQ4IDEuNzQ4eiIvPiYjeGE7JiN4YTs8cGF0aCBzdHJva2Utd2lkdGg9IjEuNTYiIHN0cm9rZT0iIzM5NEQ1NCIgZD0iTTEwLjEwOCAyOC43NDZ2LTEuNzQ4bS0xLjU4MiAxLjc0OHYtMS43NDggMS43NDh6bS4zMTQgMHYtMS43NDggMS43NDh6bS4zMTggMHYtMS43NDggMS43NDh6bS4zMTggMHYtMS43NDggMS43NDh6bS4zMTggMHYtMS43NDggMS43NDh6Ii8+JiN4YTsmI3hhOzxwYXRoIGZpbGw9IiMwMDAwMDAiIGQ9Ik04LjUyNiAzMS4xNjZ2LTEuNzQ4IDEuNzQ4em0uMzE0IDB2LTEuNzQ4IDEuNzQ4em0uMzE4IDB2LTEuNzQ4IDEuNzQ4em0uMzE4IDB2LTEuNzQ4IDEuNzQ4em0uMzE4IDB2LTEuNzQ4IDEuNzQ4em0uMzE0IDB2LTEuNzQ4IDEuNzQ4eiIvPiYjeGE7JiN4YTs8cGF0aCBzdHJva2Utd2lkdGg9IjEuNTYiIHN0cm9rZT0iIzM5NEQ1NCIgZD0iTTEwLjEwOCAzMS4xNjZ2LTEuNzQ4bS0xLjU4MiAxLjc0OHYtMS43NDggMS43NDh6bS4zMTQgMHYtMS43NDggMS43NDh6bS4zMTggMHYtMS43NDggMS43NDh6bS4zMTggMHYtMS43NDggMS43NDh6bS4zMTggMHYtMS43NDggMS43NDh6Ii8+JiN4YTsmI3hhOzxwYXRoIGZpbGw9IiMwMEFDRDMiIGQ9Ik0xMC42ODggMzEuMzRoMi4wOTd2LTIuMDk3aC0yLjA5N3YyLjA5N3oiLz4mI3hhOyYjeGE7PHBhdGggZmlsbD0iIzIwQzJFRiIgZD0iTTEwLjY4OCAyOC45MmgyLjA5N3YtMi4wOTdoLTIuMDk3djIuMDk3eiIvPiYjeGE7JiN4YTs8cGF0aCBmaWxsPSIjMDAwMDAwIiBkPSJNMTAuOTQ2IDI5LjQxOHYxLjc0OC0xLjc0OHptLjMxNCAwdjEuNzQ4LTEuNzQ4em0uMzE4IDB2MS43NDgtMS43NDh6bS4zMTggMHYxLjc0OC0xLjc0OHptLjMxNyAwdjEuNzQ4LTEuNzQ4em0uMzE1IDB2MS43NDgtMS43NDh6Ii8+JiN4YTsmI3hhOzxwYXRoIHN0cm9rZS13aWR0aD0iMS41NiIgc3Ryb2tlPSIjMzk0RDU0IiBkPSJNMTIuNTI4IDI5LjQxOHYxLjc0OG0tMS41ODItMS43NDh2MS43NDgtMS43NDh6bS4zMTQgMHYxLjc0OC0xLjc0OHptLjMxOCAwdjEuNzQ4LTEuNzQ4em0uMzE4IDB2MS43NDgtMS43NDh6bS4zMTcgMHYxLjc0OC0xLjc0OHoiLz4mI3hhOyYjeGE7PHBhdGggZmlsbD0iIzAwMDAwMCIgZD0iTTEwLjk0NiAyNi45OTh2MS43NDgtMS43NDh6bS4zMTQgMHYxLjc0OC0xLjc0OHptLjMxOCAwdjEuNzQ4LTEuNzQ4em0uMzE4IDB2MS43NDgtMS43NDh6bS4zMTcgMHYxLjc0OC0xLjc0OHptLjMxNSAwdjEuNzQ4LTEuNzQ4eiIvPiYjeGE7JiN4YTs8cGF0aCBzdHJva2Utd2lkdGg9IjEuNTYiIHN0cm9rZT0iIzM5NEQ1NCIgZD0iTTEyLjUyOCAyNi45OTh2MS43NDhtLTEuNTgyLTEuNzQ4djEuNzQ4LTEuNzQ4em0uMzE0IDB2MS43NDgtMS43NDh6bS4zMTggMHYxLjc0OC0xLjc0OHptLjMxOCAwdjEuNzQ4LTEuNzQ4em0uMzE3IDB2MS43NDgtMS43NDh6Ii8+JiN4YTsmI3hhOzxwYXRoIGZpbGw9IiMwMEFDRDMiIGQ9Ik0xMy4xMDggMjYuODI0aDIuMDk3djIuMDk3aC0yLjA5N3YtMi4wOTd6Ii8+JiN4YTsmI3hhOzxwYXRoIGZpbGw9IiMyMEMyRUYiIGQ9Ik0xMy4xMDggMjkuMjQzaDIuMDk3djIuMDk4aC0yLjA5N3YtMi4wOTh6Ii8+JiN4YTsmI3hhOzxwYXRoIGZpbGw9IiMwMDAwMDAiIGQ9Ik0xMy4zNjYgMjguNzQ2di0xLjc0OCAxLjc0OHptLjMxNCAwdi0xLjc0OCAxLjc0OHptLjMxOCAwdi0xLjc0OCAxLjc0OHptLjMxOCAwdi0xLjc0OCAxLjc0OHptLjMxNyAwdi0xLjc0OCAxLjc0OHptLjMxNSAwdi0xLjc0OCAxLjc0OHoiLz4mI3hhOyYjeGE7PHBhdGggc3Ryb2tlLXdpZHRoPSIxLjU2IiBzdHJva2U9IiMzOTRENTQiIGQ9Ik0xNC45NDggMjguNzQ2di0xLjc0OG0tMS41ODIgMS43NDh2LTEuNzQ4IDEuNzQ4em0uMzE0IDB2LTEuNzQ4IDEuNzQ4em0uMzE4IDB2LTEuNzQ4IDEuNzQ4em0uMzE4IDB2LTEuNzQ4IDEuNzQ4em0uMzE3IDB2LTEuNzQ4IDEuNzQ4eiIvPiYjeGE7JiN4YTs8cGF0aCBmaWxsPSIjMDAwMDAwIiBkPSJNMTMuMzY2IDMxLjE2NnYtMS43NDggMS43NDh6bS4zMTQgMHYtMS43NDggMS43NDh6bS4zMTggMHYtMS43NDggMS43NDh6bS4zMTggMHYtMS43NDggMS43NDh6bS4zMTcgMHYtMS43NDggMS43NDh6bS4zMTUgMHYtMS43NDggMS43NDh6Ii8+JiN4YTsmI3hhOzxwYXRoIHN0cm9rZS13aWR0aD0iMS41NiIgc3Ryb2tlPSIjMzk0RDU0IiBkPSJNMTQuOTQ4IDMxLjE2NnYtMS43NDhtLTEuNTgyIDEuNzQ4di0xLjc0OCAxLjc0OHptLjMxNCAwdi0xLjc0OCAxLjc0OHptLjMxOCAwdi0xLjc0OCAxLjc0OHptLjMxOCAwdi0xLjc0OCAxLjc0OHptLjMxNyAwdi0xLjc0OCAxLjc0OHoiLz4mI3hhOyYjeGE7PHBhdGggZmlsbD0iIzAwQUNEMyIgZD0iTTE1LjUyOCAzMS4zNGgyLjA5N3YtMi4wOTdoLTIuMDk3djIuMDk3eiIvPiYjeGE7JiN4YTs8cGF0aCBmaWxsPSIjMjBDMkVGIiBkPSJNMTUuNTI4IDI4LjkyaDIuMDk3di0yLjA5N2gtMi4wOTd2Mi4wOTd6Ii8+JiN4YTsmI3hhOzxwYXRoIGZpbGw9IiMwMDAwMDAiIGQ9Ik0xNS43ODUgMjkuNDE4djEuNzQ4LTEuNzQ4em0uMzE1IDB2MS43NDgtMS43NDh6bS4zMTggMHYxLjc0OC0xLjc0OHptLjMxNyAwdjEuNzQ4LTEuNzQ4em0uMzE4IDB2MS43NDgtMS43NDh6bS4zMTUgMHYxLjc0OC0xLjc0OHoiLz4mI3hhOyYjeGE7PHBhdGggc3Ryb2tlLXdpZHRoPSIxLjU2IiBzdHJva2U9IiMzOTRENTQiIGQ9Ik0xNy4zNjggMjkuNDE4djEuNzQ4bS0xLjU4My0xLjc0OHYxLjc0OC0xLjc0OHptLjMxNSAwdjEuNzQ4LTEuNzQ4em0uMzE4IDB2MS43NDgtMS43NDh6bS4zMTcgMHYxLjc0OC0xLjc0OHptLjMxOCAwdjEuNzQ4LTEuNzQ4eiIvPiYjeGE7JiN4YTs8cGF0aCBmaWxsPSIjMDAwMDAwIiBkPSJNMTUuNzg1IDI2Ljk5OHYxLjc0OC0xLjc0OHptLjMxNSAwdjEuNzQ4LTEuNzQ4em0uMzE4IDB2MS43NDgtMS43NDh6bS4zMTcgMHYxLjc0OC0xLjc0OHptLjMxOCAwdjEuNzQ4LTEuNzQ4em0uMzE1IDB2MS43NDgtMS43NDh6Ii8+JiN4YTsmI3hhOzxwYXRoIHN0cm9rZS13aWR0aD0iMS41NiIgc3Ryb2tlPSIjMzk0RDU0IiBkPSJNMTcuMzY4IDI2Ljk5OHYxLjc0OG0tMS41ODMtMS43NDh2MS43NDgtMS43NDh6bS4zMTUgMHYxLjc0OC0xLjc0OHptLjMxOCAwdjEuNzQ4LTEuNzQ4em0uMzE3IDB2MS43NDgtMS43NDh6bS4zMTggMHYxLjc0OC0xLjc0OHoiLz4mI3hhOyYjeGE7PC9nPiYjeGE7JiN4YTs8bWFzayBoZWlnaHQ9IjE1IiB3aWR0aD0iMjQiIHk9IjI0IiB4PSIzIiBtYXNrVW5pdHM9InVzZXJTcGFjZU9uVXNlIiBpZD0iYyI+JiN4YTsmI3hhOzxwYXRoIGZpbGw9IiNmZmZmZmYiIGQ9Ik04LjA0MyAyNC4yMTJ2NC44NjhINS43MTV2Mi40MzRoLTEuOTVjLS4wMDguMDctLjAxNC4xNC0uMDIxLjIxMS0uMTIyIDEuMzI3LjExIDIuNTUuNjQxIDMuNTk1bC4xNzkuMzIxYy4xMDcuMTkyLjIzMi4zNzMuMzY0LjU1LjEzMS4xNzUuMTc4LjI3Mi4yNjEuMzkgMS40MDYgMS41OCAzLjUwMyAyLjM0IDUuOTIzIDIuMzQgNS4zNiAwIDkuOTEtMi4zNzQgMTEuOTIzLTcuNzA4IDEuNDI4LjE0NiAyLjc5OC0uMjIgMy40MjItMS40MzktLjk5NC0uNTc0LTIuMjczLS4zOS0zLjAxLS4wMmwxLjk1Mi01LjU0My03LjYyIDQuODY5aC0yLjQzNHYtNC44NjhIOC4wNDN6Ii8+JiN4YTsmI3hhOzwvbWFzaz4mI3hhOyYjeGE7PGcgbWFzaz0idXJsKCNjKSI+JiN4YTsmI3hhOzxwYXRoIGZpbGw9IiMxN0I1RUIiIGQ9Ik0yMy40NDkgMjkuNzU1Yy4xNjItMS4yNjEtLjc4Mi0yLjI1Mi0xLjM2Ny0yLjcyMi0uNjc0Ljc4LS43OCAyLjgyMy4yNzkgMy42ODQtLjU5LjUyNC0xLjgzNSAxLTMuMTA5IDFIMy41OThjLS4xMjQgMS4zMyAwIDcuNzM0IDAgNy43MzRoMjIuOTY1bC0uMTA0LTkuNjc1Yy0uOTk1LS41NzQtMi4yNzQtLjM5MS0zLjAxLS4wMjEiLz4mI3hhOyYjeGE7PC9nPiYjeGE7JiN4YTs8bWFzayBoZWlnaHQ9IjE1IiB3aWR0aD0iMjQiIHk9IjI0IiB4PSIzIiBtYXNrVW5pdHM9InVzZXJTcGFjZU9uVXNlIiBpZD0iZCI+JiN4YTsmI3hhOzxwYXRoIGZpbGw9IiNmZmZmZmYiIGQ9Ik04LjA0MyAyNC4yMTJ2NC44NjhINS43MTV2Mi40MzRoLTEuOTVjLS4wMDguMDctLjAxNC4xNC0uMDIxLjIxMS0uMTIyIDEuMzI3LjExIDIuNTUuNjQxIDMuNTk1bC4xNzkuMzIxYy4xMDcuMTkyLjIzMi4zNzMuMzY0LjU1LjEzMS4xNzUuMTc4LjI3Mi4yNjEuMzkgMS40MDYgMS41OCAzLjUwMyAyLjM0IDUuOTIzIDIuMzQgNS4zNiAwIDkuOTEtMi4zNzQgMTEuOTIzLTcuNzA4IDEuNDI4LjE0NiAyLjc5OC0uMjIgMy40MjItMS40MzktLjk5NC0uNTc0LTIuMjczLS4zOS0zLjAxLS4wMmwxLjk1Mi01LjU0My03LjYyIDQuODY5aC0yLjQzNHYtNC44NjhIOC4wNDN6Ii8+JiN4YTsmI3hhOzwvbWFzaz4mI3hhOyYjeGE7PGcgbWFzaz0idXJsKCNkKSI+JiN4YTsmI3hhOzxwYXRoIGZpbGwtb3BhY2l0eT0iLjE3IiBmaWxsPSIjMDAwMDAwIiBkPSJNMy41OTggMzMuNDE5djYuMDMyaDIyLjk2NXYtNi4wMzIiLz4mI3hhOyYjeGE7PC9nPiYjeGE7JiN4YTs8bWFzayBoZWlnaHQ9IjE1IiB3aWR0aD0iMjQiIHk9IjI0IiB4PSIzIiBtYXNrVW5pdHM9InVzZXJTcGFjZU9uVXNlIiBpZD0iZSI+JiN4YTsmI3hhOzxwYXRoIGZpbGw9IiNmZmZmZmYiIGQ9Ik04LjA0MyAyNC4yMTJ2NC44NjhINS43MTV2Mi40MzRoLTEuOTVjLS4wMDguMDctLjAxNC4xNC0uMDIxLjIxMS0uMTIyIDEuMzI3LjExIDIuNTUuNjQxIDMuNTk1bC4xNzkuMzIxYy4xMDcuMTkyLjIzMi4zNzMuMzY0LjU1LjEzMS4xNzUuMTc4LjI3Mi4yNjEuMzkgMS40MDYgMS41OCAzLjUwMyAyLjM0IDUuOTIzIDIuMzQgNS4zNiAwIDkuOTEtMi4zNzQgMTEuOTIzLTcuNzA4IDEuNDI4LjE0NiAyLjc5OC0uMjIgMy40MjItMS40MzktLjk5NC0uNTc0LTIuMjczLS4zOS0zLjAxLS4wMmwxLjk1Mi01LjU0My03LjYyIDQuODY5aC0yLjQzNHYtNC44NjhIOC4wNDN6Ii8+JiN4YTsmI3hhOzwvbWFzaz4mI3hhOyYjeGE7PGcgbWFzaz0idXJsKCNlKSI+JiN4YTsmI3hhOzxwYXRoIGZpbGw9IiNENEVERjEiIGQ9Ik0xMS43NzIgMzguOTFjLTEuNDMzLS42OC0yLjIyLTEuNjA0LTIuNjU3LTIuNjEzbC00LjM1My4xOSAyLjIyMyAyLjk2NCA0Ljc4Ny0uNTR6Ii8+JiN4YTsmI3hhOzwvZz4mI3hhOyYjeGE7PG1hc2sgaGVpZ2h0PSIxNSIgd2lkdGg9IjI0IiB5PSIyNCIgeD0iMyIgbWFza1VuaXRzPSJ1c2VyU3BhY2VPblVzZSIgaWQ9ImYiPiYjeGE7JiN4YTs8cGF0aCBmaWxsPSIjZmZmZmZmIiBkPSJNOC4wNDMgMjQuMjEydjQuODY4SDUuNzE1djIuNDM0aC0xLjk1Yy0uMDA4LjA3LS4wMTQuMTQtLjAyMS4yMTEtLjEyMiAxLjMyNy4xMSAyLjU1LjY0MSAzLjU5NWwuMTc5LjMyMWMuMTA3LjE5Mi4yMzIuMzczLjM2NC41NS4xMzEuMTc1LjE3OC4yNzIuMjYxLjM5IDEuNDA2IDEuNTggMy41MDMgMi4zNCA1LjkyMyAyLjM0IDUuMzYgMCA5LjkxLTIuMzc0IDExLjkyMy03LjcwOCAxLjQyOC4xNDYgMi43OTgtLjIyIDMuNDIyLTEuNDM5LS45OTQtLjU3NC0yLjI3My0uMzktMy4wMS0uMDJsMS45NTItNS41NDMtNy42MiA0Ljg2OWgtMi40MzR2LTQuODY4SDguMDQzeiIvPiYjeGE7JiN4YTs8L21hc2s+JiN4YTsmI3hhOzxnIG1hc2s9InVybCgjZikiPiYjeGE7JiN4YTs8cGF0aCBmaWxsLW9wYWNpdHk9Ii4wODUiIGZpbGw9IiMwMDAwMDAiIGQ9Ik0yMy41NDcgMjkuNzA4di4wMDNjLTIuMjA4IDIuODQ2LTUuMzc0IDUuMzMyLTguNzc0IDYuNjM4LTMuMDMyIDEuMTY1LTUuNjc2IDEuMTctNy41LjIzNS0uMTk3LS4xMTEtLjM5LS4yMzUtLjU4My0uMzUxLTEuMzM3LS45MzUtMi4wOS0yLjQ4LTIuMDI3LTQuNTE4SDMuNTk4djcuNzM2aDIyLjk2NVYyOS4yOWgtMi42NDVsLS4zNy40MTd6Ii8+JiN4YTsmI3hhOzwvZz4mI3hhOyYjeGE7PHBhdGggc3Ryb2tlLWxpbmVjYXA9InJvdW5kIiBzdHJva2Utd2lkdGg9Ii41IiBzdHJva2U9IiMzOTRENTQiIGQ9Ik00LjgyOCAzNi4zODVjMS41LjA4MiAzLjEuMDk3IDQuNDk1LS4zNCIvPiYjeGE7JiN4YTs8cGF0aCBmaWxsPSIjRDRFREYxIiBkPSJNMTAuODEzIDM1LjMyYS41NzguNTc4IDAgMSAxLTEuMTU3IDAgLjU3OC41NzggMCAwIDEgMS4xNTcgMHoiLz4mI3hhOyYjeGE7PHBhdGggZmlsbD0iIzM5NEQ1NCIgZD0iTTEwLjM4NCAzNC45MzNhLjE2OS4xNjkgMCAxIDAgLjIzMy4yMjcuNDE0LjQxNCAwIDEgMS0uMjMzLS4yMjd6TTAgMzMuNTQyaDI2LjkxNWMtLjU4Ni0uMTQ5LTEuODU0LS4zNS0xLjY0NS0xLjExOC0xLjA2NSAxLjIzMy0zLjYzNS44NjUtNC4yODQuMjU3LS43MjIgMS4wNDgtNC45MjcuNjUtNS4yMi0uMTY2LS45MDUgMS4wNjItMy43MTEgMS4wNjItNC42MTcgMC0uMjkzLjgxNi00LjQ5NyAxLjIxNC01LjIyLjE2Ni0uNjQ4LjYwOC0zLjIxOC45NzYtNC4yODQtLjI1Ny4yMS43NjgtMS4wNTkuOTctMS42NDUgMS4xMTh6Ii8+JiN4YTsmI3hhOzwvZz4mI3hhOyYjeGE7PGRlZnM+JiN4YTsmI3hhOzxjbGlwUGF0aCBpZD0iYSI+JiN4YTsmI3hhOzxwYXRoIGQ9Ik0wIDBoNjR2NjRIMHoiIGZpbGw9IiNmZmZmZmYiLz4mI3hhOyYjeGE7PC9jbGlwUGF0aD4mI3hhOyYjeGE7PC9kZWZzPiYjeGE7JiN4YTs8L3N2Zz4=;" vertex="1" parent="1">
          <mxGeometry x="670" y="150" width="190" height="190" as="geometry" />
        </mxCell>
        <mxCell id="goY5rZ3ymkB16XzDZ8tm-5" value="" style="shape=image;verticalLabelPosition=bottom;labelBackgroundColor=default;verticalAlign=top;aspect=fixed;imageAspect=0;image=data:image/svg+xml,PHN2ZyB4bWxucz0iaHR0cDovL3d3dy53My5vcmcvMjAwMC9zdmciIHZpZXdCb3g9IjUuNTkxIC0xNjUuMjM4IDQ3NC44MDEgNDc0LjgwMSIgaGVpZ2h0PSI4MDBweCIgd2lkdGg9IjgwMHB4Ij48cGF0aCBmaWxsPSIjNjQ2NDY0IiBkPSJNMTg0LjYxNCA2MS45MjljMC0xNC41NjItNC4xNTItMjIuMDM4LTEyLjQ1Ny0yMi40NDctMy4zMDUtLjE1Ni02LjUzLjM3LTkuNjY5IDEuNTg5LTIuNTA1Ljg5Ni00LjE5MSAxLjc4NC01LjA3OCAyLjY4MVY3OC41MWM1LjMxMiAzLjMzNCAxMC4wMjkgNC44ODQgMTQuMTQzIDQuNjQgOC43MDMtLjU3NyAxMy4wNjEtNy42NDMgMTMuMDYxLTIxLjIyMXptMTAuMjQ0LjYwNGMwIDcuMzk4LTEuNzM1IDEzLjUzOS01LjIyNSAxOC40MjItMy44ODkgNS41MjctOS4yNzkgOC4zNzMtMTYuMTcgOC41MjktNS4xOTUuMTY1LTEwLjU0Ny0xLjQ2Mi0xNi4wNTQtNC44NzR2MzEuNTkxbC04LjkwOS0zLjE3OHYtNzAuMTJjMS40NjItMS43OTMgMy4zNDQtMy4zMzMgNS42MjQtNC42NCA1LjMwMy0zLjA5IDExLjc0NS00LjY3OCAxOS4zMjktNC43NTZsLjEyNi4xMjZjNi45MzEtLjA4NyAxMi4yNzEgMi43NTkgMTYuMDI0IDguNTI5IDMuNSA1LjI5MyA1LjI1NSAxMi4wNzcgNS4yNTUgMjAuMzcxek0yNDkuMzA1IDgzLjI2NmMwIDkuOTIzLS45OTQgMTYuNzk0LTIuOTgyIDIwLjYxNS0xLjk5OCAzLjgyLTUuOCA2Ljg3MS0xMS40MTQgOS4xNDMtNC41NTIgMS43OTMtOS40NzUgMi43NjgtMTQuNzU3IDIuOTM0bC0xLjQ3My01LjYxNGM1LjM3MS0uNzMgOS4xNTMtMS40NjIgMTEuMzQ2LTIuMTkzIDQuMzE4LTEuNDYyIDcuMjgxLTMuNzAzIDguOTA5LTYuNzA2IDEuMzA2LTIuNDQ2IDEuOTQ5LTcuMTE1IDEuOTQ5LTE0LjAyNVY4NS4xYy02LjA5MiAyLjc2OS0xMi40NzYgNC4xNDMtMTkuMTUyIDQuMTQzLTQuMzg3IDAtOC4yNTYtMS4zNzQtMTEuNTktNC4xNDMtMy43NDMtMy4wMTItNS42MTQtNi44MzItNS42MTQtMTEuNDYydi0zNy4wOGw4LjkwOS0zLjA1MXYzNy4zMjFjMCAzLjk4NiAxLjI4NiA3LjA1NyAzLjg1OSA5LjIxMXM1LjkwNyAzLjE4OCA5Ljk5MSAzLjEwOWM0LjA4NC0uMDg4IDguNDYtMS42NjcgMTMuMTA5LTQuNzU3di00My41NGg4LjkwOXY0OC40MTV6TTI4NC4wODIgODguOTk3YTM1LjUxIDM1LjUxIDAgMCAxLTIuOTM0LjEyNmMtNS4wMzkgMC04Ljk2OC0xLjE5OC0xMS43NzQtMy42MDYtMi43OTgtMi40MDctNC4yMDEtNS43My00LjIwMS05Ljk3MXYtMzUuMDloLTYuMTAydi01LjYwNGg2LjEwMlYxOS45NjhsOC44OTktMy4xNjh2MTguMDUyaDEwLjAxdjUuNjA0aC0xMC4wMXYzNC44NDZjMCAzLjM0NC44OTYgNS43MTIgMi42ODkgNy4wOTcgMS41NCAxLjE0IDMuOTg3IDEuNzkzIDcuMzIgMS45NTl2NC42Mzl6TTMzOC4wMjMgODguMjY2aC04LjkwOVY1My44NzhjMC0zLjQ5OS0uODE4LTYuNTExLTIuNDQ2LTkuMDI1LTEuODgxLTIuODQ3LTQuNDkzLTQuMjctNy44NDctNC4yNy00LjA4NCAwLTkuMTkxIDIuMTU0LTE1LjMyMiA2LjQ2MnY0MS4yMjFoLTguOTA4VjYuMDY5bDguOTA4LTIuODA3VjQwLjdjNS42OTItNC4xNDMgMTEuOTExLTYuMjE5IDE4LjY2Ni02LjIxOSA0LjcxOCAwIDguNTM4IDEuNTg5IDExLjQ2MyA0Ljc1NyAyLjkzNCAzLjE2NyA0LjM5NiA3LjExNSA0LjM5NiAxMS44MzN2MzcuMTk1aC0uMDAxek0zODUuMzc0IDYwLjUyNmMwLTUuNTk1LTEuMDYyLTEwLjIxNS0zLjE3OC0xMy44Ny0yLjUxNS00LjQ1NC02LjQyMy02LjgwNC0xMS43MDYtNy4wNDctOS43NjcuNTY1LTE0LjY0MSA3LjU2My0xNC42NDEgMjAuOTc2IDAgNi4xNSAxLjAxNCAxMS4yODcgMy4wNjEgMTUuNDEgMi42MTIgNS4yNTQgNi41MzEgNy44NDcgMTEuNzU2IDcuNzU5IDkuODA1LS4wNzkgMTQuNzA4LTcuODE4IDE0LjcwOC0yMy4yMjh6bTkuNzU3LjA1OGMwIDcuOTY0LTIuMDM3IDE0LjU5Mi02LjEwMiAxOS44ODQtNC40NzUgNS45MjctMTAuNjUzIDguODk5LTE4LjUzOSA4Ljg5OS03LjgxNyAwLTEzLjkwOS0yLjk3My0xOC4zMDUtOC44OTktMy45ODctNS4yOTItNS45NzYtMTEuOTItNS45NzYtMTkuODg0IDAtNy40ODUgMi4xNTQtMTMuNzgyIDYuNDYzLTE4LjkwOSA0LjU1Mi01LjQzOSAxMC41MzYtOC4xNjggMTcuOTM1LTguMTY4IDcuMzk3IDAgMTMuNDIxIDIuNzI5IDE4LjA2MSA4LjE2OCA0LjMwOSA1LjEyNyA2LjQ2MyAxMS40MjQgNi40NjMgMTguOTA5ek00NDYuMjA1IDg4LjI2NmgtOC45MDlWNTEuOTI5YzAtMy45ODYtMS4xOTgtNy4wOTYtMy41OTYtOS4zMzgtMi4zOTgtMi4yMzItNS41OTYtMy4zMTQtOS41ODItMy4yMjctNC4yMjkuMDc4LTguMjU2IDEuNDYyLTEyLjA3NiA0LjE0M3Y0NC43NTloLTguOTA5di00NS44NmM1LjEyNy0zLjczMiA5Ljg0NS02LjE3IDE0LjE1My03LjMxIDQuMDY0LTEuMDYyIDcuNjUxLTEuNTg5IDEwLjc0MS0xLjU4OSAyLjExNCAwIDQuMTA0LjIwNCA1Ljk3NS42MTQgMy40OTkuODA5IDYuMzQ2IDIuMzEgOC41MzggNC41MTMgMi40NDcgMi40MzcgMy42NjUgNS4zNiAzLjY2NSA4Ljc4MnY0MC44NXoiLz48bGluZWFyR3JhZGllbnQgZ3JhZGllbnRUcmFuc2Zvcm09Im1hdHJpeCguNTYyNSAwIDAgLS41NjggMTE0NS41NiAxNjYuMjgyKSIgeTI9IjE4Mi4wNzUiIHgyPSItMTkyMi4yOTYiIHkxPSIyNzUuODY4IiB4MT0iLTIwMzEuMzEyIiBncmFkaWVudFVuaXRzPSJ1c2VyU3BhY2VPblVzZSIgaWQ9ImEiPjxzdG9wIHN0b3AtY29sb3I9IiM1YTlmZDQiIG9mZnNldD0iMCIvPjxzdG9wIHN0b3AtY29sb3I9IiMzMDY5OTgiIG9mZnNldD0iMSIvPjwvbGluZWFyR3JhZGllbnQ+PHBhdGggZmlsbD0idXJsKCNhKSIgZD0iTTYwLjUxIDYuMzk4Yy00LjU4NC4wMjEtOC45NjEuNDEyLTEyLjgxMiAxLjA5NC0xMS4zNDYgMi4wMDUtMTMuNDA2IDYuMi0xMy40MDYgMTMuOTM4djEwLjIxOWgyNi44MTJ2My40MDZIMjQuMjI5Yy03Ljc5MiAwLTE0LjYxNiA0LjY4NC0xNi43NSAxMy41OTQtMi40NjIgMTAuMjEzLTIuNTcxIDE2LjU4NiAwIDI3LjI1IDEuOTA2IDcuOTM4IDYuNDU4IDEzLjU5NCAxNC4yNSAxMy41OTRoOS4yMTl2LTEyLjI1YzAtOC44NSA3LjY1Ny0xNi42NTYgMTYuNzUtMTYuNjU2aDI2Ljc4MWM3LjQ1NSAwIDEzLjQwNi02LjEzOCAxMy40MDYtMTMuNjI1VjIxLjQyOWMwLTcuMjY2LTYuMTMtMTIuNzI1LTEzLjQwNi0xMy45MzgtNC42MDctLjc2Ni05LjM4NS0xLjExNS0xMy45NjktMS4wOTN6bS0xNC41IDguMjE4YzIuNzcgMCA1LjAzMSAyLjI5OSA1LjAzMSA1LjEyNSAwIDIuODE2LTIuMjYyIDUuMDk0LTUuMDMxIDUuMDk0LTIuNzc5IDAtNS4wMzEtMi4yNzctNS4wMzEtNS4wOTQgMC0yLjgyNiAyLjI1Mi01LjEyNSA1LjAzMS01LjEyNXoiLz48bGluZWFyR3JhZGllbnQgZ3JhZGllbnRUcmFuc2Zvcm09Im1hdHJpeCguNTYyNSAwIDAgLS41NjggMTE0NS41NiAxNjYuMjgyKSIgeTI9IjE4MC4zODQiIHgyPSItMTkxOS4wOCIgeTE9IjEyNS4zMDUiIHgxPSItMTg4MC4xNTEiIGdyYWRpZW50VW5pdHM9InVzZXJTcGFjZU9uVXNlIiBpZD0iYiI+PHN0b3Agc3RvcC1jb2xvcj0iI2ZmZDQzYiIgb2Zmc2V0PSIwIi8+PHN0b3Agc3RvcC1jb2xvcj0iI2ZmZTg3MyIgb2Zmc2V0PSIxIi8+PC9saW5lYXJHcmFkaWVudD48cGF0aCBmaWxsPSJ1cmwoI2IpIiBkPSJNOTEuMjI5IDM1LjA1NFY0Ni45NmMwIDkuMjMxLTcuODI2IDE3LTE2Ljc1IDE3SDQ3LjY5OGMtNy4zMzYgMC0xMy40MDYgNi4yNzgtMTMuNDA2IDEzLjYyNXYyNS41MzFjMCA3LjI2NyA2LjMxOCAxMS41NDEgMTMuNDA2IDEzLjYyNSA4LjQ4NyAyLjQ5NiAxNi42MjYgMi45NDcgMjYuNzgxIDAgNi43NS0xLjk1NCAxMy40MDYtNS44ODggMTMuNDA2LTEzLjYyNVY5Mi44OThINjEuMTA0di0zLjQwNmg0MC4xODdjNy43OTMgMCAxMC42OTYtNS40MzYgMTMuNDA2LTEzLjU5NCAyLjgtOC4zOTggMi42ODEtMTYuNDc2IDAtMjcuMjUtMS45MjYtNy43NTctNS42MDQtMTMuNTk0LTEzLjQwNi0xMy41OTRIOTEuMjI5ek03Ni4xNjYgOTkuNzFjMi43NzkgMCA1LjAzMSAyLjI3NyA1LjAzMSA1LjA5NCAwIDIuODI2LTIuMjUyIDUuMTI1LTUuMDMxIDUuMTI1LTIuNzcgMC01LjAzMS0yLjI5OS01LjAzMS01LjEyNSAwLTIuODE2IDIuMjYyLTUuMDk0IDUuMDMxLTUuMDk0eiIvPjxwYXRoIGZpbGw9IiM2NDY0NjQiIGQ9Ik00NjMuNTU0IDI2LjkwOWgxLjU2MnYtOS43OTZoMy42OTl2LTEuMTY4aC04Ljk2MnYxLjE2OGgzLjd2OS43OTZtNi42NDggMGgxLjMzNHYtOC45NDdsMi44OTYgOC45NDZoMS40ODVsMy4wMTktOC45MTZ2OC45MTdoMS40NTZWMTUuOTQ2aC0xLjkyNmwtMy4yOTkgOS4zOTMtMi44MTItOS4zOTNoLTIuMTUzdjEwLjk2MyIvPjxyYWRpYWxHcmFkaWVudCBncmFkaWVudFVuaXRzPSJ1c2VyU3BhY2VPblVzZSIgZ3JhZGllbnRUcmFuc2Zvcm09Im1hdHJpeCgwIC0uMjM5OSAtMS4wNTQ3IDAgNDU4Ljc5NyAtNjgwLjEpIiByPSIyOS4wMzciIGN5PSIzNzYuNzkxIiBjeD0iLTMzOTMuMjM4IiBpZD0iYyI+PHN0b3Agc3RvcC1vcGFjaXR5PSIuNDk4IiBzdG9wLWNvbG9yPSIjYjhiOGI4IiBvZmZzZXQ9IjAiLz48c3RvcCBzdG9wLW9wYWNpdHk9IjAiIHN0b3AtY29sb3I9IiM3ZjdmN2YiIG9mZnNldD0iMSIvPjwvcmFkaWFsR3JhZGllbnQ+PHBhdGggZmlsbD0idXJsKCNjKSIgb3BhY2l0eT0iLjQ0NCIgZD0iTTk3LjMzOSAxMzQuMDk4YzAgMy44NDgtMTYuMDg3IDYuOTY3LTM1LjkzMiA2Ljk2Ny0xOS44NDQgMC0zNS45MzEtMy4xMTktMzUuOTMxLTYuOTY3czE2LjA4Ny02Ljk2OCAzNS45MzEtNi45NjhjMTkuODQ1IDAgMzUuOTMyIDMuMTIgMzUuOTMyIDYuOTY4eiIvPjwvc3ZnPg==;" vertex="1" parent="1">
          <mxGeometry x="470" y="170" width="190" height="190" as="geometry" />
        </mxCell>
        <mxCell id="goY5rZ3ymkB16XzDZ8tm-6" value="" style="shape=image;verticalLabelPosition=bottom;labelBackgroundColor=default;verticalAlign=top;aspect=fixed;imageAspect=0;image=data:image/svg+xml,PHN2ZyB4bWxucz0iaHR0cDovL3d3dy53My5vcmcvMjAwMC9zdmciIHZpZXdCb3g9IjUuNTkxIC0xNjUuMjM4IDQ3NC44MDEgNDc0LjgwMSIgaGVpZ2h0PSI4MDBweCIgd2lkdGg9IjgwMHB4Ij48cGF0aCBmaWxsPSIjNjQ2NDY0IiBkPSJNMTg0LjYxNCA2MS45MjljMC0xNC41NjItNC4xNTItMjIuMDM4LTEyLjQ1Ny0yMi40NDctMy4zMDUtLjE1Ni02LjUzLjM3LTkuNjY5IDEuNTg5LTIuNTA1Ljg5Ni00LjE5MSAxLjc4NC01LjA3OCAyLjY4MVY3OC41MWM1LjMxMiAzLjMzNCAxMC4wMjkgNC44ODQgMTQuMTQzIDQuNjQgOC43MDMtLjU3NyAxMy4wNjEtNy42NDMgMTMuMDYxLTIxLjIyMXptMTAuMjQ0LjYwNGMwIDcuMzk4LTEuNzM1IDEzLjUzOS01LjIyNSAxOC40MjItMy44ODkgNS41MjctOS4yNzkgOC4zNzMtMTYuMTcgOC41MjktNS4xOTUuMTY1LTEwLjU0Ny0xLjQ2Mi0xNi4wNTQtNC44NzR2MzEuNTkxbC04LjkwOS0zLjE3OHYtNzAuMTJjMS40NjItMS43OTMgMy4zNDQtMy4zMzMgNS42MjQtNC42NCA1LjMwMy0zLjA5IDExLjc0NS00LjY3OCAxOS4zMjktNC43NTZsLjEyNi4xMjZjNi45MzEtLjA4NyAxMi4yNzEgMi43NTkgMTYuMDI0IDguNTI5IDMuNSA1LjI5MyA1LjI1NSAxMi4wNzcgNS4yNTUgMjAuMzcxek0yNDkuMzA1IDgzLjI2NmMwIDkuOTIzLS45OTQgMTYuNzk0LTIuOTgyIDIwLjYxNS0xLjk5OCAzLjgyLTUuOCA2Ljg3MS0xMS40MTQgOS4xNDMtNC41NTIgMS43OTMtOS40NzUgMi43NjgtMTQuNzU3IDIuOTM0bC0xLjQ3My01LjYxNGM1LjM3MS0uNzMgOS4xNTMtMS40NjIgMTEuMzQ2LTIuMTkzIDQuMzE4LTEuNDYyIDcuMjgxLTMuNzAzIDguOTA5LTYuNzA2IDEuMzA2LTIuNDQ2IDEuOTQ5LTcuMTE1IDEuOTQ5LTE0LjAyNVY4NS4xYy02LjA5MiAyLjc2OS0xMi40NzYgNC4xNDMtMTkuMTUyIDQuMTQzLTQuMzg3IDAtOC4yNTYtMS4zNzQtMTEuNTktNC4xNDMtMy43NDMtMy4wMTItNS42MTQtNi44MzItNS42MTQtMTEuNDYydi0zNy4wOGw4LjkwOS0zLjA1MXYzNy4zMjFjMCAzLjk4NiAxLjI4NiA3LjA1NyAzLjg1OSA5LjIxMXM1LjkwNyAzLjE4OCA5Ljk5MSAzLjEwOWM0LjA4NC0uMDg4IDguNDYtMS42NjcgMTMuMTA5LTQuNzU3di00My41NGg4LjkwOXY0OC40MTV6TTI4NC4wODIgODguOTk3YTM1LjUxIDM1LjUxIDAgMCAxLTIuOTM0LjEyNmMtNS4wMzkgMC04Ljk2OC0xLjE5OC0xMS43NzQtMy42MDYtMi43OTgtMi40MDctNC4yMDEtNS43My00LjIwMS05Ljk3MXYtMzUuMDloLTYuMTAydi01LjYwNGg2LjEwMlYxOS45NjhsOC44OTktMy4xNjh2MTguMDUyaDEwLjAxdjUuNjA0aC0xMC4wMXYzNC44NDZjMCAzLjM0NC44OTYgNS43MTIgMi42ODkgNy4wOTcgMS41NCAxLjE0IDMuOTg3IDEuNzkzIDcuMzIgMS45NTl2NC42Mzl6TTMzOC4wMjMgODguMjY2aC04LjkwOVY1My44NzhjMC0zLjQ5OS0uODE4LTYuNTExLTIuNDQ2LTkuMDI1LTEuODgxLTIuODQ3LTQuNDkzLTQuMjctNy44NDctNC4yNy00LjA4NCAwLTkuMTkxIDIuMTU0LTE1LjMyMiA2LjQ2MnY0MS4yMjFoLTguOTA4VjYuMDY5bDguOTA4LTIuODA3VjQwLjdjNS42OTItNC4xNDMgMTEuOTExLTYuMjE5IDE4LjY2Ni02LjIxOSA0LjcxOCAwIDguNTM4IDEuNTg5IDExLjQ2MyA0Ljc1NyAyLjkzNCAzLjE2NyA0LjM5NiA3LjExNSA0LjM5NiAxMS44MzN2MzcuMTk1aC0uMDAxek0zODUuMzc0IDYwLjUyNmMwLTUuNTk1LTEuMDYyLTEwLjIxNS0zLjE3OC0xMy44Ny0yLjUxNS00LjQ1NC02LjQyMy02LjgwNC0xMS43MDYtNy4wNDctOS43NjcuNTY1LTE0LjY0MSA3LjU2My0xNC42NDEgMjAuOTc2IDAgNi4xNSAxLjAxNCAxMS4yODcgMy4wNjEgMTUuNDEgMi42MTIgNS4yNTQgNi41MzEgNy44NDcgMTEuNzU2IDcuNzU5IDkuODA1LS4wNzkgMTQuNzA4LTcuODE4IDE0LjcwOC0yMy4yMjh6bTkuNzU3LjA1OGMwIDcuOTY0LTIuMDM3IDE0LjU5Mi02LjEwMiAxOS44ODQtNC40NzUgNS45MjctMTAuNjUzIDguODk5LTE4LjUzOSA4Ljg5OS03LjgxNyAwLTEzLjkwOS0yLjk3My0xOC4zMDUtOC44OTktMy45ODctNS4yOTItNS45NzYtMTEuOTItNS45NzYtMTkuODg0IDAtNy40ODUgMi4xNTQtMTMuNzgyIDYuNDYzLTE4LjkwOSA0LjU1Mi01LjQzOSAxMC41MzYtOC4xNjggMTcuOTM1LTguMTY4IDcuMzk3IDAgMTMuNDIxIDIuNzI5IDE4LjA2MSA4LjE2OCA0LjMwOSA1LjEyNyA2LjQ2MyAxMS40MjQgNi40NjMgMTguOTA5ek00NDYuMjA1IDg4LjI2NmgtOC45MDlWNTEuOTI5YzAtMy45ODYtMS4xOTgtNy4wOTYtMy41OTYtOS4zMzgtMi4zOTgtMi4yMzItNS41OTYtMy4zMTQtOS41ODItMy4yMjctNC4yMjkuMDc4LTguMjU2IDEuNDYyLTEyLjA3NiA0LjE0M3Y0NC43NTloLTguOTA5di00NS44NmM1LjEyNy0zLjczMiA5Ljg0NS02LjE3IDE0LjE1My03LjMxIDQuMDY0LTEuMDYyIDcuNjUxLTEuNTg5IDEwLjc0MS0xLjU4OSAyLjExNCAwIDQuMTA0LjIwNCA1Ljk3NS42MTQgMy40OTkuODA5IDYuMzQ2IDIuMzEgOC41MzggNC41MTMgMi40NDcgMi40MzcgMy42NjUgNS4zNiAzLjY2NSA4Ljc4MnY0MC44NXoiLz48bGluZWFyR3JhZGllbnQgZ3JhZGllbnRUcmFuc2Zvcm09Im1hdHJpeCguNTYyNSAwIDAgLS41NjggMTE0NS41NiAxNjYuMjgyKSIgeTI9IjE4Mi4wNzUiIHgyPSItMTkyMi4yOTYiIHkxPSIyNzUuODY4IiB4MT0iLTIwMzEuMzEyIiBncmFkaWVudFVuaXRzPSJ1c2VyU3BhY2VPblVzZSIgaWQ9ImEiPjxzdG9wIHN0b3AtY29sb3I9IiM1YTlmZDQiIG9mZnNldD0iMCIvPjxzdG9wIHN0b3AtY29sb3I9IiMzMDY5OTgiIG9mZnNldD0iMSIvPjwvbGluZWFyR3JhZGllbnQ+PHBhdGggZmlsbD0idXJsKCNhKSIgZD0iTTYwLjUxIDYuMzk4Yy00LjU4NC4wMjEtOC45NjEuNDEyLTEyLjgxMiAxLjA5NC0xMS4zNDYgMi4wMDUtMTMuNDA2IDYuMi0xMy40MDYgMTMuOTM4djEwLjIxOWgyNi44MTJ2My40MDZIMjQuMjI5Yy03Ljc5MiAwLTE0LjYxNiA0LjY4NC0xNi43NSAxMy41OTQtMi40NjIgMTAuMjEzLTIuNTcxIDE2LjU4NiAwIDI3LjI1IDEuOTA2IDcuOTM4IDYuNDU4IDEzLjU5NCAxNC4yNSAxMy41OTRoOS4yMTl2LTEyLjI1YzAtOC44NSA3LjY1Ny0xNi42NTYgMTYuNzUtMTYuNjU2aDI2Ljc4MWM3LjQ1NSAwIDEzLjQwNi02LjEzOCAxMy40MDYtMTMuNjI1VjIxLjQyOWMwLTcuMjY2LTYuMTMtMTIuNzI1LTEzLjQwNi0xMy45MzgtNC42MDctLjc2Ni05LjM4NS0xLjExNS0xMy45NjktMS4wOTN6bS0xNC41IDguMjE4YzIuNzcgMCA1LjAzMSAyLjI5OSA1LjAzMSA1LjEyNSAwIDIuODE2LTIuMjYyIDUuMDk0LTUuMDMxIDUuMDk0LTIuNzc5IDAtNS4wMzEtMi4yNzctNS4wMzEtNS4wOTQgMC0yLjgyNiAyLjI1Mi01LjEyNSA1LjAzMS01LjEyNXoiLz48bGluZWFyR3JhZGllbnQgZ3JhZGllbnRUcmFuc2Zvcm09Im1hdHJpeCguNTYyNSAwIDAgLS41NjggMTE0NS41NiAxNjYuMjgyKSIgeTI9IjE4MC4zODQiIHgyPSItMTkxOS4wOCIgeTE9IjEyNS4zMDUiIHgxPSItMTg4MC4xNTEiIGdyYWRpZW50VW5pdHM9InVzZXJTcGFjZU9uVXNlIiBpZD0iYiI+PHN0b3Agc3RvcC1jb2xvcj0iI2ZmZDQzYiIgb2Zmc2V0PSIwIi8+PHN0b3Agc3RvcC1jb2xvcj0iI2ZmZTg3MyIgb2Zmc2V0PSIxIi8+PC9saW5lYXJHcmFkaWVudD48cGF0aCBmaWxsPSJ1cmwoI2IpIiBkPSJNOTEuMjI5IDM1LjA1NFY0Ni45NmMwIDkuMjMxLTcuODI2IDE3LTE2Ljc1IDE3SDQ3LjY5OGMtNy4zMzYgMC0xMy40MDYgNi4yNzgtMTMuNDA2IDEzLjYyNXYyNS41MzFjMCA3LjI2NyA2LjMxOCAxMS41NDEgMTMuNDA2IDEzLjYyNSA4LjQ4NyAyLjQ5NiAxNi42MjYgMi45NDcgMjYuNzgxIDAgNi43NS0xLjk1NCAxMy40MDYtNS44ODggMTMuNDA2LTEzLjYyNVY5Mi44OThINjEuMTA0di0zLjQwNmg0MC4xODdjNy43OTMgMCAxMC42OTYtNS40MzYgMTMuNDA2LTEzLjU5NCAyLjgtOC4zOTggMi42ODEtMTYuNDc2IDAtMjcuMjUtMS45MjYtNy43NTctNS42MDQtMTMuNTk0LTEzLjQwNi0xMy41OTRIOTEuMjI5ek03Ni4xNjYgOTkuNzFjMi43NzkgMCA1LjAzMSAyLjI3NyA1LjAzMSA1LjA5NCAwIDIuODI2LTIuMjUyIDUuMTI1LTUuMDMxIDUuMTI1LTIuNzcgMC01LjAzMS0yLjI5OS01LjAzMS01LjEyNSAwLTIuODE2IDIuMjYyLTUuMDk0IDUuMDMxLTUuMDk0eiIvPjxwYXRoIGZpbGw9IiM2NDY0NjQiIGQ9Ik00NjMuNTU0IDI2LjkwOWgxLjU2MnYtOS43OTZoMy42OTl2LTEuMTY4aC04Ljk2MnYxLjE2OGgzLjd2OS43OTZtNi42NDggMGgxLjMzNHYtOC45NDdsMi44OTYgOC45NDZoMS40ODVsMy4wMTktOC45MTZ2OC45MTdoMS40NTZWMTUuOTQ2aC0xLjkyNmwtMy4yOTkgOS4zOTMtMi44MTItOS4zOTNoLTIuMTUzdjEwLjk2MyIvPjxyYWRpYWxHcmFkaWVudCBncmFkaWVudFVuaXRzPSJ1c2VyU3BhY2VPblVzZSIgZ3JhZGllbnRUcmFuc2Zvcm09Im1hdHJpeCgwIC0uMjM5OSAtMS4wNTQ3IDAgNDU4Ljc5NyAtNjgwLjEpIiByPSIyOS4wMzciIGN5PSIzNzYuNzkxIiBjeD0iLTMzOTMuMjM4IiBpZD0iYyI+PHN0b3Agc3RvcC1vcGFjaXR5PSIuNDk4IiBzdG9wLWNvbG9yPSIjYjhiOGI4IiBvZmZzZXQ9IjAiLz48c3RvcCBzdG9wLW9wYWNpdHk9IjAiIHN0b3AtY29sb3I9IiM3ZjdmN2YiIG9mZnNldD0iMSIvPjwvcmFkaWFsR3JhZGllbnQ+PHBhdGggZmlsbD0idXJsKCNjKSIgb3BhY2l0eT0iLjQ0NCIgZD0iTTk3LjMzOSAxMzQuMDk4YzAgMy44NDgtMTYuMDg3IDYuOTY3LTM1LjkzMiA2Ljk2Ny0xOS44NDQgMC0zNS45MzEtMy4xMTktMzUuOTMxLTYuOTY3czE2LjA4Ny02Ljk2OCAzNS45MzEtNi45NjhjMTkuODQ1IDAgMzUuOTMyIDMuMTIgMzUuOTMyIDYuOTY4eiIvPjwvc3ZnPg==;" vertex="1" parent="1">
          <mxGeometry x="180" y="400" width="190" height="190" as="geometry" />
        </mxCell>
        <mxCell id="goY5rZ3ymkB16XzDZ8tm-7" value="" style="shape=image;verticalLabelPosition=bottom;labelBackgroundColor=default;verticalAlign=top;aspect=fixed;imageAspect=0;image=data:image/svg+xml,PHN2ZyB4bWxucz0iaHR0cDovL3d3dy53My5vcmcvMjAwMC9zdmciIHZpZXdCb3g9IjAgMCA4MTguNjMgMzMxLjIxIiBkYXRhLW5hbWU9IkxheWVyIDEiIGlkPSJMYXllcl8xIj48ZGVmcz48c3R5bGU+LmNscy0xe2ZpbGw6IzEzMDc1NDt9LmNscy0ye2ZpbGw6I2ZmY2EwMDt9LmNscy0ze2ZpbGw6I2U3MDQ4ODt9PC9zdHlsZT48L2RlZnM+PHRpdGxlPkFydGJvYXJkIDYzPC90aXRsZT48cGF0aCBkPSJNMjkwLjg1LDE5OS4yMWMtMTAuMjcsMC0yMC43My00LjI1LTI3LjI4LTEyLjU4djQ1SDI0M2wwLTExMS4wOWgxOC42bC43MSwxMi4yMmM2LjM4LTkuMzksMTcuNzEtMTQuMzUsMjguNTItMTQuMzUsMjAuNzMsMCwzNiwxNy4zNywzNiw0MC40UzMxMS41OCwxOTkuMjIsMjkwLjg1LDE5OS4yMVptLTYuMzctNjUuNTVjLTEyLjA1LDAtMjEuNzksOS4zOS0yMS43OSwyNS4xNlMyNzIuNDMsMTg0LDI4NC40OCwxODRzMjEuNzktOS4zOSwyMS43OS0yNS4xNlMyOTYuNTMsMTMzLjY2LDI4NC40OCwxMzMuNjZaIiBjbGFzcz0iY2xzLTEiLz48cGF0aCBkPSJNNDA0LjM2LDE5Ny4xbC0uNzEtMTIuMjJjLTYuMzgsOS4zOS0xNy43MiwxNC4zNS0yOC41MywxNC4zNC0yMC43MywwLTM2LTE3LjM2LTM2LTQwLjM5czE1LjI0LTQwLjQsMzYtNDAuMzljMTAuODEsMCwyMi4xNSw1LDI4LjUzLDE0LjM1bC43MS0xMi4yMkg0MjNWMTk3LjFabS0yMi44NS02My40M2MtMTIuMDUsMC0yMS43OSw5LjM5LTIxLjgsMjUuMTZTMzY5LjQ1LDE4NCwzODEuNSwxODRzMjEuOC05LjM5LDIxLjgtMjUuMTZTMzkzLjU2LDEzMy42NywzODEuNTEsMTMzLjY3WiIgY2xhc3M9ImNscy0xIi8+PHBhdGggZD0iTTQ5NC44NywxOTcuMTFWMTU0Ljc3YzAtMTQuODgtNS4xMy0xOS44NC0xNC41Mi0xOS44NC05Ljc1LDAtMjAuMzgsOC44NS0yMC4zOCwxOS40OHY0Mi43SDQzOS40MVYxMjAuNTdINDU4LjJsLjg5LDE0LjE4YzUuMTQtOS43NSwxNi42NS0xNi4zLDI4LjM1LTE2LjMsMjAuMzcsMCwyOCwxNC4xOCwyOCwzMy4xM3Y0NS41NFoiIGNsYXNzPSJjbHMtMSIvPjxwYXRoIGQ9Ik01OTAuNzcsMTk3LjEzbC0uNzEtMTIuMjNjLTYuMzgsOS4zOS0xNy43MiwxNC4zNS0yOC41MiwxNC4zNS0yMC43MywwLTM2LTE3LjM3LTM2LTQwLjRzMTUuMjQtNDAuMzksMzYtNDAuMzljMTAuMjcsMCwyMC43Miw0LjI2LDI3LjI4LDEyLjU4VjkwLjgzaDIwLjU2bDAsMTA2LjNaTTU2Ny45MiwxMzMuN2MtMTIsMC0yMS43OSw5LjM5LTIxLjc5LDI1LjE1UzU1NS44NywxODQsNTY3LjkyLDE4NHMyMS43OS05LjM4LDIxLjc5LTI1LjE1UzU4MCwxMzMuNyw1NjcuOTIsMTMzLjdaIiBjbGFzcz0iY2xzLTEiLz48cGF0aCBkPSJNNjg2LjYsMTk3LjE0bC0uNzEtMTIuMjJjLTYuMzgsOS4zOS0xNy43MiwxNC4zNC0yOC41MywxNC4zNC0yMC43MywwLTM2LTE3LjM2LTM2LTQwLjRzMTUuMjQtNDAuMzksMzYtNDAuMzljMTAuODEsMCwyMi4xNSw1LDI4LjUzLDE0LjM2bC43MS0xMi4yM2gxOC42djc2LjUzWm0tMjIuODUtNjMuNDNjLTEyLDAtMjEuNzksOS4zOS0yMS44LDI1LjE2UzY1MS43LDE4NCw2NjMuNzQsMTg0czIxLjgtOS4zOSwyMS44LTI1LjE2UzY3NS44LDEzMy43MSw2NjMuNzUsMTMzLjcxWiIgY2xhc3M9ImNscy0xIi8+PHBhdGggZD0iTTc1MC43MywxOTkuNjNhNjAuMTYsNjAuMTYsMCwwLDEtMzAuNjUtOC42OWwzLjM3LTE0LjE3YzYuMiwzLjcyLDE1LjU5LDguNTEsMjYuOTMsOC41MSw4LjE1LDAsMTMuODItMi40OCwxMy44Mi04Ljg2LDAtNS40OS01Ljg1LTcuNDQtMTYuMy05LjkyLTE4Ljc4LTQuMDgtMjUuNTEtMTQtMjUuNTEtMjQuODEsMC0xMi4wNSw5LjM5LTIzLjM4LDMwLjEyLTIzLjM4LDEyLjU4LDAsMjMuNTcsNS40OSwyNiw2LjkxbC0zLjM3LDEzLjQ3QTQ0LjU5LDQ0LjU5LDAsMCwwLDc1MywxMzIuMzFjLTguMzIsMC0xMi40LDIuODMtMTIuNCw3LjQ0LDAsNS4xMyw1LjMyLDcuNDQsMTMuNDYsOS4zOSwyMC4yLDQuMjUsMjguMzUsMTMuNjQsMjguMzUsMjMuOTJDNzgyLjQ1LDE4OS41Myw3NzAuNCwxOTkuNjMsNzUwLjczLDE5OS42M1oiIGNsYXNzPSJjbHMtMSIvPjxyZWN0IGhlaWdodD0iNTAuMDIiIHdpZHRoPSIyNC4wOSIgeT0iNjguNDIiIHg9Ijc0Ljg4IiBjbGFzcz0iY2xzLTEiLz48cmVjdCBoZWlnaHQ9IjUwLjAyIiB3aWR0aD0iMjQuMDkiIHk9IjE3MS4xNyIgeD0iNzQuODgiIGNsYXNzPSJjbHMtMSIvPjxyZWN0IGhlaWdodD0iMjMuNiIgd2lkdGg9IjI0LjA5IiB5PSIxMzMuMDQiIHg9Ijc0Ljg4IiBjbGFzcz0iY2xzLTIiLz48cmVjdCBoZWlnaHQ9IjE2Ni4yNyIgd2lkdGg9IjI0LjA5IiB5PSIxMDkuNTUiIHg9IjM2LjE5IiBjbGFzcz0iY2xzLTEiLz48cmVjdCBoZWlnaHQ9IjUwLjAyIiB3aWR0aD0iMjQuMDkiIHk9IjIxMi40NCIgeD0iMTEyLjc4IiBjbGFzcz0iY2xzLTEiLz48cmVjdCBoZWlnaHQ9IjUwLjAyIiB3aWR0aD0iMjQuMDkiIHk9IjEwOS42MSIgeD0iMTEyLjc4IiBjbGFzcz0iY2xzLTEiLz48cmVjdCBoZWlnaHQ9IjIzLjYiIHdpZHRoPSIyNC4wOSIgeT0iMTc0LjIzIiB4PSIxMTIuNzgiIGNsYXNzPSJjbHMtMyIvPjxyZWN0IGhlaWdodD0iMTY2LjI3IiB3aWR0aD0iMjQuMDkiIHk9IjU1LjM5IiB4PSIxNTAuNjciIGNsYXNzPSJjbHMtMSIvPjwvc3ZnPg==;" vertex="1" parent="1">
          <mxGeometry x="480" y="310" width="180" height="72.7" as="geometry" />
        </mxCell>
        <mxCell id="goY5rZ3ymkB16XzDZ8tm-8" value="" style="shape=image;verticalLabelPosition=bottom;labelBackgroundColor=default;verticalAlign=top;aspect=fixed;imageAspect=0;image=data:image/svg+xml,PHN2ZyB4bWxucz0iaHR0cDovL3d3dy53My5vcmcvMjAwMC9zdmciIGlkPSJzdmcxNzY2IiB2ZXJzaW9uPSIxLjEiIHZpZXdCb3g9IjAgMCA1MjAuMDAwMDMgMTIwIiBoZWlnaHQ9IjEyMG1tIiB3aWR0aD0iNTIwbW0iPiYjeGE7ICA8ZGVmcyBpZD0iZGVmczE3NjAiPiYjeGE7ICAgIDxjbGlwUGF0aCBpZD0iY2xpcFBhdGgxNTY4MC05IiBjbGlwUGF0aFVuaXRzPSJ1c2VyU3BhY2VPblVzZSI+JiN4YTsgICAgICA8ZyB0cmFuc2Zvcm09Im1hdHJpeCgwLjI3OTgwNjYxLDAsMCwwLjI3OTgwNjYxLDIwOTAuODI0OSw0MjEuMjgwNjYpIiBzdHlsZT0iZmlsbDojYWRiYWM3O2ZpbGwtb3BhY2l0eToxO3N0cm9rZTpub25lO3N0cm9rZS1vcGFjaXR5OjEiIGlkPSJnMTU4MDgtNSI+JiN4YTsgICAgICAgIDxyZWN0IHJ5PSI0LjQyMDczODIiIHk9IjI5My44NzQ1MSIgeD0iLTIuODEyNWUtMDUiIGhlaWdodD0iNzYuMTEyMDYxIiB3aWR0aD0iMjciIGlkPSJyZWN0MTU2ODItNCIgc3R5bGU9ImZpbGw6I2FkYmFjNztmaWxsLW9wYWNpdHk6MTtmaWxsLXJ1bGU6ZXZlbm9kZDtzdHJva2U6bm9uZTtzdHJva2Utd2lkdGg6MC45ODQ1Mjg7c3Ryb2tlLW9wYWNpdHk6MSIvPiYjeGE7ICAgICAgICA8ZyBzdHlsZT0iZmlsbDojYWRiYWM3O2ZpbGwtb3BhY2l0eToxO3N0cm9rZTpub25lO3N0cm9rZS1vcGFjaXR5OjEiIHRyYW5zZm9ybT0idHJhbnNsYXRlKC0xNS40OTI1LC0xMy40MjY1MykiIGlkPSJnMTU2ODgtNzIiPiYjeGE7ICAgICAgICAgIDxyZWN0IHJ5PSI2LjM5MTk2NCIgeT0iMjE4LjkwMjA4IiB4PSI1NS41IiBoZWlnaHQ9Ijk0Ljc5NjUwOSIgd2lkdGg9IjI3IiBpZD0icmVjdDE1Njg0LTgiIHN0eWxlPSJmaWxsOiNhZGJhYzc7ZmlsbC1vcGFjaXR5OjE7ZmlsbC1ydWxlOmV2ZW5vZGQ7c3Ryb2tlOm5vbmU7c3Ryb2tlLXdpZHRoOjAuOTg0ODQ5O3N0cm9rZS1vcGFjaXR5OjEiLz4mI3hhOyAgICAgICAgICA8cmVjdCByeT0iNC40MjA3NDQ5IiB5PSIzMjQuNTIyMTYiIHg9IjU1LjUiIGhlaWdodD0iODAuMDYzOTM0IiB3aWR0aD0iMjciIGlkPSJyZWN0MTU2ODYtMCIgc3R5bGU9ImZpbGw6I2FkYmFjNztmaWxsLW9wYWNpdHk6MTtmaWxsLXJ1bGU6ZXZlbm9kZDtzdHJva2U6bm9uZTtzdHJva2Utd2lkdGg6MC45NzA2NzI7c3Ryb2tlLW9wYWNpdHk6MSIvPiYjeGE7ICAgICAgICA8L2c+JiN4YTsgICAgICAgIDxnIHN0eWxlPSJmaWxsOiNhZGJhYzc7ZmlsbC1vcGFjaXR5OjE7c3Ryb2tlOm5vbmU7c3Ryb2tlLW9wYWNpdHk6MSIgdHJhbnNmb3JtPSJ0cmFuc2xhdGUoLTE1LjUsLTEzLjQyNjUzKSIgaWQ9ImcxNTY5Ni05Ij4mI3hhOyAgICAgICAgICA8cmVjdCByeT0iNC40MjA3NDMiIHk9IjEyOS42NjU5MSIgeD0iOTUuNTE0OTc3IiBoZWlnaHQ9IjE0Mi4yMTQ2NSIgd2lkdGg9IjI3IiBpZD0icmVjdDE1NjkwLTciIHN0eWxlPSJmaWxsOiNhZGJhYzc7ZmlsbC1vcGFjaXR5OjE7ZmlsbC1ydWxlOmV2ZW5vZGQ7c3Ryb2tlOm5vbmU7c3Ryb2tlLXdpZHRoOjAuOTg0ODQ5O3N0cm9rZS1vcGFjaXR5OjEiLz4mI3hhOyAgICAgICAgICA8cmVjdCByeT0iNC40MjA3MzgyIiB5PSIyODQuNDExODMiIHg9Ijk1LjUxNDk3NyIgaGVpZ2h0PSI1MC4yMDU4NzIiIHdpZHRoPSIyNyIgaWQ9InJlY3QxNTY5Mi0wIiBzdHlsZT0iZmlsbDojYWRiYWM3O2ZpbGwtb3BhY2l0eToxO2ZpbGwtcnVsZTpldmVub2RkO3N0cm9rZTpub25lO3N0cm9rZS13aWR0aDoxLjAwNjQ5O3N0cm9rZS1vcGFjaXR5OjEiLz4mI3hhOyAgICAgICAgICA8cmVjdCByeT0iNi4zOTE5OTkyIiB5PSIzNjguMzMyMjEiIHg9Ijk1LjUxNDk3NyIgaGVpZ2h0PSIzNi4yNTM4NzYiIHdpZHRoPSIyNyIgaWQ9InJlY3QxNTY5NC0wIiBzdHlsZT0iZmlsbDojYWRiYWM3O2ZpbGwtb3BhY2l0eToxO2ZpbGwtcnVsZTpldmVub2RkO3N0cm9rZTpub25lO3N0cm9rZS13aWR0aDowLjk4NTMwNDtzdHJva2Utb3BhY2l0eToxIi8+JiN4YTsgICAgICAgIDwvZz4mI3hhOyAgICAgICAgPGcgc3R5bGU9ImZpbGw6I2FkYmFjNztmaWxsLW9wYWNpdHk6MTtzdHJva2U6bm9uZTtzdHJva2Utb3BhY2l0eToxIiB0cmFuc2Zvcm09InRyYW5zbGF0ZSgtMTUuNDc3NSwtMTMuNDI2NTMpIiBpZD0iZzE1NzAyLTMyIj4mI3hhOyAgICAgICAgICA8cmVjdCByeT0iNC40MjA3NTA2IiB5PSI2Ni40MTExODYiIHg9IjEzNS41IiBoZWlnaHQ9IjEwMy4xNzMwMSIgd2lkdGg9IjI3IiBpZD0icmVjdDE1Njk4LTYiIHN0eWxlPSJmaWxsOiNhZGJhYzc7ZmlsbC1vcGFjaXR5OjE7ZmlsbC1ydWxlOmV2ZW5vZGQ7c3Ryb2tlOm5vbmU7c3Ryb2tlLXdpZHRoOjAuOTg0ODQ5O3N0cm9rZS1vcGFjaXR5OjEiLz4mI3hhOyAgICAgICAgICA8cmVjdCByeT0iNC40MTEzNTAzIiB5PSIxODEuMDc5MjgiIHg9IjEzNS41IiBoZWlnaHQ9IjEzNi42ODM5NiIgd2lkdGg9IjI3IiBpZD0icmVjdDE1NzAwLTciIHN0eWxlPSJmaWxsOiNhZGJhYzc7ZmlsbC1vcGFjaXR5OjE7ZmlsbC1ydWxlOmV2ZW5vZGQ7c3Ryb2tlOm5vbmU7c3Ryb2tlLXdpZHRoOjAuOTg0ODQ5O3N0cm9rZS1vcGFjaXR5OjEiLz4mI3hhOyAgICAgICAgPC9nPiYjeGE7ICAgICAgICA8ZyBzdHlsZT0iZmlsbDojYWRiYWM3O2ZpbGwtb3BhY2l0eToxO3N0cm9rZTpub25lO3N0cm9rZS1vcGFjaXR5OjEiIHRyYW5zZm9ybT0idHJhbnNsYXRlKC0xNS45NzQ4LC0xMy40MjY1MykiIGlkPSJnMTU3MTAtMyI+JiN4YTsgICAgICAgICAgPHJlY3Qgcnk9IjQuNDIwNzQ2OCIgeT0iNDYuOTQ1ODA1IiB4PSIxNzYiIGhlaWdodD0iNzEuNzQ1NDE1IiB3aWR0aD0iMjciIGlkPSJyZWN0MTU3MDQtNiIgc3R5bGU9ImZpbGw6I2FkYmFjNztmaWxsLW9wYWNpdHk6MTtmaWxsLXJ1bGU6ZXZlbm9kZDtzdHJva2U6bm9uZTtzdHJva2Utd2lkdGg6MS4wMjE5NjtzdHJva2Utb3BhY2l0eToxIi8+JiN4YTsgICAgICAgICAgPHJlY3Qgcnk9IjQuNDIwNzQzIiB5PSIxMjkuNzU1OCIgeD0iMTc2LjAwOTQ4IiBoZWlnaHQ9Ijk5LjM1MjA0MyIgd2lkdGg9IjI3IiBpZD0icmVjdDE1NzA2LTYiIHN0eWxlPSJmaWxsOiNhZGJhYzc7ZmlsbC1vcGFjaXR5OjE7ZmlsbC1ydWxlOmV2ZW5vZGQ7c3Ryb2tlOm5vbmU7c3Ryb2tlLXdpZHRoOjEuMDIyMzI7c3Ryb2tlLW9wYWNpdHk6MSIvPiYjeGE7ICAgICAgICAgIDxyZWN0IHJ5PSI0LjQyMDc0MyIgeT0iMjQyLjE0MDAzIiB4PSIxNzYuMDA5NDgiIGhlaWdodD0iOTAuMTU3Njg0IiB3aWR0aD0iMjciIGlkPSJyZWN0MTU3MDgtMyIgc3R5bGU9ImZpbGw6I2FkYmFjNztmaWxsLW9wYWNpdHk6MTtmaWxsLXJ1bGU6ZXZlbm9kZDtzdHJva2U6bm9uZTtzdHJva2Utd2lkdGg6MS4wMjIzMjtzdHJva2Utb3BhY2l0eToxIi8+JiN4YTsgICAgICAgIDwvZz4mI3hhOyAgICAgICAgPGcgc3R5bGU9ImZpbGw6I2FkYmFjNztmaWxsLW9wYWNpdHk6MTtzdHJva2U6bm9uZTtzdHJva2Utb3BhY2l0eToxIiB0cmFuc2Zvcm09InRyYW5zbGF0ZSgtMTUuMTkxNCwtMTMuNDI2NTMpIiBpZD0iZzE1NzE4LTgiPiYjeGE7ICAgICAgICAgIDxyZWN0IHJ5PSI2LjM5MTk5OTIiIHk9IjMxLjE3MDExNSIgeD0iMjE1LjIyODg0IiBoZWlnaHQ9IjEzMC44OTE3MiIgd2lkdGg9IjI3IiBpZD0icmVjdDE1NzEyLTYiIHN0eWxlPSJmaWxsOiNhZGJhYzc7ZmlsbC1vcGFjaXR5OjE7ZmlsbC1ydWxlOmV2ZW5vZGQ7c3Ryb2tlOm5vbmU7c3Ryb2tlLXdpZHRoOjAuOTg1MzA0O3N0cm9rZS1vcGFjaXR5OjEiLz4mI3hhOyAgICAgICAgICA8cmVjdCByeT0iNi4zOTE5OTkyIiB5PSIxNzUuMDk4MDUiIHg9IjIxNS4yMjg4NCIgaGVpZ2h0PSI0MC4xOTYzMzkiIHdpZHRoPSIyNyIgaWQ9InJlY3QxNTcxNC05IiBzdHlsZT0iZmlsbDojYWRiYWM3O2ZpbGwtb3BhY2l0eToxO2ZpbGwtcnVsZTpldmVub2RkO3N0cm9rZTpub25lO3N0cm9rZS13aWR0aDowLjk4NTMwNDtzdHJva2Utb3BhY2l0eToxIi8+JiN4YTsgICAgICAgICAgPHJlY3Qgcnk9IjYuMzkxOTk5MiIgeT0iMjI0LjQwMTk5IiB4PSIyMTUuMjI4ODQiIGhlaWdodD0iMTM0LjgzNDIxIiB3aWR0aD0iMjYuOTgxODYxIiBpZD0icmVjdDE1NzE2LTMiIHN0eWxlPSJmaWxsOiNhZGJhYzc7ZmlsbC1vcGFjaXR5OjE7ZmlsbC1ydWxlOmV2ZW5vZGQ7c3Ryb2tlOm5vbmU7c3Ryb2tlLXdpZHRoOjAuOTg1MzA0O3N0cm9rZS1vcGFjaXR5OjEiLz4mI3hhOyAgICAgICAgPC9nPiYjeGE7ICAgICAgICA8ZyBzdHlsZT0iZmlsbDojYWRiYWM3O2ZpbGwtb3BhY2l0eToxO3N0cm9rZTpub25lO3N0cm9rZS1vcGFjaXR5OjEiIHRyYW5zZm9ybT0idHJhbnNsYXRlKC0xNC42MDg0LC0xMy40MjY1MykiIGlkPSJnMTU3MjgtNiI+JiN4YTsgICAgICAgICAgPHJlY3Qgcnk9IjYuMzkxOTk5MiIgeT0iMTUuNDAxNjg4IiB4PSIyNTQuNjUzMjQiIGhlaWdodD0iMzYuMjUzODc2IiB3aWR0aD0iMjciIGlkPSJyZWN0MTU3MjAtNCIgc3R5bGU9ImZpbGw6I2FkYmFjNztmaWxsLW9wYWNpdHk6MTtmaWxsLXJ1bGU6ZXZlbm9kZDtzdHJva2U6bm9uZTtzdHJva2Utd2lkdGg6MC45ODUzMDQ7c3Ryb2tlLW9wYWNpdHk6MSIvPiYjeGE7ICAgICAgICAgIDxyZWN0IHJ5PSI2LjM5MTk5OTIiIHk9IjYyLjcxMzYzNCIgeD0iMjU0LjY1MzI0IiBoZWlnaHQ9IjE5My45ODk5MyIgd2lkdGg9IjI3LjAwMDAxNSIgaWQ9InJlY3QxNTcyMi05IiBzdHlsZT0iZmlsbDojYWRiYWM3O2ZpbGwtb3BhY2l0eToxO2ZpbGwtcnVsZTpldmVub2RkO3N0cm9rZTpub25lO3N0cm9rZS13aWR0aDowLjk4NTMwNDtzdHJva2Utb3BhY2l0eToxIi8+JiN4YTsgICAgICAgICAgPHJlY3Qgcnk9IjYuMzkxOTk5MiIgeT0iMjY5Ljc0NDQ1IiB4PSIyNTQuNjUzMjQiIGhlaWdodD0iNjEuODc5ODY4IiB3aWR0aD0iMjcuMDAwMDE1IiBpZD0icmVjdDE1NzI0LTE5IiBzdHlsZT0iZmlsbDojYWRiYWM3O2ZpbGwtb3BhY2l0eToxO2ZpbGwtcnVsZTpldmVub2RkO3N0cm9rZTpub25lO3N0cm9rZS13aWR0aDowLjk4NTMwNDtzdHJva2Utb3BhY2l0eToxIi8+JiN4YTsgICAgICAgICAgPHJlY3Qgcnk9IjYuMzkxOTk5MiIgeT0iMzQ0LjY3NDE2IiB4PSIyNTQuNjUzMjQiIGhlaWdodD0iNDQuMTM4ODAyIiB3aWR0aD0iMjcuMDAwMDE1IiBpZD0icmVjdDE1NzI2LTkiIHN0eWxlPSJmaWxsOiNhZGJhYzc7ZmlsbC1vcGFjaXR5OjE7ZmlsbC1ydWxlOmV2ZW5vZGQ7c3Ryb2tlOm5vbmU7c3Ryb2tlLXdpZHRoOjAuOTg1MzA0O3N0cm9rZS1vcGFjaXR5OjEiLz4mI3hhOyAgICAgICAgPC9nPiYjeGE7ICAgICAgICA8ZyBzdHlsZT0iZmlsbDojYWRiYWM3O2ZpbGwtb3BhY2l0eToxO3N0cm9rZTpub25lO3N0cm9rZS1vcGFjaXR5OjEiIHRyYW5zZm9ybT0idHJhbnNsYXRlKC0xNi4wMDcxLC0xMy40MjY1MykiIGlkPSJnMTU3MzYtMSI+JiN4YTsgICAgICAgICAgPHJlY3Qgcnk9IjYuMzkxOTk5MiIgeT0iMzM0LjgwMjQ5IiB4PSIyOTYuMDU5MyIgaGVpZ2h0PSI2OS43ODM2IiB3aWR0aD0iMjciIGlkPSJyZWN0MTU3MzAtNCIgc3R5bGU9ImZpbGw6I2FkYmFjNztmaWxsLW9wYWNpdHk6MTtmaWxsLXJ1bGU6ZXZlbm9kZDtzdHJva2U6bm9uZTtzdHJva2Utd2lkdGg6MC45ODUzMDQ7c3Ryb2tlLW9wYWNpdHk6MSIvPiYjeGE7ICAgICAgICAgIDxyZWN0IHJ5PSI2LjM5MTk5OTIiIHk9IjEzNy42NDg5OSIgeD0iMjk2LjA1OTMiIGhlaWdodD0iMTUyLjU3NTI5IiB3aWR0aD0iMjciIGlkPSJyZWN0MTU3MzItNyIgc3R5bGU9ImZpbGw6I2FkYmFjNztmaWxsLW9wYWNpdHk6MTtmaWxsLXJ1bGU6ZXZlbm9kZDtzdHJva2U6bm9uZTtzdHJva2Utd2lkdGg6MC45ODUzMDQ7c3Ryb2tlLW9wYWNpdHk6MSIvPiYjeGE7ICAgICAgICAgIDxyZWN0IHJ5PSI2LjM5MTk5OTIiIHk9IjEzLjQyNjUzIiB4PSIyOTYuMDU5MyIgaGVpZ2h0PSIxMTEuMTcwMDMiIHdpZHRoPSIyNyIgaWQ9InJlY3QxNTczNC0zIiBzdHlsZT0iZmlsbDojYWRiYWM3O2ZpbGwtb3BhY2l0eToxO2ZpbGwtcnVsZTpldmVub2RkO3N0cm9rZTpub25lO3N0cm9rZS13aWR0aDowLjk4NTMwNDtzdHJva2Utb3BhY2l0eToxIi8+JiN4YTsgICAgICAgIDwvZz4mI3hhOyAgICAgICAgPGcgc3R5bGU9ImZpbGw6I2FkYmFjNztmaWxsLW9wYWNpdHk6MTtzdHJva2U6bm9uZTtzdHJva2Utb3BhY2l0eToxIiB0cmFuc2Zvcm09InRyYW5zbGF0ZSgtMTUuNDI0NSwtMTMuNDI2NTMpIiBpZD0iZzE1NzQ0LTYiPiYjeGE7ICAgICAgICAgIDxyZWN0IHJ5PSI2LjM5MTk5OTIiIHk9IjM2NC4zODk3NyIgeD0iMzM1LjQ4NDA0IiBoZWlnaHQ9IjQwLjE5NjMyIiB3aWR0aD0iMjciIGlkPSJyZWN0MTU3MzgtNyIgc3R5bGU9ImZpbGw6I2FkYmFjNztmaWxsLW9wYWNpdHk6MTtmaWxsLXJ1bGU6ZXZlbm9kZDtzdHJva2U6bm9uZTtzdHJva2Utd2lkdGg6MC45ODUzMDQ7c3Ryb2tlLW9wYWNpdHk6MSIvPiYjeGE7ICAgICAgICAgIDxyZWN0IHJ5PSI2LjM5MTk5OTIiIHk9IjE1LjM5ODk2MiIgeD0iMzM1LjQ4NDA0IiBoZWlnaHQ9IjE4MC4xODE5IiB3aWR0aD0iMjciIGlkPSJyZWN0MTU3NDAtNzUiIHN0eWxlPSJmaWxsOiNhZGJhYzc7ZmlsbC1vcGFjaXR5OjE7ZmlsbC1ydWxlOmV2ZW5vZGQ7c3Ryb2tlOm5vbmU7c3Ryb2tlLXdpZHRoOjAuOTg1MzA0O3N0cm9rZS1vcGFjaXR5OjEiLz4mI3hhOyAgICAgICAgICA8cmVjdCByeT0iNi4zOTE5OTkyIiB5PSIyMDguNjI2MjIiIHg9IjMzNS40ODQwNCIgaGVpZ2h0PSI4MS42MDE1ODUiIHdpZHRoPSIyNyIgaWQ9InJlY3QxNTc0Mi00IiBzdHlsZT0iZmlsbDojYWRiYWM3O2ZpbGwtb3BhY2l0eToxO2ZpbGwtcnVsZTpldmVub2RkO3N0cm9rZTpub25lO3N0cm9rZS13aWR0aDowLjk4NTMwNDtzdHJva2Utb3BhY2l0eToxIi8+JiN4YTsgICAgICAgIDwvZz4mI3hhOyAgICAgICAgPGcgc3R5bGU9ImZpbGw6I2FkYmFjNztmaWxsLW9wYWNpdHk6MTtzdHJva2U6bm9uZTtzdHJva2Utb3BhY2l0eToxIiB0cmFuc2Zvcm09InRyYW5zbGF0ZSgtMTQuODYwMywtMTMuNDI2NTMpIiBpZD0iZzE1NzUwLTYiPiYjeGE7ICAgICAgICAgIDxyZWN0IHJ5PSI2LjM5MTk5OTIiIHk9IjIzLjI4NDUyNyIgeD0iMzc0LjkyNzU1IiBoZWlnaHQ9IjU5LjkwODY0OSIgd2lkdGg9IjI3IiBpZD0icmVjdDE1NzQ2LTkiIHN0eWxlPSJmaWxsOiNhZGJhYzc7ZmlsbC1vcGFjaXR5OjE7ZmlsbC1ydWxlOmV2ZW5vZGQ7c3Ryb2tlOm5vbmU7c3Ryb2tlLXdpZHRoOjAuOTg1MzA0O3N0cm9rZS1vcGFjaXR5OjEiLz4mI3hhOyAgICAgICAgICA8cmVjdCByeT0iNi4zOTE5OTkyIiB5PSI5Ni4yMjk4NTgiIHg9IjM3NC45Mjc1NSIgaGVpZ2h0PSIxOTMuOTgwNTUiIHdpZHRoPSIyNyIgaWQ9InJlY3QxNTc0OC04IiBzdHlsZT0iZmlsbDojYWRiYWM3O2ZpbGwtb3BhY2l0eToxO2ZpbGwtcnVsZTpldmVub2RkO3N0cm9rZTpub25lO3N0cm9rZS13aWR0aDowLjk4NTMwNDtzdHJva2Utb3BhY2l0eToxIi8+JiN4YTsgICAgICAgIDwvZz4mI3hhOyAgICAgICAgPGcgdHJhbnNmb3JtPSJ0cmFuc2xhdGUoLTE1LjkzMjcsLTEzLjQyNjUzKSIgc3R5bGU9ImZpbGw6I2FkYmFjNztmaWxsLW9wYWNpdHk6MTtzdHJva2U6bm9uZTtzdHJva2Utb3BhY2l0eToxIiBpZD0iZzE1NzU4LTEiPiYjeGE7ICAgICAgICAgIDxyZWN0IHJ5PSI2LjM5MTk5OTIiIHk9IjI3LjIyOTU1NyIgeD0iNDE2IiBoZWlnaHQ9IjExNy4wOTMxMSIgd2lkdGg9IjI3IiBpZD0icmVjdDE1NzUyLTciIHN0eWxlPSJmaWxsOiNhZGJhYzc7ZmlsbC1vcGFjaXR5OjE7ZmlsbC1ydWxlOmV2ZW5vZGQ7c3Ryb2tlOm5vbmU7c3Ryb2tlLXdpZHRoOjAuOTg1MzA0O3N0cm9rZS1vcGFjaXR5OjEiLz4mI3hhOyAgICAgICAgICA8cmVjdCByeT0iNi4zOTE5OTkyIiB5PSIxNTcuMzY0OTciIHg9IjQxNiIgaGVpZ2h0PSI5OS4zNTIwNDMiIHdpZHRoPSIyNyIgaWQ9InJlY3QxNTc1NC05IiBzdHlsZT0iZmlsbDojYWRiYWM3O2ZpbGwtb3BhY2l0eToxO2ZpbGwtcnVsZTpldmVub2RkO3N0cm9rZTpub25lO3N0cm9rZS13aWR0aDowLjk4NTMwNDtzdHJva2Utb3BhY2l0eToxIi8+JiN4YTsgICAgICAgICAgPHJlY3Qgcnk9IjYuMzkxOTk5MiIgeT0iMjY5LjczNzkyIiB4PSI0MTYiIGhlaWdodD0iNTIuMDIzNzI0IiB3aWR0aD0iMjciIGlkPSJyZWN0MTU3NTYtNSIgc3R5bGU9ImZpbGw6I2FkYmFjNztmaWxsLW9wYWNpdHk6MTtmaWxsLXJ1bGU6ZXZlbm9kZDtzdHJva2U6bm9uZTtzdHJva2Utd2lkdGg6MC45ODUzMDQ7c3Ryb2tlLW9wYWNpdHk6MSIvPiYjeGE7ICAgICAgICA8L2c+JiN4YTsgICAgICAgIDxnIHRyYW5zZm9ybT0idHJhbnNsYXRlKC0xNS45MzI3LC0xMy40MjY1MykiIHN0eWxlPSJmaWxsOiNhZGJhYzc7ZmlsbC1vcGFjaXR5OjE7c3Ryb2tlOm5vbmU7c3Ryb2tlLW9wYWNpdHk6MSIgaWQ9ImcxNTc2NC04Ij4mI3hhOyAgICAgICAgICA8cmVjdCByeT0iNi4zOTE5OTkyIiB5PSIzMy4xNTEzMSIgeD0iNDU1Ljc2MzUyIiBoZWlnaHQ9IjE3NC4yNjgyIiB3aWR0aD0iMjciIGlkPSJyZWN0MTU3NjAtNyIgc3R5bGU9ImZpbGw6I2FkYmFjNztmaWxsLW9wYWNpdHk6MTtmaWxsLXJ1bGU6ZXZlbm9kZDtzdHJva2U6bm9uZTtzdHJva2Utd2lkdGg6MC45ODUzMDQ7c3Ryb2tlLW9wYWNpdHk6MSIvPiYjeGE7ICAgICAgICAgIDxyZWN0IHJ5PSI2LjM5MTk5OTIiIHk9IjIyMC40NTkiIHg9IjQ1NS43NjM1MiIgaGVpZ2h0PSIxNDAuNzQ3ODkiIHdpZHRoPSIyNyIgaWQ9InJlY3QxNTc2Mi00IiBzdHlsZT0iZmlsbDojYWRiYWM3O2ZpbGwtb3BhY2l0eToxO2ZpbGwtcnVsZTpldmVub2RkO3N0cm9rZTpub25lO3N0cm9rZS13aWR0aDowLjk4NTMwNDtzdHJva2Utb3BhY2l0eToxIi8+JiN4YTsgICAgICAgIDwvZz4mI3hhOyAgICAgICAgPGcgdHJhbnNmb3JtPSJ0cmFuc2xhdGUoLTE1LjkzMjcsLTEzLjQyNjUzKSIgc3R5bGU9ImZpbGw6I2FkYmFjNztmaWxsLW9wYWNpdHk6MTtzdHJva2U6bm9uZTtzdHJva2Utb3BhY2l0eToxIiBpZD0iZzE1NzcyLTciPiYjeGE7ICAgICAgICAgIDxyZWN0IHJ5PSI2LjM5MTk5OTIiIHk9IjI3LjIzMjQ2IiB4PSI0OTUuNSIgaGVpZ2h0PSI4MS42MDE1NzgiIHdpZHRoPSIyNyIgaWQ9InJlY3QxNTc2Ni0xIiBzdHlsZT0iZmlsbDojYWRiYWM3O2ZpbGwtb3BhY2l0eToxO2ZpbGwtcnVsZTpldmVub2RkO3N0cm9rZTpub25lO3N0cm9rZS13aWR0aDowLjk4NTMwNDtzdHJva2Utb3BhY2l0eToxIi8+JiN4YTsgICAgICAgICAgPHJlY3Qgcnk9IjYuMzkxOTk5MiIgeT0iMTIxLjg3MTM3IiB4PSI0OTUuNSIgaGVpZ2h0PSIyMTMuNzExNjEiIHdpZHRoPSIyNyIgaWQ9InJlY3QxNTc2OC0zIiBzdHlsZT0iZmlsbDojYWRiYWM3O2ZpbGwtb3BhY2l0eToxO2ZpbGwtcnVsZTpldmVub2RkO3N0cm9rZTpub25lO3N0cm9rZS13aWR0aDowLjk4NTMwNDtzdHJva2Utb3BhY2l0eToxIi8+JiN4YTsgICAgICAgICAgPHJlY3Qgcnk9IjYuMzkxOTk5MiIgeT0iMzQ4LjYxNDQ0IiB4PSI0OTUuNSIgaGVpZ2h0PSI1MC4wNTI1MDIiIHdpZHRoPSIyNyIgaWQ9InJlY3QxNTc3MC03IiBzdHlsZT0iZmlsbDojYWRiYWM3O2ZpbGwtb3BhY2l0eToxO2ZpbGwtcnVsZTpldmVub2RkO3N0cm9rZTpub25lO3N0cm9rZS13aWR0aDowLjk4NTMwNDtzdHJva2Utb3BhY2l0eToxIi8+JiN4YTsgICAgICAgIDwvZz4mI3hhOyAgICAgICAgPGcgdHJhbnNmb3JtPSJ0cmFuc2xhdGUoLTE1LjkzMjcsLTEzLjQyNjUzKSIgc3R5bGU9ImZpbGw6I2FkYmFjNztmaWxsLW9wYWNpdHk6MTtzdHJva2U6bm9uZTtzdHJva2Utb3BhY2l0eToxIiBpZD0iZzE1NzgwLTEiPiYjeGE7ICAgICAgICAgIDxyZWN0IHJ5PSI2LjM5MTk5OTIiIHk9IjMzNi43ODMxNyIgeD0iNTM1LjUiIGhlaWdodD0iNjcuODAyOTE3IiB3aWR0aD0iMjciIGlkPSJyZWN0MTU3NzQtNCIgc3R5bGU9ImZpbGw6I2FkYmFjNztmaWxsLW9wYWNpdHk6MTtmaWxsLXJ1bGU6ZXZlbm9kZDtzdHJva2U6bm9uZTtzdHJva2Utd2lkdGg6MC45ODUzMDQ7c3Ryb2tlLW9wYWNpdHk6MSIvPiYjeGE7ICAgICAgICAgIDxyZWN0IHJ5PSI2LjM5MTk5OTIiIHk9IjE2OS4xOTE5OSIgeD0iNTM1LjUiIGhlaWdodD0iNTAuMDYxODkzIiB3aWR0aD0iMjciIGlkPSJyZWN0MTU3NzYtMyIgc3R5bGU9ImZpbGw6I2FkYmFjNztmaWxsLW9wYWNpdHk6MTtmaWxsLXJ1bGU6ZXZlbm9kZDtzdHJva2U6bm9uZTtzdHJva2Utd2lkdGg6MC45ODUzMDQ7c3Ryb2tlLW9wYWNpdHk6MSIvPiYjeGE7ICAgICAgICAgIDxyZWN0IHJ5PSI2LjM5MTk5OTIiIHk9IjI1LjI1ODg3MSIgeD0iNTM1LjUiIGhlaWdodD0iMTMwLjg5MTc0IiB3aWR0aD0iMjciIGlkPSJyZWN0MTU3NzgtMCIgc3R5bGU9ImZpbGw6I2FkYmFjNztmaWxsLW9wYWNpdHk6MTtmaWxsLXJ1bGU6ZXZlbm9kZDtzdHJva2U6bm9uZTtzdHJva2Utd2lkdGg6MC45ODUzMDQ7c3Ryb2tlLW9wYWNpdHk6MSIvPiYjeGE7ICAgICAgICA8L2c+JiN4YTsgICAgICAgIDxnIHRyYW5zZm9ybT0idHJhbnNsYXRlKC0xNS45MzI3LC0xMy40MjY1MykiIHN0eWxlPSJmaWxsOiNhZGJhYzc7ZmlsbC1vcGFjaXR5OjE7c3Ryb2tlOm5vbmU7c3Ryb2tlLW9wYWNpdHk6MSIgaWQ9ImcxNTc4Ni00Ij4mI3hhOyAgICAgICAgICA8cmVjdCByeT0iNi4zOTE5OTkyIiB5PSIzNS4xMjI2ODQiIHg9IjU3Ni4wNDU3OCIgaGVpZ2h0PSIxNjIuNDQwODEiIHdpZHRoPSIyNyIgaWQ9InJlY3QxNTc4Mi03IiBzdHlsZT0iZmlsbDojYWRiYWM3O2ZpbGwtb3BhY2l0eToxO2ZpbGwtcnVsZTpldmVub2RkO3N0cm9rZTpub25lO3N0cm9rZS13aWR0aDowLjk4NTMwNDtzdHJva2Utb3BhY2l0eToxIi8+JiN4YTsgICAgICAgICAgPHJlY3Qgcnk9IjYuMzkxOTk5MiIgeT0iMzY4LjMzMjIxIiB4PSI1NzYuMDQ1NzgiIGhlaWdodD0iMzYuMjUzODc2IiB3aWR0aD0iMjciIGlkPSJyZWN0MTU3ODQtMSIgc3R5bGU9ImZpbGw6I2FkYmFjNztmaWxsLW9wYWNpdHk6MTtmaWxsLXJ1bGU6ZXZlbm9kZDtzdHJva2U6bm9uZTtzdHJva2Utd2lkdGg6MC45ODUzMDQ7c3Ryb2tlLW9wYWNpdHk6MSIvPiYjeGE7ICAgICAgICA8L2c+JiN4YTsgICAgICAgIDxnIHRyYW5zZm9ybT0idHJhbnNsYXRlKC0xNS45MzI3LC0xMy40MjY1MykiIHN0eWxlPSJmaWxsOiNhZGJhYzc7ZmlsbC1vcGFjaXR5OjE7c3Ryb2tlOm5vbmU7c3Ryb2tlLW9wYWNpdHk6MSIgaWQ9ImcxNTc5Mi0wIj4mI3hhOyAgICAgICAgICA8cmVjdCByeT0iNi4zOTE5OTkyIiB5PSI0Ni45NTM3ODEiIHg9IjYxNS40ODgzNCIgaGVpZ2h0PSI1MC4wNjE4NzEiIHdpZHRoPSIyNyIgaWQ9InJlY3QxNTc4OC0xIiBzdHlsZT0iZmlsbDojYWRiYWM3O2ZpbGwtb3BhY2l0eToxO2ZpbGwtcnVsZTpldmVub2RkO3N0cm9rZTpub25lO3N0cm9rZS13aWR0aDowLjk4NTMwNDtzdHJva2Utb3BhY2l0eToxIi8+JiN4YTsgICAgICAgICAgPHJlY3Qgcnk9IjYuMzkxOTk5MiIgeT0iMTEwLjAzODAzIiB4PSI2MTUuNDg4MzQiIGhlaWdodD0iODMuNTcyOCIgd2lkdGg9IjI3IiBpZD0icmVjdDE1NzkwLTQiIHN0eWxlPSJmaWxsOiNhZGJhYzc7ZmlsbC1vcGFjaXR5OjE7ZmlsbC1ydWxlOmV2ZW5vZGQ7c3Ryb2tlOm5vbmU7c3Ryb2tlLXdpZHRoOjAuOTg1MzA0O3N0cm9rZS1vcGFjaXR5OjEiLz4mI3hhOyAgICAgICAgPC9nPiYjeGE7ICAgICAgICA8ZyB0cmFuc2Zvcm09InRyYW5zbGF0ZSgtMTUuOTMyNywtMTMuNDI2NTMpIiBzdHlsZT0iZmlsbDojYWRiYWM3O2ZpbGwtb3BhY2l0eToxO3N0cm9rZTpub25lO3N0cm9rZS1vcGFjaXR5OjEiIGlkPSJnMTU4MDAtNiI+JiN4YTsgICAgICAgICAgPHJlY3Qgcnk9IjYuMzkxOTk5MiIgeT0iNTYuNzk3ODk3IiB4PSI2NTYiIGhlaWdodD0iMzYuMjUzODc2IiB3aWR0aD0iMjciIGlkPSJyZWN0MTU3OTQtMSIgc3R5bGU9ImZpbGw6I2FkYmFjNztmaWxsLW9wYWNpdHk6MTtmaWxsLXJ1bGU6ZXZlbm9kZDtzdHJva2U6bm9uZTtzdHJva2Utd2lkdGg6MC45ODUzMDQ7c3Ryb2tlLW9wYWNpdHk6MSIvPiYjeGE7ICAgICAgICAgIDxyZWN0IHJ5PSI2LjM5MTk5OTIiIHk9IjEwNC4xMjA2IiB4PSI2NTYiIGhlaWdodD0iMzQuMjgyNjQyIiB3aWR0aD0iMjciIGlkPSJyZWN0MTU3OTYtMDciIHN0eWxlPSJmaWxsOiNhZGJhYzc7ZmlsbC1vcGFjaXR5OjE7ZmlsbC1ydWxlOmV2ZW5vZGQ7c3Ryb2tlOm5vbmU7c3Ryb2tlLXdpZHRoOjAuOTg1MzA0O3N0cm9rZS1vcGFjaXR5OjEiLz4mI3hhOyAgICAgICAgICA8cmVjdCByeT0iNi4zOTE5OTkyIiB5PSIxNDkuNDY2MDYiIHg9IjY1NiIgaGVpZ2h0PSI0OC4wODEyNjEiIHdpZHRoPSIyNyIgaWQ9InJlY3QxNTc5OC0zIiBzdHlsZT0iZmlsbDojYWRiYWM3O2ZpbGwtb3BhY2l0eToxO2ZpbGwtcnVsZTpldmVub2RkO3N0cm9rZTpub25lO3N0cm9rZS13aWR0aDowLjk4NTMwNDtzdHJva2Utb3BhY2l0eToxIi8+JiN4YTsgICAgICAgIDwvZz4mI3hhOyAgICAgICAgPHJlY3Qgcnk9IjYuMzkxOTk5MiIgeT0iNTUuMjA4ODE3IiB4PSI2ODAuMDY3MzgiIGhlaWdodD0iMTM0LjgzNDIiIHdpZHRoPSIyNyIgaWQ9InJlY3QxNTgwMi0zIiBzdHlsZT0iZmlsbDojYWRiYWM3O2ZpbGwtb3BhY2l0eToxO2ZpbGwtcnVsZTpldmVub2RkO3N0cm9rZTpub25lO3N0cm9rZS13aWR0aDowLjk4NTMwNDtzdHJva2Utb3BhY2l0eToxIi8+JiN4YTsgICAgICAgIDxyZWN0IHJ5PSI2LjM5MTk5OTIiIHk9IjkwLjY5MTg0OSIgeD0iNzE5LjgxODg1IiBoZWlnaHQ9Ijk1LjQwMDE5MiIgd2lkdGg9IjI3IiBpZD0icmVjdDE1ODA0LTQiIHN0eWxlPSJmaWxsOiNhZGJhYzc7ZmlsbC1vcGFjaXR5OjE7ZmlsbC1ydWxlOmV2ZW5vZGQ7c3Ryb2tlOm5vbmU7c3Ryb2tlLXdpZHRoOjAuOTg1MzA0O3N0cm9rZS1vcGFjaXR5OjEiLz4mI3hhOyAgICAgICAgPHJlY3Qgcnk9IjYuMzkxOTk5MiIgeT0iMTM2LjA0MzExIiB4PSI3NTkuMjU3MzIiIGhlaWdodD0iMzYuMjUzODc2IiB3aWR0aD0iMjciIGlkPSJyZWN0MTU4MDYtMSIgc3R5bGU9ImZpbGw6I2FkYmFjNztmaWxsLW9wYWNpdHk6MTtmaWxsLXJ1bGU6ZXZlbm9kZDtzdHJva2U6bm9uZTtzdHJva2Utd2lkdGg6MC45ODUzMDQ7c3Ryb2tlLW9wYWNpdHk6MSIvPiYjeGE7ICAgICAgPC9nPiYjeGE7ICAgIDwvY2xpcFBhdGg+JiN4YTsgICAgPGNsaXBQYXRoIGlkPSJjbGlwUGF0aDE1NjgwLTktMSIgY2xpcFBhdGhVbml0cz0idXNlclNwYWNlT25Vc2UiPiYjeGE7ICAgICAgPGcgdHJhbnNmb3JtPSJtYXRyaXgoMC4yNzk4MDY2MSwwLDAsMC4yNzk4MDY2MSwyMDkwLjgyNDksNDIxLjI4MDY2KSIgc3R5bGU9ImZpbGw6I2FkYmFjNztmaWxsLW9wYWNpdHk6MTtzdHJva2U6bm9uZTtzdHJva2Utb3BhY2l0eToxIiBpZD0iZzE1ODA4LTUtMSI+JiN4YTsgICAgICAgIDxyZWN0IHJ5PSI0LjQyMDczODIiIHk9IjI5My44NzQ1MSIgeD0iLTIuODEyNWUtMDUiIGhlaWdodD0iNzYuMTEyMDYxIiB3aWR0aD0iMjciIGlkPSJyZWN0MTU2ODItNC03IiBzdHlsZT0iZmlsbDojYWRiYWM3O2ZpbGwtb3BhY2l0eToxO2ZpbGwtcnVsZTpldmVub2RkO3N0cm9rZTpub25lO3N0cm9rZS13aWR0aDowLjk4NDUyODtzdHJva2Utb3BhY2l0eToxIi8+JiN4YTsgICAgICAgIDxnIHN0eWxlPSJmaWxsOiNhZGJhYzc7ZmlsbC1vcGFjaXR5OjE7c3Ryb2tlOm5vbmU7c3Ryb2tlLW9wYWNpdHk6MSIgdHJhbnNmb3JtPSJ0cmFuc2xhdGUoLTE1LjQ5MjUsLTEzLjQyNjUzKSIgaWQ9ImcxNTY4OC03Mi05Ij4mI3hhOyAgICAgICAgICA8cmVjdCByeT0iNi4zOTE5NjQiIHk9IjIxOC45MDIwOCIgeD0iNTUuNSIgaGVpZ2h0PSI5NC43OTY1MDkiIHdpZHRoPSIyNyIgaWQ9InJlY3QxNTY4NC04LTMiIHN0eWxlPSJmaWxsOiNhZGJhYzc7ZmlsbC1vcGFjaXR5OjE7ZmlsbC1ydWxlOmV2ZW5vZGQ7c3Ryb2tlOm5vbmU7c3Ryb2tlLXdpZHRoOjAuOTg0ODQ5O3N0cm9rZS1vcGFjaXR5OjEiLz4mI3hhOyAgICAgICAgICA8cmVjdCByeT0iNC40MjA3NDQ5IiB5PSIzMjQuNTIyMTYiIHg9IjU1LjUiIGhlaWdodD0iODAuMDYzOTM0IiB3aWR0aD0iMjciIGlkPSJyZWN0MTU2ODYtMC03IiBzdHlsZT0iZmlsbDojYWRiYWM3O2ZpbGwtb3BhY2l0eToxO2ZpbGwtcnVsZTpldmVub2RkO3N0cm9rZTpub25lO3N0cm9rZS13aWR0aDowLjk3MDY3MjtzdHJva2Utb3BhY2l0eToxIi8+JiN4YTsgICAgICAgIDwvZz4mI3hhOyAgICAgICAgPGcgc3R5bGU9ImZpbGw6I2FkYmFjNztmaWxsLW9wYWNpdHk6MTtzdHJva2U6bm9uZTtzdHJva2Utb3BhY2l0eToxIiB0cmFuc2Zvcm09InRyYW5zbGF0ZSgtMTUuNSwtMTMuNDI2NTMpIiBpZD0iZzE1Njk2LTktOSI+JiN4YTsgICAgICAgICAgPHJlY3Qgcnk9IjQuNDIwNzQzIiB5PSIxMjkuNjY1OTEiIHg9Ijk1LjUxNDk3NyIgaGVpZ2h0PSIxNDIuMjE0NjUiIHdpZHRoPSIyNyIgaWQ9InJlY3QxNTY5MC03LTIiIHN0eWxlPSJmaWxsOiNhZGJhYzc7ZmlsbC1vcGFjaXR5OjE7ZmlsbC1ydWxlOmV2ZW5vZGQ7c3Ryb2tlOm5vbmU7c3Ryb2tlLXdpZHRoOjAuOTg0ODQ5O3N0cm9rZS1vcGFjaXR5OjEiLz4mI3hhOyAgICAgICAgICA8cmVjdCByeT0iNC40MjA3MzgyIiB5PSIyODQuNDExODMiIHg9Ijk1LjUxNDk3NyIgaGVpZ2h0PSI1MC4yMDU4NzIiIHdpZHRoPSIyNyIgaWQ9InJlY3QxNTY5Mi0wLTkiIHN0eWxlPSJmaWxsOiNhZGJhYzc7ZmlsbC1vcGFjaXR5OjE7ZmlsbC1ydWxlOmV2ZW5vZGQ7c3Ryb2tlOm5vbmU7c3Ryb2tlLXdpZHRoOjEuMDA2NDk7c3Ryb2tlLW9wYWNpdHk6MSIvPiYjeGE7ICAgICAgICAgIDxyZWN0IHJ5PSI2LjM5MTk5OTIiIHk9IjM2OC4zMzIyMSIgeD0iOTUuNTE0OTc3IiBoZWlnaHQ9IjM2LjI1Mzg3NiIgd2lkdGg9IjI3IiBpZD0icmVjdDE1Njk0LTAtOCIgc3R5bGU9ImZpbGw6I2FkYmFjNztmaWxsLW9wYWNpdHk6MTtmaWxsLXJ1bGU6ZXZlbm9kZDtzdHJva2U6bm9uZTtzdHJva2Utd2lkdGg6MC45ODUzMDQ7c3Ryb2tlLW9wYWNpdHk6MSIvPiYjeGE7ICAgICAgICA8L2c+JiN4YTsgICAgICAgIDxnIHN0eWxlPSJmaWxsOiNhZGJhYzc7ZmlsbC1vcGFjaXR5OjE7c3Ryb2tlOm5vbmU7c3Ryb2tlLW9wYWNpdHk6MSIgdHJhbnNmb3JtPSJ0cmFuc2xhdGUoLTE1LjQ3NzUsLTEzLjQyNjUzKSIgaWQ9ImcxNTcwMi0zMi0xIj4mI3hhOyAgICAgICAgICA8cmVjdCByeT0iNC40MjA3NTA2IiB5PSI2Ni40MTExODYiIHg9IjEzNS41IiBoZWlnaHQ9IjEwMy4xNzMwMSIgd2lkdGg9IjI3IiBpZD0icmVjdDE1Njk4LTYtMCIgc3R5bGU9ImZpbGw6I2FkYmFjNztmaWxsLW9wYWNpdHk6MTtmaWxsLXJ1bGU6ZXZlbm9kZDtzdHJva2U6bm9uZTtzdHJva2Utd2lkdGg6MC45ODQ4NDk7c3Ryb2tlLW9wYWNpdHk6MSIvPiYjeGE7ICAgICAgICAgIDxyZWN0IHJ5PSI0LjQxMTM1MDMiIHk9IjE4MS4wNzkyOCIgeD0iMTM1LjUiIGhlaWdodD0iMTM2LjY4Mzk2IiB3aWR0aD0iMjciIGlkPSJyZWN0MTU3MDAtNy0zIiBzdHlsZT0iZmlsbDojYWRiYWM3O2ZpbGwtb3BhY2l0eToxO2ZpbGwtcnVsZTpldmVub2RkO3N0cm9rZTpub25lO3N0cm9rZS13aWR0aDowLjk4NDg0OTtzdHJva2Utb3BhY2l0eToxIi8+JiN4YTsgICAgICAgIDwvZz4mI3hhOyAgICAgICAgPGcgc3R5bGU9ImZpbGw6I2FkYmFjNztmaWxsLW9wYWNpdHk6MTtzdHJva2U6bm9uZTtzdHJva2Utb3BhY2l0eToxIiB0cmFuc2Zvcm09InRyYW5zbGF0ZSgtMTUuOTc0OCwtMTMuNDI2NTMpIiBpZD0iZzE1NzEwLTMtMCI+JiN4YTsgICAgICAgICAgPHJlY3Qgcnk9IjQuNDIwNzQ2OCIgeT0iNDYuOTQ1ODA1IiB4PSIxNzYiIGhlaWdodD0iNzEuNzQ1NDE1IiB3aWR0aD0iMjciIGlkPSJyZWN0MTU3MDQtNi03IiBzdHlsZT0iZmlsbDojYWRiYWM3O2ZpbGwtb3BhY2l0eToxO2ZpbGwtcnVsZTpldmVub2RkO3N0cm9rZTpub25lO3N0cm9rZS13aWR0aDoxLjAyMTk2O3N0cm9rZS1vcGFjaXR5OjEiLz4mI3hhOyAgICAgICAgICA8cmVjdCByeT0iNC40MjA3NDMiIHk9IjEyOS43NTU4IiB4PSIxNzYuMDA5NDgiIGhlaWdodD0iOTkuMzUyMDQzIiB3aWR0aD0iMjciIGlkPSJyZWN0MTU3MDYtNi03IiBzdHlsZT0iZmlsbDojYWRiYWM3O2ZpbGwtb3BhY2l0eToxO2ZpbGwtcnVsZTpldmVub2RkO3N0cm9rZTpub25lO3N0cm9rZS13aWR0aDoxLjAyMjMyO3N0cm9rZS1vcGFjaXR5OjEiLz4mI3hhOyAgICAgICAgICA8cmVjdCByeT0iNC40MjA3NDMiIHk9IjI0Mi4xNDAwMyIgeD0iMTc2LjAwOTQ4IiBoZWlnaHQ9IjkwLjE1NzY4NCIgd2lkdGg9IjI3IiBpZD0icmVjdDE1NzA4LTMtNCIgc3R5bGU9ImZpbGw6I2FkYmFjNztmaWxsLW9wYWNpdHk6MTtmaWxsLXJ1bGU6ZXZlbm9kZDtzdHJva2U6bm9uZTtzdHJva2Utd2lkdGg6MS4wMjIzMjtzdHJva2Utb3BhY2l0eToxIi8+JiN4YTsgICAgICAgIDwvZz4mI3hhOyAgICAgICAgPGcgc3R5bGU9ImZpbGw6I2FkYmFjNztmaWxsLW9wYWNpdHk6MTtzdHJva2U6bm9uZTtzdHJva2Utb3BhY2l0eToxIiB0cmFuc2Zvcm09InRyYW5zbGF0ZSgtMTUuMTkxNCwtMTMuNDI2NTMpIiBpZD0iZzE1NzE4LTgtNyI+JiN4YTsgICAgICAgICAgPHJlY3Qgcnk9IjYuMzkxOTk5MiIgeT0iMzEuMTcwMTE1IiB4PSIyMTUuMjI4ODQiIGhlaWdodD0iMTMwLjg5MTcyIiB3aWR0aD0iMjciIGlkPSJyZWN0MTU3MTItNi05IiBzdHlsZT0iZmlsbDojYWRiYWM3O2ZpbGwtb3BhY2l0eToxO2ZpbGwtcnVsZTpldmVub2RkO3N0cm9rZTpub25lO3N0cm9rZS13aWR0aDowLjk4NTMwNDtzdHJva2Utb3BhY2l0eToxIi8+JiN4YTsgICAgICAgICAgPHJlY3Qgcnk9IjYuMzkxOTk5MiIgeT0iMTc1LjA5ODA1IiB4PSIyMTUuMjI4ODQiIGhlaWdodD0iNDAuMTk2MzM5IiB3aWR0aD0iMjciIGlkPSJyZWN0MTU3MTQtOS0xIiBzdHlsZT0iZmlsbDojYWRiYWM3O2ZpbGwtb3BhY2l0eToxO2ZpbGwtcnVsZTpldmVub2RkO3N0cm9rZTpub25lO3N0cm9rZS13aWR0aDowLjk4NTMwNDtzdHJva2Utb3BhY2l0eToxIi8+JiN4YTsgICAgICAgICAgPHJlY3Qgcnk9IjYuMzkxOTk5MiIgeT0iMjI0LjQwMTk5IiB4PSIyMTUuMjI4ODQiIGhlaWdodD0iMTM0LjgzNDIxIiB3aWR0aD0iMjYuOTgxODYxIiBpZD0icmVjdDE1NzE2LTMtMiIgc3R5bGU9ImZpbGw6I2FkYmFjNztmaWxsLW9wYWNpdHk6MTtmaWxsLXJ1bGU6ZXZlbm9kZDtzdHJva2U6bm9uZTtzdHJva2Utd2lkdGg6MC45ODUzMDQ7c3Ryb2tlLW9wYWNpdHk6MSIvPiYjeGE7ICAgICAgICA8L2c+JiN4YTsgICAgICAgIDxnIHN0eWxlPSJmaWxsOiNhZGJhYzc7ZmlsbC1vcGFjaXR5OjE7c3Ryb2tlOm5vbmU7c3Ryb2tlLW9wYWNpdHk6MSIgdHJhbnNmb3JtPSJ0cmFuc2xhdGUoLTE0LjYwODQsLTEzLjQyNjUzKSIgaWQ9ImcxNTcyOC02LTYiPiYjeGE7ICAgICAgICAgIDxyZWN0IHJ5PSI2LjM5MTk5OTIiIHk9IjE1LjQwMTY4OCIgeD0iMjU0LjY1MzI0IiBoZWlnaHQ9IjM2LjI1Mzg3NiIgd2lkdGg9IjI3IiBpZD0icmVjdDE1NzIwLTQtMyIgc3R5bGU9ImZpbGw6I2FkYmFjNztmaWxsLW9wYWNpdHk6MTtmaWxsLXJ1bGU6ZXZlbm9kZDtzdHJva2U6bm9uZTtzdHJva2Utd2lkdGg6MC45ODUzMDQ7c3Ryb2tlLW9wYWNpdHk6MSIvPiYjeGE7ICAgICAgICAgIDxyZWN0IHJ5PSI2LjM5MTk5OTIiIHk9IjYyLjcxMzYzNCIgeD0iMjU0LjY1MzI0IiBoZWlnaHQ9IjE5My45ODk5MyIgd2lkdGg9IjI3LjAwMDAxNSIgaWQ9InJlY3QxNTcyMi05LTEiIHN0eWxlPSJmaWxsOiNhZGJhYzc7ZmlsbC1vcGFjaXR5OjE7ZmlsbC1ydWxlOmV2ZW5vZGQ7c3Ryb2tlOm5vbmU7c3Ryb2tlLXdpZHRoOjAuOTg1MzA0O3N0cm9rZS1vcGFjaXR5OjEiLz4mI3hhOyAgICAgICAgICA8cmVjdCByeT0iNi4zOTE5OTkyIiB5PSIyNjkuNzQ0NDUiIHg9IjI1NC42NTMyNCIgaGVpZ2h0PSI2MS44Nzk4NjgiIHdpZHRoPSIyNy4wMDAwMTUiIGlkPSJyZWN0MTU3MjQtMTktMSIgc3R5bGU9ImZpbGw6I2FkYmFjNztmaWxsLW9wYWNpdHk6MTtmaWxsLXJ1bGU6ZXZlbm9kZDtzdHJva2U6bm9uZTtzdHJva2Utd2lkdGg6MC45ODUzMDQ7c3Ryb2tlLW9wYWNpdHk6MSIvPiYjeGE7ICAgICAgICAgIDxyZWN0IHJ5PSI2LjM5MTk5OTIiIHk9IjM0NC42NzQxNiIgeD0iMjU0LjY1MzI0IiBoZWlnaHQ9IjQ0LjEzODgwMiIgd2lkdGg9IjI3LjAwMDAxNSIgaWQ9InJlY3QxNTcyNi05LTQiIHN0eWxlPSJmaWxsOiNhZGJhYzc7ZmlsbC1vcGFjaXR5OjE7ZmlsbC1ydWxlOmV2ZW5vZGQ7c3Ryb2tlOm5vbmU7c3Ryb2tlLXdpZHRoOjAuOTg1MzA0O3N0cm9rZS1vcGFjaXR5OjEiLz4mI3hhOyAgICAgICAgPC9nPiYjeGE7ICAgICAgICA8ZyBzdHlsZT0iZmlsbDojYWRiYWM3O2ZpbGwtb3BhY2l0eToxO3N0cm9rZTpub25lO3N0cm9rZS1vcGFjaXR5OjEiIHRyYW5zZm9ybT0idHJhbnNsYXRlKC0xNi4wMDcxLC0xMy40MjY1MykiIGlkPSJnMTU3MzYtMS04Ij4mI3hhOyAgICAgICAgICA8cmVjdCByeT0iNi4zOTE5OTkyIiB5PSIzMzQuODAyNDkiIHg9IjI5Ni4wNTkzIiBoZWlnaHQ9IjY5Ljc4MzYiIHdpZHRoPSIyNyIgaWQ9InJlY3QxNTczMC00LTMiIHN0eWxlPSJmaWxsOiNhZGJhYzc7ZmlsbC1vcGFjaXR5OjE7ZmlsbC1ydWxlOmV2ZW5vZGQ7c3Ryb2tlOm5vbmU7c3Ryb2tlLXdpZHRoOjAuOTg1MzA0O3N0cm9rZS1vcGFjaXR5OjEiLz4mI3hhOyAgICAgICAgICA8cmVjdCByeT0iNi4zOTE5OTkyIiB5PSIxMzcuNjQ4OTkiIHg9IjI5Ni4wNTkzIiBoZWlnaHQ9IjE1Mi41NzUyOSIgd2lkdGg9IjI3IiBpZD0icmVjdDE1NzMyLTctMiIgc3R5bGU9ImZpbGw6I2FkYmFjNztmaWxsLW9wYWNpdHk6MTtmaWxsLXJ1bGU6ZXZlbm9kZDtzdHJva2U6bm9uZTtzdHJva2Utd2lkdGg6MC45ODUzMDQ7c3Ryb2tlLW9wYWNpdHk6MSIvPiYjeGE7ICAgICAgICAgIDxyZWN0IHJ5PSI2LjM5MTk5OTIiIHk9IjEzLjQyNjUzIiB4PSIyOTYuMDU5MyIgaGVpZ2h0PSIxMTEuMTcwMDMiIHdpZHRoPSIyNyIgaWQ9InJlY3QxNTczNC0zLTMiIHN0eWxlPSJmaWxsOiNhZGJhYzc7ZmlsbC1vcGFjaXR5OjE7ZmlsbC1ydWxlOmV2ZW5vZGQ7c3Ryb2tlOm5vbmU7c3Ryb2tlLXdpZHRoOjAuOTg1MzA0O3N0cm9rZS1vcGFjaXR5OjEiLz4mI3hhOyAgICAgICAgPC9nPiYjeGE7ICAgICAgICA8ZyBzdHlsZT0iZmlsbDojYWRiYWM3O2ZpbGwtb3BhY2l0eToxO3N0cm9rZTpub25lO3N0cm9rZS1vcGFjaXR5OjEiIHRyYW5zZm9ybT0idHJhbnNsYXRlKC0xNS40MjQ1LC0xMy40MjY1MykiIGlkPSJnMTU3NDQtNi05Ij4mI3hhOyAgICAgICAgICA8cmVjdCByeT0iNi4zOTE5OTkyIiB5PSIzNjQuMzg5NzciIHg9IjMzNS40ODQwNCIgaGVpZ2h0PSI0MC4xOTYzMiIgd2lkdGg9IjI3IiBpZD0icmVjdDE1NzM4LTctMSIgc3R5bGU9ImZpbGw6I2FkYmFjNztmaWxsLW9wYWNpdHk6MTtmaWxsLXJ1bGU6ZXZlbm9kZDtzdHJva2U6bm9uZTtzdHJva2Utd2lkdGg6MC45ODUzMDQ7c3Ryb2tlLW9wYWNpdHk6MSIvPiYjeGE7ICAgICAgICAgIDxyZWN0IHJ5PSI2LjM5MTk5OTIiIHk9IjE1LjM5ODk2MiIgeD0iMzM1LjQ4NDA0IiBoZWlnaHQ9IjE4MC4xODE5IiB3aWR0aD0iMjciIGlkPSJyZWN0MTU3NDAtNzUtOCIgc3R5bGU9ImZpbGw6I2FkYmFjNztmaWxsLW9wYWNpdHk6MTtmaWxsLXJ1bGU6ZXZlbm9kZDtzdHJva2U6bm9uZTtzdHJva2Utd2lkdGg6MC45ODUzMDQ7c3Ryb2tlLW9wYWNpdHk6MSIvPiYjeGE7ICAgICAgICAgIDxyZWN0IHJ5PSI2LjM5MTk5OTIiIHk9IjIwOC42MjYyMiIgeD0iMzM1LjQ4NDA0IiBoZWlnaHQ9IjgxLjYwMTU4NSIgd2lkdGg9IjI3IiBpZD0icmVjdDE1NzQyLTQtOCIgc3R5bGU9ImZpbGw6I2FkYmFjNztmaWxsLW9wYWNpdHk6MTtmaWxsLXJ1bGU6ZXZlbm9kZDtzdHJva2U6bm9uZTtzdHJva2Utd2lkdGg6MC45ODUzMDQ7c3Ryb2tlLW9wYWNpdHk6MSIvPiYjeGE7ICAgICAgICA8L2c+JiN4YTsgICAgICAgIDxnIHN0eWxlPSJmaWxsOiNhZGJhYzc7ZmlsbC1vcGFjaXR5OjE7c3Ryb2tlOm5vbmU7c3Ryb2tlLW9wYWNpdHk6MSIgdHJhbnNmb3JtPSJ0cmFuc2xhdGUoLTE0Ljg2MDMsLTEzLjQyNjUzKSIgaWQ9ImcxNTc1MC02LTYiPiYjeGE7ICAgICAgICAgIDxyZWN0IHJ5PSI2LjM5MTk5OTIiIHk9IjIzLjI4NDUyNyIgeD0iMzc0LjkyNzU1IiBoZWlnaHQ9IjU5LjkwODY0OSIgd2lkdGg9IjI3IiBpZD0icmVjdDE1NzQ2LTktMiIgc3R5bGU9ImZpbGw6I2FkYmFjNztmaWxsLW9wYWNpdHk6MTtmaWxsLXJ1bGU6ZXZlbm9kZDtzdHJva2U6bm9uZTtzdHJva2Utd2lkdGg6MC45ODUzMDQ7c3Ryb2tlLW9wYWNpdHk6MSIvPiYjeGE7ICAgICAgICAgIDxyZWN0IHJ5PSI2LjM5MTk5OTIiIHk9Ijk2LjIyOTg1OCIgeD0iMzc0LjkyNzU1IiBoZWlnaHQ9IjE5My45ODA1NSIgd2lkdGg9IjI3IiBpZD0icmVjdDE1NzQ4LTgtMSIgc3R5bGU9ImZpbGw6I2FkYmFjNztmaWxsLW9wYWNpdHk6MTtmaWxsLXJ1bGU6ZXZlbm9kZDtzdHJva2U6bm9uZTtzdHJva2Utd2lkdGg6MC45ODUzMDQ7c3Ryb2tlLW9wYWNpdHk6MSIvPiYjeGE7ICAgICAgICA8L2c+JiN4YTsgICAgICAgIDxnIHRyYW5zZm9ybT0idHJhbnNsYXRlKC0xNS45MzI3LC0xMy40MjY1MykiIHN0eWxlPSJmaWxsOiNhZGJhYzc7ZmlsbC1vcGFjaXR5OjE7c3Ryb2tlOm5vbmU7c3Ryb2tlLW9wYWNpdHk6MSIgaWQ9ImcxNTc1OC0xLTUiPiYjeGE7ICAgICAgICAgIDxyZWN0IHJ5PSI2LjM5MTk5OTIiIHk9IjI3LjIyOTU1NyIgeD0iNDE2IiBoZWlnaHQ9IjExNy4wOTMxMSIgd2lkdGg9IjI3IiBpZD0icmVjdDE1NzUyLTctMCIgc3R5bGU9ImZpbGw6I2FkYmFjNztmaWxsLW9wYWNpdHk6MTtmaWxsLXJ1bGU6ZXZlbm9kZDtzdHJva2U6bm9uZTtzdHJva2Utd2lkdGg6MC45ODUzMDQ7c3Ryb2tlLW9wYWNpdHk6MSIvPiYjeGE7ICAgICAgICAgIDxyZWN0IHJ5PSI2LjM5MTk5OTIiIHk9IjE1Ny4zNjQ5NyIgeD0iNDE2IiBoZWlnaHQ9Ijk5LjM1MjA0MyIgd2lkdGg9IjI3IiBpZD0icmVjdDE1NzU0LTktNyIgc3R5bGU9ImZpbGw6I2FkYmFjNztmaWxsLW9wYWNpdHk6MTtmaWxsLXJ1bGU6ZXZlbm9kZDtzdHJva2U6bm9uZTtzdHJva2Utd2lkdGg6MC45ODUzMDQ7c3Ryb2tlLW9wYWNpdHk6MSIvPiYjeGE7ICAgICAgICAgIDxyZWN0IHJ5PSI2LjM5MTk5OTIiIHk9IjI2OS43Mzc5MiIgeD0iNDE2IiBoZWlnaHQ9IjUyLjAyMzcyNCIgd2lkdGg9IjI3IiBpZD0icmVjdDE1NzU2LTUtMyIgc3R5bGU9ImZpbGw6I2FkYmFjNztmaWxsLW9wYWNpdHk6MTtmaWxsLXJ1bGU6ZXZlbm9kZDtzdHJva2U6bm9uZTtzdHJva2Utd2lkdGg6MC45ODUzMDQ7c3Ryb2tlLW9wYWNpdHk6MSIvPiYjeGE7ICAgICAgICA8L2c+JiN4YTsgICAgICAgIDxnIHRyYW5zZm9ybT0idHJhbnNsYXRlKC0xNS45MzI3LC0xMy40MjY1MykiIHN0eWxlPSJmaWxsOiNhZGJhYzc7ZmlsbC1vcGFjaXR5OjE7c3Ryb2tlOm5vbmU7c3Ryb2tlLW9wYWNpdHk6MSIgaWQ9ImcxNTc2NC04LTMiPiYjeGE7ICAgICAgICAgIDxyZWN0IHJ5PSI2LjM5MTk5OTIiIHk9IjMzLjE1MTMxIiB4PSI0NTUuNzYzNTIiIGhlaWdodD0iMTc0LjI2ODIiIHdpZHRoPSIyNyIgaWQ9InJlY3QxNTc2MC03LTIiIHN0eWxlPSJmaWxsOiNhZGJhYzc7ZmlsbC1vcGFjaXR5OjE7ZmlsbC1ydWxlOmV2ZW5vZGQ7c3Ryb2tlOm5vbmU7c3Ryb2tlLXdpZHRoOjAuOTg1MzA0O3N0cm9rZS1vcGFjaXR5OjEiLz4mI3hhOyAgICAgICAgICA8cmVjdCByeT0iNi4zOTE5OTkyIiB5PSIyMjAuNDU5IiB4PSI0NTUuNzYzNTIiIGhlaWdodD0iMTQwLjc0Nzg5IiB3aWR0aD0iMjciIGlkPSJyZWN0MTU3NjItNC0yIiBzdHlsZT0iZmlsbDojYWRiYWM3O2ZpbGwtb3BhY2l0eToxO2ZpbGwtcnVsZTpldmVub2RkO3N0cm9rZTpub25lO3N0cm9rZS13aWR0aDowLjk4NTMwNDtzdHJva2Utb3BhY2l0eToxIi8+JiN4YTsgICAgICAgIDwvZz4mI3hhOyAgICAgICAgPGcgdHJhbnNmb3JtPSJ0cmFuc2xhdGUoLTE1LjkzMjcsLTEzLjQyNjUzKSIgc3R5bGU9ImZpbGw6I2FkYmFjNztmaWxsLW9wYWNpdHk6MTtzdHJva2U6bm9uZTtzdHJva2Utb3BhY2l0eToxIiBpZD0iZzE1NzcyLTctNyI+JiN4YTsgICAgICAgICAgPHJlY3Qgcnk9IjYuMzkxOTk5MiIgeT0iMjcuMjMyNDYiIHg9IjQ5NS41IiBoZWlnaHQ9IjgxLjYwMTU3OCIgd2lkdGg9IjI3IiBpZD0icmVjdDE1NzY2LTEtMSIgc3R5bGU9ImZpbGw6I2FkYmFjNztmaWxsLW9wYWNpdHk6MTtmaWxsLXJ1bGU6ZXZlbm9kZDtzdHJva2U6bm9uZTtzdHJva2Utd2lkdGg6MC45ODUzMDQ7c3Ryb2tlLW9wYWNpdHk6MSIvPiYjeGE7ICAgICAgICAgIDxyZWN0IHJ5PSI2LjM5MTk5OTIiIHk9IjEyMS44NzEzNyIgeD0iNDk1LjUiIGhlaWdodD0iMjEzLjcxMTYxIiB3aWR0aD0iMjciIGlkPSJyZWN0MTU3NjgtMy05IiBzdHlsZT0iZmlsbDojYWRiYWM3O2ZpbGwtb3BhY2l0eToxO2ZpbGwtcnVsZTpldmVub2RkO3N0cm9rZTpub25lO3N0cm9rZS13aWR0aDowLjk4NTMwNDtzdHJva2Utb3BhY2l0eToxIi8+JiN4YTsgICAgICAgICAgPHJlY3Qgcnk9IjYuMzkxOTk5MiIgeT0iMzQ4LjYxNDQ0IiB4PSI0OTUuNSIgaGVpZ2h0PSI1MC4wNTI1MDIiIHdpZHRoPSIyNyIgaWQ9InJlY3QxNTc3MC03LTkiIHN0eWxlPSJmaWxsOiNhZGJhYzc7ZmlsbC1vcGFjaXR5OjE7ZmlsbC1ydWxlOmV2ZW5vZGQ7c3Ryb2tlOm5vbmU7c3Ryb2tlLXdpZHRoOjAuOTg1MzA0O3N0cm9rZS1vcGFjaXR5OjEiLz4mI3hhOyAgICAgICAgPC9nPiYjeGE7ICAgICAgICA8ZyB0cmFuc2Zvcm09InRyYW5zbGF0ZSgtMTUuOTMyNywtMTMuNDI2NTMpIiBzdHlsZT0iZmlsbDojYWRiYWM3O2ZpbGwtb3BhY2l0eToxO3N0cm9rZTpub25lO3N0cm9rZS1vcGFjaXR5OjEiIGlkPSJnMTU3ODAtMS04Ij4mI3hhOyAgICAgICAgICA8cmVjdCByeT0iNi4zOTE5OTkyIiB5PSIzMzYuNzgzMTciIHg9IjUzNS41IiBoZWlnaHQ9IjY3LjgwMjkxNyIgd2lkdGg9IjI3IiBpZD0icmVjdDE1Nzc0LTQtOCIgc3R5bGU9ImZpbGw6I2FkYmFjNztmaWxsLW9wYWNpdHk6MTtmaWxsLXJ1bGU6ZXZlbm9kZDtzdHJva2U6bm9uZTtzdHJva2Utd2lkdGg6MC45ODUzMDQ7c3Ryb2tlLW9wYWNpdHk6MSIvPiYjeGE7ICAgICAgICAgIDxyZWN0IHJ5PSI2LjM5MTk5OTIiIHk9IjE2OS4xOTE5OSIgeD0iNTM1LjUiIGhlaWdodD0iNTAuMDYxODkzIiB3aWR0aD0iMjciIGlkPSJyZWN0MTU3NzYtMy0wIiBzdHlsZT0iZmlsbDojYWRiYWM3O2ZpbGwtb3BhY2l0eToxO2ZpbGwtcnVsZTpldmVub2RkO3N0cm9rZTpub25lO3N0cm9rZS13aWR0aDowLjk4NTMwNDtzdHJva2Utb3BhY2l0eToxIi8+JiN4YTsgICAgICAgICAgPHJlY3Qgcnk9IjYuMzkxOTk5MiIgeT0iMjUuMjU4ODcxIiB4PSI1MzUuNSIgaGVpZ2h0PSIxMzAuODkxNzQiIHdpZHRoPSIyNyIgaWQ9InJlY3QxNTc3OC0wLTQiIHN0eWxlPSJmaWxsOiNhZGJhYzc7ZmlsbC1vcGFjaXR5OjE7ZmlsbC1ydWxlOmV2ZW5vZGQ7c3Ryb2tlOm5vbmU7c3Ryb2tlLXdpZHRoOjAuOTg1MzA0O3N0cm9rZS1vcGFjaXR5OjEiLz4mI3hhOyAgICAgICAgPC9nPiYjeGE7ICAgICAgICA8ZyB0cmFuc2Zvcm09InRyYW5zbGF0ZSgtMTUuOTMyNywtMTMuNDI2NTMpIiBzdHlsZT0iZmlsbDojYWRiYWM3O2ZpbGwtb3BhY2l0eToxO3N0cm9rZTpub25lO3N0cm9rZS1vcGFjaXR5OjEiIGlkPSJnMTU3ODYtNC0yIj4mI3hhOyAgICAgICAgICA8cmVjdCByeT0iNi4zOTE5OTkyIiB5PSIzNS4xMjI2ODQiIHg9IjU3Ni4wNDU3OCIgaGVpZ2h0PSIxNjIuNDQwODEiIHdpZHRoPSIyNyIgaWQ9InJlY3QxNTc4Mi03LTEiIHN0eWxlPSJmaWxsOiNhZGJhYzc7ZmlsbC1vcGFjaXR5OjE7ZmlsbC1ydWxlOmV2ZW5vZGQ7c3Ryb2tlOm5vbmU7c3Ryb2tlLXdpZHRoOjAuOTg1MzA0O3N0cm9rZS1vcGFjaXR5OjEiLz4mI3hhOyAgICAgICAgICA8cmVjdCByeT0iNi4zOTE5OTkyIiB5PSIzNjguMzMyMjEiIHg9IjU3Ni4wNDU3OCIgaGVpZ2h0PSIzNi4yNTM4NzYiIHdpZHRoPSIyNyIgaWQ9InJlY3QxNTc4NC0xLTciIHN0eWxlPSJmaWxsOiNhZGJhYzc7ZmlsbC1vcGFjaXR5OjE7ZmlsbC1ydWxlOmV2ZW5vZGQ7c3Ryb2tlOm5vbmU7c3Ryb2tlLXdpZHRoOjAuOTg1MzA0O3N0cm9rZS1vcGFjaXR5OjEiLz4mI3hhOyAgICAgICAgPC9nPiYjeGE7ICAgICAgICA8ZyB0cmFuc2Zvcm09InRyYW5zbGF0ZSgtMTUuOTMyNywtMTMuNDI2NTMpIiBzdHlsZT0iZmlsbDojYWRiYWM3O2ZpbGwtb3BhY2l0eToxO3N0cm9rZTpub25lO3N0cm9rZS1vcGFjaXR5OjEiIGlkPSJnMTU3OTItMC05Ij4mI3hhOyAgICAgICAgICA8cmVjdCByeT0iNi4zOTE5OTkyIiB5PSI0Ni45NTM3ODEiIHg9IjYxNS40ODgzNCIgaGVpZ2h0PSI1MC4wNjE4NzEiIHdpZHRoPSIyNyIgaWQ9InJlY3QxNTc4OC0xLTEiIHN0eWxlPSJmaWxsOiNhZGJhYzc7ZmlsbC1vcGFjaXR5OjE7ZmlsbC1ydWxlOmV2ZW5vZGQ7c3Ryb2tlOm5vbmU7c3Ryb2tlLXdpZHRoOjAuOTg1MzA0O3N0cm9rZS1vcGFjaXR5OjEiLz4mI3hhOyAgICAgICAgICA8cmVjdCByeT0iNi4zOTE5OTkyIiB5PSIxMTAuMDM4MDMiIHg9IjYxNS40ODgzNCIgaGVpZ2h0PSI4My41NzI4IiB3aWR0aD0iMjciIGlkPSJyZWN0MTU3OTAtNC02IiBzdHlsZT0iZmlsbDojYWRiYWM3O2ZpbGwtb3BhY2l0eToxO2ZpbGwtcnVsZTpldmVub2RkO3N0cm9rZTpub25lO3N0cm9rZS13aWR0aDowLjk4NTMwNDtzdHJva2Utb3BhY2l0eToxIi8+JiN4YTsgICAgICAgIDwvZz4mI3hhOyAgICAgICAgPGcgdHJhbnNmb3JtPSJ0cmFuc2xhdGUoLTE1LjkzMjcsLTEzLjQyNjUzKSIgc3R5bGU9ImZpbGw6I2FkYmFjNztmaWxsLW9wYWNpdHk6MTtzdHJva2U6bm9uZTtzdHJva2Utb3BhY2l0eToxIiBpZD0iZzE1ODAwLTYtMCI+JiN4YTsgICAgICAgICAgPHJlY3Qgcnk9IjYuMzkxOTk5MiIgeT0iNTYuNzk3ODk3IiB4PSI2NTYiIGhlaWdodD0iMzYuMjUzODc2IiB3aWR0aD0iMjciIGlkPSJyZWN0MTU3OTQtMS05IiBzdHlsZT0iZmlsbDojYWRiYWM3O2ZpbGwtb3BhY2l0eToxO2ZpbGwtcnVsZTpldmVub2RkO3N0cm9rZTpub25lO3N0cm9rZS13aWR0aDowLjk4NTMwNDtzdHJva2Utb3BhY2l0eToxIi8+JiN4YTsgICAgICAgICAgPHJlY3Qgcnk9IjYuMzkxOTk5MiIgeT0iMTA0LjEyMDYiIHg9IjY1NiIgaGVpZ2h0PSIzNC4yODI2NDIiIHdpZHRoPSIyNyIgaWQ9InJlY3QxNTc5Ni0wNy0xIiBzdHlsZT0iZmlsbDojYWRiYWM3O2ZpbGwtb3BhY2l0eToxO2ZpbGwtcnVsZTpldmVub2RkO3N0cm9rZTpub25lO3N0cm9rZS13aWR0aDowLjk4NTMwNDtzdHJva2Utb3BhY2l0eToxIi8+JiN4YTsgICAgICAgICAgPHJlY3Qgcnk9IjYuMzkxOTk5MiIgeT0iMTQ5LjQ2NjA2IiB4PSI2NTYiIGhlaWdodD0iNDguMDgxMjYxIiB3aWR0aD0iMjciIGlkPSJyZWN0MTU3OTgtMy00IiBzdHlsZT0iZmlsbDojYWRiYWM3O2ZpbGwtb3BhY2l0eToxO2ZpbGwtcnVsZTpldmVub2RkO3N0cm9rZTpub25lO3N0cm9rZS13aWR0aDowLjk4NTMwNDtzdHJva2Utb3BhY2l0eToxIi8+JiN4YTsgICAgICAgIDwvZz4mI3hhOyAgICAgICAgPHJlY3Qgcnk9IjYuMzkxOTk5MiIgeT0iNTUuMjA4ODE3IiB4PSI2ODAuMDY3MzgiIGhlaWdodD0iMTM0LjgzNDIiIHdpZHRoPSIyNyIgaWQ9InJlY3QxNTgwMi0zLTIiIHN0eWxlPSJmaWxsOiNhZGJhYzc7ZmlsbC1vcGFjaXR5OjE7ZmlsbC1ydWxlOmV2ZW5vZGQ7c3Ryb2tlOm5vbmU7c3Ryb2tlLXdpZHRoOjAuOTg1MzA0O3N0cm9rZS1vcGFjaXR5OjEiLz4mI3hhOyAgICAgICAgPHJlY3Qgcnk9IjYuMzkxOTk5MiIgeT0iOTAuNjkxODQ5IiB4PSI3MTkuODE4ODUiIGhlaWdodD0iOTUuNDAwMTkyIiB3aWR0aD0iMjciIGlkPSJyZWN0MTU4MDQtNC04IiBzdHlsZT0iZmlsbDojYWRiYWM3O2ZpbGwtb3BhY2l0eToxO2ZpbGwtcnVsZTpldmVub2RkO3N0cm9rZTpub25lO3N0cm9rZS13aWR0aDowLjk4NTMwNDtzdHJva2Utb3BhY2l0eToxIi8+JiN4YTsgICAgICAgIDxyZWN0IHJ5PSI2LjM5MTk5OTIiIHk9IjEzNi4wNDMxMSIgeD0iNzU5LjI1NzMyIiBoZWlnaHQ9IjM2LjI1Mzg3NiIgd2lkdGg9IjI3IiBpZD0icmVjdDE1ODA2LTEtNyIgc3R5bGU9ImZpbGw6I2FkYmFjNztmaWxsLW9wYWNpdHk6MTtmaWxsLXJ1bGU6ZXZlbm9kZDtzdHJva2U6bm9uZTtzdHJva2Utd2lkdGg6MC45ODUzMDQ7c3Ryb2tlLW9wYWNpdHk6MSIvPiYjeGE7ICAgICAgPC9nPiYjeGE7ICAgIDwvY2xpcFBhdGg+JiN4YTsgIDwvZGVmcz4mI3hhOyAgJiN4YTsgIDxtZXRhZGF0YSBpZD0ibWV0YWRhdGExNzYzIj4mI3hhOyAgICAmI3hhOyAgICAgICYjeGE7ICAgICAgICBpbWFnZS9zdmcreG1sJiN4YTsgICAgICAgICYjeGE7ICAgICAgJiN4YTsgICAgJiN4YTsgIDwvbWV0YWRhdGE+JiN4YTsgIDxnIHRyYW5zZm9ybT0idHJhbnNsYXRlKC01Mi4xNzA3ODQsMTM5LjEzMDQ4KSIgaWQ9ImxheWVyMSI+JiN4YTsgICAgPHJlY3Qgcnk9IjguMDE4MDg1NSIgeT0iLTEzOS4wMDgzMyIgeD0iNTIuMjkyOTMxIiBoZWlnaHQ9IjExOS43NTU3MSIgd2lkdGg9IjUxOS43NTU2OCIgaWQ9InJlY3QxNjQyNC04LTAiIHN0eWxlPSJmaWxsOiMyNDI5MmU7ZmlsbC1vcGFjaXR5OjE7c3Ryb2tlOiMyNDI5MmU7c3Ryb2tlLXdpZHRoOjAuMjQ0Mjk0O3N0cm9rZS1vcGFjaXR5OjEiLz4mI3hhOyAgICA8cGF0aCBzdHlsZT0iZm9udC1zaXplOjkwLjMxMTFweDstaW5rc2NhcGUtZm9udC1zcGVjaWZpY2F0aW9uOnNhbnMtc2VyaWY7ZmlsbDojYWRiYWM3O2ZpbGwtb3BhY2l0eToxO3N0cm9rZS13aWR0aDowLjI2NDU4MyIgaWQ9InBhdGgxMjcwOS03LTEiIGQ9Im0gMzM4LjA0ODI3LC04MC43NjIwODIgcSAwLDUuOTk3MjIxIC0xLjcxOTc5LDEwLjk4MDIwNyAtMS43MTk4LDQuOTM4ODg4IC00Ljg1MDcsOC4zNzg0NzEgLTIuOTEwNDEsMy4yNjMxOTMgLTYuODc5MTYsNS4wNzExNzkgLTMuOTI0NjYsMS43NjM4ODkgLTguMzM0MzgsMS43NjM4ODkgLTMuODM2NDYsMCAtNi45NjczNiwtMC44Mzc4NDcgLTMuMDg2OCwtMC44Mzc4NDcgLTYuMzA1OSwtMi42MDE3MzYgdiAyMC42Mzc1IGggLTguMjkwMjggdiAtNjcuNDI0NjQxIGggOC4yOTAyOCB2IDUuMTU5MzcgcSAzLjMwNzI5LC0yLjc3ODEyIDcuNDA4MzMsLTQuNjMwMjEgNC4xNDUxNCwtMS44OTYxOCA4LjgxOTQ1LC0xLjg5NjE4IDguOTA3NjMsMCAxMy44NDY1Miw2Ljc0Njg3NiA0Ljk4Mjk5LDYuNzAyNzc3IDQuOTgyOTksMTguNjUzMTIyIHogbSAtOC41NTQ4NiwwLjIyMDQ4NiBxIDAsLTguOTA3NjM3IC0zLjA0MjcxLC0xMy4zMTczNTkgLTMuMDQyNzEsLTQuNDA5NzIxIC05LjM0ODYxLC00LjQwOTcyMSAtMy41NzE4OCwwIC03LjE4Nzg1LDEuNTQzNDAyIC0zLjYxNTk3LDEuNTQzNDAzIC02LjkyMzI2LDQuMDU2OTQ0IHYgMjcuOTEzNTM3IHEgMy41Mjc3OCwxLjU4NzUgNi4wNDEzMiwyLjE2MDc2NCAyLjU1NzY0LDAuNTczMjY0IDUuNzc2NzMsMC41NzMyNjQgNi45MjMyNywwIDEwLjgwMzgyLC00LjY3NDMwNSAzLjg4MDU2LC00LjY3NDMwNSAzLjg4MDU2LC0xMy44NDY1MjYgeiIvPiYjeGE7ICAgIDxwYXRoIHN0eWxlPSJmb250LXNpemU6OTAuMzExMXB4Oy1pbmtzY2FwZS1mb250LXNwZWNpZmljYXRpb246c2Fucy1zZXJpZjtmaWxsOiNhZGJhYzc7ZmlsbC1vcGFjaXR5OjE7c3Ryb2tlLXdpZHRoOjAuMjY0NTgzIiBpZD0icGF0aDEyNzExLTYtOCIgZD0ibSAzOTIuOTQ5MywtODAuMTQ0NzIxIHEgMCwxMi4wMzg1NCAtNi4xNzM2MSwxOS4wMDU5IC02LjE3MzYxLDYuOTY3MzYgLTE2LjUzNjQ2LDYuOTY3MzYgLTEwLjQ1MTA0LDAgLTE2LjYyNDY1LC02Ljk2NzM2IC02LjEyOTUxLC02Ljk2NzM2IC02LjEyOTUxLC0xOS4wMDU5IDAsLTEyLjAzODUzOSA2LjEyOTUxLC0xOS4wMDU4OTkgNi4xNzM2MSwtNy4wMTE0NiAxNi42MjQ2NSwtNy4wMTE0NiAxMC4zNjI4NSwwIDE2LjUzNjQ2LDcuMDExNDYgNi4xNzM2MSw2Ljk2NzM2IDYuMTczNjEsMTkuMDA1ODk5IHogbSAtOC41NTQ4NiwwIHEgMCwtOS41NjkwOTUgLTMuNzQ4MjYsLTE0LjE5OTMwMyAtMy43NDgyNywtNC42NzQzMDUgLTEwLjQwNjk1LC00LjY3NDMwNSAtNi43NDY4NywwIC0xMC40OTUxMyw0LjY3NDMwNSAtMy43MDQxNyw0LjYzMDIwOCAtMy43MDQxNywxNC4xOTkzMDMgMCw5LjI2MDQxNSAzLjc0ODI2LDE0LjA2NzAxMiAzLjc0ODI3LDQuNzYyNDk5IDEwLjQ1MTA0LDQuNzYyNDk5IDYuNjE0NTksMCAxMC4zNjI4NSwtNC43MTg0MDIgMy43OTIzNiwtNC43NjI0OTkgMy43OTIzNiwtMTQuMTExMTA5IHoiLz4mI3hhOyAgICA8cGF0aCBzdHlsZT0iZm9udC1zaXplOjkwLjMxMTFweDstaW5rc2NhcGUtZm9udC1zcGVjaWZpY2F0aW9uOnNhbnMtc2VyaWY7ZmlsbDojYWRiYWM3O2ZpbGwtb3BhY2l0eToxO3N0cm9rZS13aWR0aDowLjI2NDU4MyIgaWQ9InBhdGgxMjcxMy05LTY1IiBkPSJtIDQxNC4xNjAwNiwtNTUuNTM4NDc1IGggLTguMjkwMjcgdiAtNjguNjE1MjY1IGggOC4yOTAyNyB6Ii8+JiN4YTsgICAgPHBhdGggc3R5bGU9ImZvbnQtc2l6ZTo5MC4zMTExcHg7LWlua3NjYXBlLWZvbnQtc3BlY2lmaWNhdGlvbjpzYW5zLXNlcmlmO2ZpbGw6I2FkYmFjNztmaWxsLW9wYWNpdHk6MTtzdHJva2Utd2lkdGg6MC4yNjQ1ODMiIGlkPSJwYXRoMTI3MTUtOS0xIiBkPSJtIDQ2OC44NDA1OCwtNTUuNTM4NDc1IGggLTguMjQ2MiB2IC01LjI0NzU2OCBxIC0xLjEwMjQsMC43NDk2NTIgLTIuOTk4NiwyLjExNjY2NiAtMS44NTIsMS4zMjI5MTYgLTMuNjE1OSwyLjExNjY2NiAtMi4wNzI2LDEuMDE0MjM2IC00Ljc2MjUsMS42NzU2OTQgLTIuNjg5OTYsMC43MDU1NTYgLTYuMzA1OTMsMC43MDU1NTYgLTYuNjU4NjgsMCAtMTEuMjg4ODksLTQuNDA5NzIyIC00LjYzMDIsLTQuNDA5NzIxIC00LjYzMDIsLTExLjI0NDc5IDAsLTUuNjAwMzQ2IDIuMzgxMjQsLTkuMDM5OTI5IDIuNDI1MzUsLTMuNDgzNjggNi44NzkxNywtNS40NjgwNTQgNC40OTc5MiwtMS45ODQzNzUgMTAuODAzODIsLTIuNjg5OTMgNi4zMDU4OSwtMC43MDU1NTYgMTMuNTM3NzksLTEuMDU4MzM0IHYgLTEuMjc4ODE5IHEgMCwtMi44MjIyMjEgLTEuMDE0MiwtNC42NzQzMDUgLTAuOTcwMSwtMS44NTIwODMgLTIuODIyMiwtMi45MTA0MTYgLTEuNzYzOSwtMS4wMTQyMzYgLTQuMjMzMywtMS4zNjcwMTMgLTIuNDY5NSwtMC4zNTI3NzggLTUuMTU5NDEsLTAuMzUyNzc4IC0zLjI2MzIsMCAtNy4yNzYwNCwwLjg4MTk0NCAtNC4wMTI4NSwwLjgzNzg0NyAtOC4yOTAyOCwyLjQ2OTQ0NCBoIC0wLjQ0MDk3IHYgLTguNDIyNTY3IHEgMi40MjUzNSwtMC42NjE0NiA3LjAxMTQ2LC0xLjQ1NTIxIDQuNTg2MTEsLTAuNzkzNzUgOS4wMzk5MywtMC43OTM3NSA1LjIwMzUxLDAgOS4wMzk5MSwwLjg4MTk1IDMuODgwNiwwLjgzNzg0IDYuNzAyOCwyLjkxMDQxIDIuNzc4MSwyLjAyODQ3IDQuMjMzMyw1LjI0NzU3IDEuNDU1MiwzLjIxOTA5NyAxLjQ1NTIsNy45ODE1OTYgeiBtIC04LjI0NjIsLTEyLjEyNjczNCB2IC0xMy43MTQyMzQgcSAtMy43OTIzLDAuMjIwNDg2IC04Ljk1MTcsMC42NjE0NTggLTUuMTE1MjYsMC40NDA5NzMgLTguMTEzODcsMS4yNzg4MiAtMy41NzE4NywxLjAxNDIzNiAtNS43NzY3MywzLjE3NDk5OSAtMi4yMDQ4NywyLjExNjY2NiAtMi4yMDQ4Nyw1Ljg2NDkzIDAsNC4yMzMzMzIgMi41NTc2NCw2LjM5NDA5NiAyLjU1NzY0LDIuMTE2NjY2IDcuODA1MjEsMi4xMTY2NjYgNC4zNjU2MiwwIDcuOTgxNjIsLTEuNjc1Njk0IDMuNjE1OSwtMS43MTk3OTEgNi43MDI3LC00LjEwMTA0MSB6Ii8+JiN4YTsgICAgPHBhdGggaWQ9InBhdGgxMjcxNy01LTYwIiBzdHlsZT0iZm9udC1zaXplOjkwLjMxMTFweDstaW5rc2NhcGUtZm9udC1zcGVjaWZpY2F0aW9uOnNhbnMtc2VyaWY7ZmlsbDojY2Q3OTJjO3N0cm9rZS13aWR0aDowLjI2NDU4MyIgZD0ibSA1MTUuNTM5NTgsLTk1Ljc1NTEzNSBoIC0wLjQ0MSBxIC0xLjg1MjEsLTAuNDQwOTcyIC0zLjYxNiwtMC42MTczNjEgLTEuNzE5OCwtMC4yMjA0ODYgLTQuMTAxLC0wLjIyMDQ4NiAtMy44MzY1LDAgLTcuNDA4MywxLjcxOTc5MSAtMy41NzE5LDEuNjc1Njk1IC02Ljg3OTIsNC4zNjU2MjUgdiAzNC45NjkwOTEgaCAtOC4yOTAzIHYgLTQ5LjI1NjU4NSBoIDguMjkwMyB2IDcuMjc2MDM3IHEgNC45Mzg5LC0zLjk2ODc0NyA4LjY4NzEsLTUuNjAwMzQ3IDMuNzkyNCwtMS42NzU2OSA3LjcxNzEsLTEuNjc1NjkgMi4xNjA3LDAgMy4xMzA5LDAuMTMyMjkgMC45NzAxLDAuMDg4MiAyLjkxMDQsMC4zOTY4NyB6Ii8+JiN4YTsgICAgPGcgdHJhbnNmb3JtPSJtYXRyaXgoMC4yNjQ1ODMzMywwLDAsMC4yNjQ1ODMzMyw2NS44MDcyMDUsLTEzMC44Nzc2MykiIHN0eWxlPSJmaWxsOiNhZGJhYzc7ZmlsbC1vcGFjaXR5OjE7c3Ryb2tlOm5vbmU7c3Ryb2tlLW9wYWNpdHk6MSIgaWQ9ImcxOTcyLTAtNy01Ij4mI3hhOyAgICAgIDxyZWN0IHJ5PSI0LjQyMDczODIiIHk9IjI5My44NzQ1MSIgeD0iLTIuODEyNWUtMDUiIGhlaWdodD0iNzYuMTEyMDYxIiB3aWR0aD0iMjciIGlkPSJyZWN0MTcwMC03LTYyLTAtMCIgc3R5bGU9ImZpbGw6I2FkYmFjNztmaWxsLW9wYWNpdHk6MTtmaWxsLXJ1bGU6ZXZlbm9kZDtzdHJva2U6bm9uZTtzdHJva2Utd2lkdGg6MC45ODQ1Mjg7c3Ryb2tlLW9wYWNpdHk6MSIvPiYjeGE7ICAgICAgPGcgc3R5bGU9ImZpbGw6I2FkYmFjNztmaWxsLW9wYWNpdHk6MTtzdHJva2U6bm9uZTtzdHJva2Utb3BhY2l0eToxIiB0cmFuc2Zvcm09InRyYW5zbGF0ZSgtMTUuNDkyNSwtMTMuNDI2NTMpIiBpZD0iZzI3NDEtNi04LTQiPiYjeGE7ICAgICAgICA8cmVjdCByeT0iNi4zOTE5NjQiIHk9IjIxOC45MDIwOCIgeD0iNTUuNSIgaGVpZ2h0PSI5NC43OTY1MDkiIHdpZHRoPSIyNyIgaWQ9InJlY3QxNzAwLTYtMS05LTUiIHN0eWxlPSJmaWxsOiNhZGJhYzc7ZmlsbC1vcGFjaXR5OjE7ZmlsbC1ydWxlOmV2ZW5vZGQ7c3Ryb2tlOm5vbmU7c3Ryb2tlLXdpZHRoOjAuOTg0ODQ5O3N0cm9rZS1vcGFjaXR5OjEiLz4mI3hhOyAgICAgICAgPHJlY3Qgcnk9IjQuNDIwNzQ0OSIgeT0iMzI0LjUyMjE2IiB4PSI1NS41IiBoZWlnaHQ9IjgwLjA2MzkzNCIgd2lkdGg9IjI3IiBpZD0icmVjdDE3MDAtNy0zLTgtMS00NSIgc3R5bGU9ImZpbGw6I2FkYmFjNztmaWxsLW9wYWNpdHk6MTtmaWxsLXJ1bGU6ZXZlbm9kZDtzdHJva2U6bm9uZTtzdHJva2Utd2lkdGg6MC45NzA2NzI7c3Ryb2tlLW9wYWNpdHk6MSIvPiYjeGE7ICAgICAgPC9nPiYjeGE7ICAgICAgPGcgc3R5bGU9ImZpbGw6I2FkYmFjNztmaWxsLW9wYWNpdHk6MTtzdHJva2U6bm9uZTtzdHJva2Utb3BhY2l0eToxIiB0cmFuc2Zvcm09InRyYW5zbGF0ZSgtMTUuNSwtMTMuNDI2NTMpIiBpZD0iZzI3NDYtNy0zLTIiPiYjeGE7ICAgICAgICA8cmVjdCByeT0iNC40MjA3NDMiIHk9IjEyOS42NjU5MSIgeD0iOTUuNTE0OTc3IiBoZWlnaHQ9IjE0Mi4yMTQ2NSIgd2lkdGg9IjI3IiBpZD0icmVjdDE3MDAtMy05LTYtMiIgc3R5bGU9ImZpbGw6I2FkYmFjNztmaWxsLW9wYWNpdHk6MTtmaWxsLXJ1bGU6ZXZlbm9kZDtzdHJva2U6bm9uZTtzdHJva2Utd2lkdGg6MC45ODQ4NDk7c3Ryb2tlLW9wYWNpdHk6MSIvPiYjeGE7ICAgICAgICA8cmVjdCByeT0iNC40MjA3MzgyIiB5PSIyODQuNDExODMiIHg9Ijk1LjUxNDk3NyIgaGVpZ2h0PSI1MC4yMDU4NzIiIHdpZHRoPSIyNyIgaWQ9InJlY3QxNzAwLTctNS0yLTUtNCIgc3R5bGU9ImZpbGw6I2FkYmFjNztmaWxsLW9wYWNpdHk6MTtmaWxsLXJ1bGU6ZXZlbm9kZDtzdHJva2U6bm9uZTtzdHJva2Utd2lkdGg6MS4wMDY0OTtzdHJva2Utb3BhY2l0eToxIi8+JiN4YTsgICAgICAgIDxyZWN0IHJ5PSI2LjM5MTk5OTIiIHk9IjM2OC4zMzIyMSIgeD0iOTUuNTE0OTc3IiBoZWlnaHQ9IjM2LjI1Mzg3NiIgd2lkdGg9IjI3IiBpZD0icmVjdDE3MDAtNy01Ni0wMi0yLTgiIHN0eWxlPSJmaWxsOiNhZGJhYzc7ZmlsbC1vcGFjaXR5OjE7ZmlsbC1ydWxlOmV2ZW5vZGQ7c3Ryb2tlOm5vbmU7c3Ryb2tlLXdpZHRoOjAuOTg1MzA0O3N0cm9rZS1vcGFjaXR5OjEiLz4mI3hhOyAgICAgIDwvZz4mI3hhOyAgICAgIDxnIHN0eWxlPSJmaWxsOiNhZGJhYzc7ZmlsbC1vcGFjaXR5OjE7c3Ryb2tlOm5vbmU7c3Ryb2tlLW9wYWNpdHk6MSIgdHJhbnNmb3JtPSJ0cmFuc2xhdGUoLTE1LjQ3NzUsLTEzLjQyNjUzKSIgaWQ9ImcyNzUwLTMtNC0wIj4mI3hhOyAgICAgICAgPHJlY3Qgcnk9IjQuNDIwNzUwNiIgeT0iNjYuNDExMTg2IiB4PSIxMzUuNSIgaGVpZ2h0PSIxMDMuMTczMDEiIHdpZHRoPSIyNyIgaWQ9InJlY3QxNzAwLTc1LTUtMiIgc3R5bGU9ImZpbGw6I2FkYmFjNztmaWxsLW9wYWNpdHk6MTtmaWxsLXJ1bGU6ZXZlbm9kZDtzdHJva2U6bm9uZTtzdHJva2Utd2lkdGg6MC45ODQ4NDk7c3Ryb2tlLW9wYWNpdHk6MSIvPiYjeGE7ICAgICAgICA8cmVjdCByeT0iNC40MTEzNTAzIiB5PSIxODEuMDc5MjgiIHg9IjEzNS41IiBoZWlnaHQ9IjEzNi42ODM5NiIgd2lkdGg9IjI3IiBpZD0icmVjdDE3MDAtOS05LTUtNiIgc3R5bGU9ImZpbGw6I2FkYmFjNztmaWxsLW9wYWNpdHk6MTtmaWxsLXJ1bGU6ZXZlbm9kZDtzdHJva2U6bm9uZTtzdHJva2Utd2lkdGg6MC45ODQ4NDk7c3Ryb2tlLW9wYWNpdHk6MSIvPiYjeGE7ICAgICAgPC9nPiYjeGE7ICAgICAgPGcgc3R5bGU9ImZpbGw6I2FkYmFjNztmaWxsLW9wYWNpdHk6MTtzdHJva2U6bm9uZTtzdHJva2Utb3BhY2l0eToxIiB0cmFuc2Zvcm09InRyYW5zbGF0ZSgtMTUuOTc0OCwtMTMuNDI2NTMpIiBpZD0iZzI3NTUtMi0xLTQiPiYjeGE7ICAgICAgICA8cmVjdCByeT0iNC40MjA3NDY4IiB5PSI0Ni45NDU4MDUiIHg9IjE3NiIgaGVpZ2h0PSI3MS43NDU0MTUiIHdpZHRoPSIyNyIgaWQ9InJlY3QxNzAwLTctNTYtMi0yLTQtOTQiIHN0eWxlPSJmaWxsOiNhZGJhYzc7ZmlsbC1vcGFjaXR5OjE7ZmlsbC1ydWxlOmV2ZW5vZGQ7c3Ryb2tlOm5vbmU7c3Ryb2tlLXdpZHRoOjEuMDIxOTY7c3Ryb2tlLW9wYWNpdHk6MSIvPiYjeGE7ICAgICAgICA8cmVjdCByeT0iNC40MjA3NDMiIHk9IjEyOS43NTU4IiB4PSIxNzYuMDA5NDgiIGhlaWdodD0iOTkuMzUyMDQzIiB3aWR0aD0iMjciIGlkPSJyZWN0MTcwMC03LTU2LTctOC0wLTg2IiBzdHlsZT0iZmlsbDojYWRiYWM3O2ZpbGwtb3BhY2l0eToxO2ZpbGwtcnVsZTpldmVub2RkO3N0cm9rZTpub25lO3N0cm9rZS13aWR0aDoxLjAyMjMyO3N0cm9rZS1vcGFjaXR5OjEiLz4mI3hhOyAgICAgICAgPHJlY3Qgcnk9IjQuNDIwNzQzIiB5PSIyNDIuMTQwMDMiIHg9IjE3Ni4wMDk0OCIgaGVpZ2h0PSI5MC4xNTc2ODQiIHdpZHRoPSIyNyIgaWQ9InJlY3QxNzAwLTctNTYtMC05Ny0wLTUiIHN0eWxlPSJmaWxsOiNhZGJhYzc7ZmlsbC1vcGFjaXR5OjE7ZmlsbC1ydWxlOmV2ZW5vZGQ7c3Ryb2tlOm5vbmU7c3Ryb2tlLXdpZHRoOjEuMDIyMzI7c3Ryb2tlLW9wYWNpdHk6MSIvPiYjeGE7ICAgICAgPC9nPiYjeGE7ICAgICAgPGcgc3R5bGU9ImZpbGw6I2FkYmFjNztmaWxsLW9wYWNpdHk6MTtzdHJva2U6bm9uZTtzdHJva2Utb3BhY2l0eToxIiB0cmFuc2Zvcm09InRyYW5zbGF0ZSgtMTUuMTkxNCwtMTMuNDI2NTMpIiBpZD0iZzI4OTctMy01LTgiPiYjeGE7ICAgICAgICA8cmVjdCByeT0iNi4zOTE5OTkyIiB5PSIzMS4xNzAxMTUiIHg9IjIxNS4yMjg4NCIgaGVpZ2h0PSIxMzAuODkxNzIiIHdpZHRoPSIyNyIgaWQ9InJlY3QxNzAwLTctNTYtMy02MTItOS04IiBzdHlsZT0iZmlsbDojYWRiYWM3O2ZpbGwtb3BhY2l0eToxO2ZpbGwtcnVsZTpldmVub2RkO3N0cm9rZTpub25lO3N0cm9rZS13aWR0aDowLjk4NTMwNDtzdHJva2Utb3BhY2l0eToxIi8+JiN4YTsgICAgICAgIDxyZWN0IHJ5PSI2LjM5MTk5OTIiIHk9IjE3NS4wOTgwNSIgeD0iMjE1LjIyODg0IiBoZWlnaHQ9IjQwLjE5NjMzOSIgd2lkdGg9IjI3IiBpZD0icmVjdDE3MDAtNy01Ni0zLTYtOS01LTYiIHN0eWxlPSJmaWxsOiNhZGJhYzc7ZmlsbC1vcGFjaXR5OjE7ZmlsbC1ydWxlOmV2ZW5vZGQ7c3Ryb2tlOm5vbmU7c3Ryb2tlLXdpZHRoOjAuOTg1MzA0O3N0cm9rZS1vcGFjaXR5OjEiLz4mI3hhOyAgICAgICAgPHJlY3Qgcnk9IjYuMzkxOTk5MiIgeT0iMjI0LjQwMTk5IiB4PSIyMTUuMjI4ODQiIGhlaWdodD0iMTM0LjgzNDIxIiB3aWR0aD0iMjYuOTgxODYxIiBpZD0icmVjdDE3MDAtNy01Ni0zLTAtMy01LTYiIHN0eWxlPSJmaWxsOiNhZGJhYzc7ZmlsbC1vcGFjaXR5OjE7ZmlsbC1ydWxlOmV2ZW5vZGQ7c3Ryb2tlOm5vbmU7c3Ryb2tlLXdpZHRoOjAuOTg1MzA0O3N0cm9rZS1vcGFjaXR5OjEiLz4mI3hhOyAgICAgIDwvZz4mI3hhOyAgICAgIDxnIHN0eWxlPSJmaWxsOiNhZGJhYzc7ZmlsbC1vcGFjaXR5OjE7c3Ryb2tlOm5vbmU7c3Ryb2tlLW9wYWNpdHk6MSIgdHJhbnNmb3JtPSJ0cmFuc2xhdGUoLTE0LjYwODQsLTEzLjQyNjUzKSIgaWQ9ImcyOTAzLTEtMy03Ij4mI3hhOyAgICAgICAgPHJlY3Qgcnk9IjYuMzkxOTk5MiIgeT0iMTUuNDAxNjg4IiB4PSIyNTQuNjUzMjQiIGhlaWdodD0iMzYuMjUzODc2IiB3aWR0aD0iMjciIGlkPSJyZWN0MTcwMC03LTU2LTMtNjItOS05LTEiIHN0eWxlPSJmaWxsOiNhZGJhYzc7ZmlsbC1vcGFjaXR5OjE7ZmlsbC1ydWxlOmV2ZW5vZGQ7c3Ryb2tlOm5vbmU7c3Ryb2tlLXdpZHRoOjAuOTg1MzA0O3N0cm9rZS1vcGFjaXR5OjEiLz4mI3hhOyAgICAgICAgPHJlY3Qgcnk9IjYuMzkxOTk5MiIgeT0iNjIuNzEzNjM0IiB4PSIyNTQuNjUzMjQiIGhlaWdodD0iMTkzLjk4OTkzIiB3aWR0aD0iMjcuMDAwMDE1IiBpZD0icmVjdDE3MDAtNy01Ni0zLTYxLTQtNC04IiBzdHlsZT0iZmlsbDojYWRiYWM3O2ZpbGwtb3BhY2l0eToxO2ZpbGwtcnVsZTpldmVub2RkO3N0cm9rZTpub25lO3N0cm9rZS13aWR0aDowLjk4NTMwNDtzdHJva2Utb3BhY2l0eToxIi8+JiN4YTsgICAgICAgIDxyZWN0IHJ5PSI2LjM5MTk5OTIiIHk9IjI2OS43NDQ0NSIgeD0iMjU0LjY1MzI0IiBoZWlnaHQ9IjYxLjg3OTg2OCIgd2lkdGg9IjI3LjAwMDAxNSIgaWQ9InJlY3QxNzAwLTctNTYtMy04LTctNy04MiIgc3R5bGU9ImZpbGw6I2FkYmFjNztmaWxsLW9wYWNpdHk6MTtmaWxsLXJ1bGU6ZXZlbm9kZDtzdHJva2U6bm9uZTtzdHJva2Utd2lkdGg6MC45ODUzMDQ7c3Ryb2tlLW9wYWNpdHk6MSIvPiYjeGE7ICAgICAgICA8cmVjdCByeT0iNi4zOTE5OTkyIiB5PSIzNDQuNjc0MTYiIHg9IjI1NC42NTMyNCIgaGVpZ2h0PSI0NC4xMzg4MDIiIHdpZHRoPSIyNy4wMDAwMTUiIGlkPSJyZWN0MTcwMC03LTU2LTMtNy04LTctOCIgc3R5bGU9ImZpbGw6I2FkYmFjNztmaWxsLW9wYWNpdHk6MTtmaWxsLXJ1bGU6ZXZlbm9kZDtzdHJva2U6bm9uZTtzdHJva2Utd2lkdGg6MC45ODUzMDQ7c3Ryb2tlLW9wYWNpdHk6MSIvPiYjeGE7ICAgICAgPC9nPiYjeGE7ICAgICAgPGcgc3R5bGU9ImZpbGw6I2FkYmFjNztmaWxsLW9wYWNpdHk6MTtzdHJva2U6bm9uZTtzdHJva2Utb3BhY2l0eToxIiB0cmFuc2Zvcm09InRyYW5zbGF0ZSgtMTYuMDA3MSwtMTMuNDI2NTMpIiBpZD0iZzI5MTYtNC00LTciPiYjeGE7ICAgICAgICA8cmVjdCByeT0iNi4zOTE5OTkyIiB5PSIzMzQuODAyNDkiIHg9IjI5Ni4wNTkzIiBoZWlnaHQ9IjY5Ljc4MzYiIHdpZHRoPSIyNyIgaWQ9InJlY3QxNzAwLTctNTYtMy05LTUtNC02IiBzdHlsZT0iZmlsbDojYWRiYWM3O2ZpbGwtb3BhY2l0eToxO2ZpbGwtcnVsZTpldmVub2RkO3N0cm9rZTpub25lO3N0cm9rZS13aWR0aDowLjk4NTMwNDtzdHJva2Utb3BhY2l0eToxIi8+JiN4YTsgICAgICAgIDxyZWN0IHJ5PSI2LjM5MTk5OTIiIHk9IjEzNy42NDg5OSIgeD0iMjk2LjA1OTMiIGhlaWdodD0iMTUyLjU3NTI5IiB3aWR0aD0iMjciIGlkPSJyZWN0MTcwMC03LTU2LTMtMDItMC0xLTQiIHN0eWxlPSJmaWxsOiNhZGJhYzc7ZmlsbC1vcGFjaXR5OjE7ZmlsbC1ydWxlOmV2ZW5vZGQ7c3Ryb2tlOm5vbmU7c3Ryb2tlLXdpZHRoOjAuOTg1MzA0O3N0cm9rZS1vcGFjaXR5OjEiLz4mI3hhOyAgICAgICAgPHJlY3Qgcnk9IjYuMzkxOTk5MiIgeT0iMTMuNDI2NTMiIHg9IjI5Ni4wNTkzIiBoZWlnaHQ9IjExMS4xNzAwMyIgd2lkdGg9IjI3IiBpZD0icmVjdDE3MDAtNy01Ni0zLTMtMzYtOC01MSIgc3R5bGU9ImZpbGw6I2FkYmFjNztmaWxsLW9wYWNpdHk6MTtmaWxsLXJ1bGU6ZXZlbm9kZDtzdHJva2U6bm9uZTtzdHJva2Utd2lkdGg6MC45ODUzMDQ7c3Ryb2tlLW9wYWNpdHk6MSIvPiYjeGE7ICAgICAgPC9nPiYjeGE7ICAgICAgPGcgc3R5bGU9ImZpbGw6I2FkYmFjNztmaWxsLW9wYWNpdHk6MTtzdHJva2U6bm9uZTtzdHJva2Utb3BhY2l0eToxIiB0cmFuc2Zvcm09InRyYW5zbGF0ZSgtMTUuNDI0NSwtMTMuNDI2NTMpIiBpZD0iZzI5MjEtMS0xLTgyIj4mI3hhOyAgICAgICAgPHJlY3Qgcnk9IjYuMzkxOTk5MiIgeT0iMzY0LjM4OTc3IiB4PSIzMzUuNDg0MDQiIGhlaWdodD0iNDAuMTk2MzIiIHdpZHRoPSIyNyIgaWQ9InJlY3QxNzAwLTctNTYtMy0yLTAtMi00IiBzdHlsZT0iZmlsbDojYWRiYWM3O2ZpbGwtb3BhY2l0eToxO2ZpbGwtcnVsZTpldmVub2RkO3N0cm9rZTpub25lO3N0cm9rZS13aWR0aDowLjk4NTMwNDtzdHJva2Utb3BhY2l0eToxIi8+JiN4YTsgICAgICAgIDxyZWN0IHJ5PSI2LjM5MTk5OTIiIHk9IjE1LjM5ODk2MiIgeD0iMzM1LjQ4NDA0IiBoZWlnaHQ9IjE4MC4xODE5IiB3aWR0aD0iMjciIGlkPSJyZWN0MTcwMC03LTU2LTMtNzUtNi0xLTc0IiBzdHlsZT0iZmlsbDojYWRiYWM3O2ZpbGwtb3BhY2l0eToxO2ZpbGwtcnVsZTpldmVub2RkO3N0cm9rZTpub25lO3N0cm9rZS13aWR0aDowLjk4NTMwNDtzdHJva2Utb3BhY2l0eToxIi8+JiN4YTsgICAgICAgIDxyZWN0IHJ5PSI2LjM5MTk5OTIiIHk9IjIwOC42MjYyMiIgeD0iMzM1LjQ4NDA0IiBoZWlnaHQ9IjgxLjYwMTU4NSIgd2lkdGg9IjI3IiBpZD0icmVjdDE3MDAtNy01Ni0zLTkyLTMtMi00IiBzdHlsZT0iZmlsbDojYWRiYWM3O2ZpbGwtb3BhY2l0eToxO2ZpbGwtcnVsZTpldmVub2RkO3N0cm9rZTpub25lO3N0cm9rZS13aWR0aDowLjk4NTMwNDtzdHJva2Utb3BhY2l0eToxIi8+JiN4YTsgICAgICA8L2c+JiN4YTsgICAgICA8ZyBzdHlsZT0iZmlsbDojYWRiYWM3O2ZpbGwtb3BhY2l0eToxO3N0cm9rZTpub25lO3N0cm9rZS1vcGFjaXR5OjEiIHRyYW5zZm9ybT0idHJhbnNsYXRlKC0xNC44NjAzLC0xMy40MjY1MykiIGlkPSJnMjkyNS0yLTUtNCI+JiN4YTsgICAgICAgIDxyZWN0IHJ5PSI2LjM5MTk5OTIiIHk9IjIzLjI4NDUyNyIgeD0iMzc0LjkyNzU1IiBoZWlnaHQ9IjU5LjkwODY0OSIgd2lkdGg9IjI3IiBpZD0icmVjdDE3MDAtNy01Ni0zLTI4LTA2LTYtMSIgc3R5bGU9ImZpbGw6I2FkYmFjNztmaWxsLW9wYWNpdHk6MTtmaWxsLXJ1bGU6ZXZlbm9kZDtzdHJva2U6bm9uZTtzdHJva2Utd2lkdGg6MC45ODUzMDQ7c3Ryb2tlLW9wYWNpdHk6MSIvPiYjeGE7ICAgICAgICA8cmVjdCByeT0iNi4zOTE5OTkyIiB5PSI5Ni4yMjk4NTgiIHg9IjM3NC45Mjc1NSIgaGVpZ2h0PSIxOTMuOTgwNTUiIHdpZHRoPSIyNyIgaWQ9InJlY3QxNzAwLTctNTYtMy05Ny0xLTMtOSIgc3R5bGU9ImZpbGw6I2FkYmFjNztmaWxsLW9wYWNpdHk6MTtmaWxsLXJ1bGU6ZXZlbm9kZDtzdHJva2U6bm9uZTtzdHJva2Utd2lkdGg6MC45ODUzMDQ7c3Ryb2tlLW9wYWNpdHk6MSIvPiYjeGE7ICAgICAgPC9nPiYjeGE7ICAgICAgPGcgdHJhbnNmb3JtPSJ0cmFuc2xhdGUoLTE1LjkzMjcsLTEzLjQyNjUzKSIgc3R5bGU9ImZpbGw6I2FkYmFjNztmaWxsLW9wYWNpdHk6MTtzdHJva2U6bm9uZTtzdHJva2Utb3BhY2l0eToxIiBpZD0iZzMwMzMtNS03LTMiPiYjeGE7ICAgICAgICA8cmVjdCByeT0iNi4zOTE5OTkyIiB5PSIyNy4yMjk1NTciIHg9IjQxNiIgaGVpZ2h0PSIxMTcuMDkzMTEiIHdpZHRoPSIyNyIgaWQ9InJlY3QxNzAwLTctNTYtMy0zNi01LTQtNCIgc3R5bGU9ImZpbGw6I2FkYmFjNztmaWxsLW9wYWNpdHk6MTtmaWxsLXJ1bGU6ZXZlbm9kZDtzdHJva2U6bm9uZTtzdHJva2Utd2lkdGg6MC45ODUzMDQ7c3Ryb2tlLW9wYWNpdHk6MSIvPiYjeGE7ICAgICAgICA8cmVjdCByeT0iNi4zOTE5OTkyIiB5PSIxNTcuMzY0OTciIHg9IjQxNiIgaGVpZ2h0PSI5OS4zNTIwNDMiIHdpZHRoPSIyNyIgaWQ9InJlY3QxNzAwLTctNTYtMy0yOS00LTktMSIgc3R5bGU9ImZpbGw6I2FkYmFjNztmaWxsLW9wYWNpdHk6MTtmaWxsLXJ1bGU6ZXZlbm9kZDtzdHJva2U6bm9uZTtzdHJva2Utd2lkdGg6MC45ODUzMDQ7c3Ryb2tlLW9wYWNpdHk6MSIvPiYjeGE7ICAgICAgICA8cmVjdCByeT0iNi4zOTE5OTkyIiB5PSIyNjkuNzM3OTIiIHg9IjQxNiIgaGVpZ2h0PSI1Mi4wMjM3MjQiIHdpZHRoPSIyNyIgaWQ9InJlY3QxNzAwLTctNTYtMy0zMS03LTUtNCIgc3R5bGU9ImZpbGw6I2FkYmFjNztmaWxsLW9wYWNpdHk6MTtmaWxsLXJ1bGU6ZXZlbm9kZDtzdHJva2U6bm9uZTtzdHJva2Utd2lkdGg6MC45ODUzMDQ7c3Ryb2tlLW9wYWNpdHk6MSIvPiYjeGE7ICAgICAgPC9nPiYjeGE7ICAgICAgPGcgdHJhbnNmb3JtPSJ0cmFuc2xhdGUoLTE1LjkzMjcsLTEzLjQyNjUzKSIgc3R5bGU9ImZpbGw6I2FkYmFjNztmaWxsLW9wYWNpdHk6MTtzdHJva2U6bm9uZTtzdHJva2Utb3BhY2l0eToxIiBpZD0iZzMwMjgtNi0wLTkiPiYjeGE7ICAgICAgICA8cmVjdCByeT0iNi4zOTE5OTkyIiB5PSIzMy4xNTEzMSIgeD0iNDU1Ljc2MzUyIiBoZWlnaHQ9IjE3NC4yNjgyIiB3aWR0aD0iMjciIGlkPSJyZWN0MTcwMC03LTU2LTMtMS01LTYtNSIgc3R5bGU9ImZpbGw6I2FkYmFjNztmaWxsLW9wYWNpdHk6MTtmaWxsLXJ1bGU6ZXZlbm9kZDtzdHJva2U6bm9uZTtzdHJva2Utd2lkdGg6MC45ODUzMDQ7c3Ryb2tlLW9wYWNpdHk6MSIvPiYjeGE7ICAgICAgICA8cmVjdCByeT0iNi4zOTE5OTkyIiB5PSIyMjAuNDU5IiB4PSI0NTUuNzYzNTIiIGhlaWdodD0iMTQwLjc0Nzg5IiB3aWR0aD0iMjciIGlkPSJyZWN0MTcwMC03LTU2LTMtOTQtNjktNC02MCIgc3R5bGU9ImZpbGw6I2FkYmFjNztmaWxsLW9wYWNpdHk6MTtmaWxsLXJ1bGU6ZXZlbm9kZDtzdHJva2U6bm9uZTtzdHJva2Utd2lkdGg6MC45ODUzMDQ7c3Ryb2tlLW9wYWNpdHk6MSIvPiYjeGE7ICAgICAgPC9nPiYjeGE7ICAgICAgPGcgdHJhbnNmb3JtPSJ0cmFuc2xhdGUoLTE1LjkzMjcsLTEzLjQyNjUzKSIgc3R5bGU9ImZpbGw6I2FkYmFjNztmaWxsLW9wYWNpdHk6MTtzdHJva2U6bm9uZTtzdHJva2Utb3BhY2l0eToxIiBpZD0iZzMwMzgtMy0zLTYiPiYjeGE7ICAgICAgICA8cmVjdCByeT0iNi4zOTE5OTkyIiB5PSIyNy4yMzI0NiIgeD0iNDk1LjUiIGhlaWdodD0iODEuNjAxNTc4IiB3aWR0aD0iMjciIGlkPSJyZWN0MTcwMC03LTU2LTMtNzgtNy0xLTM2IiBzdHlsZT0iZmlsbDojYWRiYWM3O2ZpbGwtb3BhY2l0eToxO2ZpbGwtcnVsZTpldmVub2RkO3N0cm9rZTpub25lO3N0cm9rZS13aWR0aDowLjk4NTMwNDtzdHJva2Utb3BhY2l0eToxIi8+JiN4YTsgICAgICAgIDxyZWN0IHJ5PSI2LjM5MTk5OTIiIHk9IjEyMS44NzEzNyIgeD0iNDk1LjUiIGhlaWdodD0iMjEzLjcxMTYxIiB3aWR0aD0iMjciIGlkPSJyZWN0MTcwMC03LTU2LTMtNC00LTAtOSIgc3R5bGU9ImZpbGw6I2FkYmFjNztmaWxsLW9wYWNpdHk6MTtmaWxsLXJ1bGU6ZXZlbm9kZDtzdHJva2U6bm9uZTtzdHJva2Utd2lkdGg6MC45ODUzMDQ7c3Ryb2tlLW9wYWNpdHk6MSIvPiYjeGE7ICAgICAgICA8cmVjdCByeT0iNi4zOTE5OTkyIiB5PSIzNDguNjE0NDQiIHg9IjQ5NS41IiBoZWlnaHQ9IjUwLjA1MjUwMiIgd2lkdGg9IjI3IiBpZD0icmVjdDE3MDAtNy01Ni0zLTUtNS0zLTgiIHN0eWxlPSJmaWxsOiNhZGJhYzc7ZmlsbC1vcGFjaXR5OjE7ZmlsbC1ydWxlOmV2ZW5vZGQ7c3Ryb2tlOm5vbmU7c3Ryb2tlLXdpZHRoOjAuOTg1MzA0O3N0cm9rZS1vcGFjaXR5OjEiLz4mI3hhOyAgICAgIDwvZz4mI3hhOyAgICAgIDxnIHRyYW5zZm9ybT0idHJhbnNsYXRlKC0xNS45MzI3LC0xMy40MjY1MykiIHN0eWxlPSJmaWxsOiNhZGJhYzc7ZmlsbC1vcGFjaXR5OjE7c3Ryb2tlOm5vbmU7c3Ryb2tlLW9wYWNpdHk6MSIgaWQ9ImczMDQzLTItOC00Ij4mI3hhOyAgICAgICAgPHJlY3Qgcnk9IjYuMzkxOTk5MiIgeT0iMzM2Ljc4MzE3IiB4PSI1MzUuNSIgaGVpZ2h0PSI2Ny44MDI5MTciIHdpZHRoPSIyNyIgaWQ9InJlY3QxNzAwLTctNTYtMy0wMy01LTUtMiIgc3R5bGU9ImZpbGw6I2FkYmFjNztmaWxsLW9wYWNpdHk6MTtmaWxsLXJ1bGU6ZXZlbm9kZDtzdHJva2U6bm9uZTtzdHJva2Utd2lkdGg6MC45ODUzMDQ7c3Ryb2tlLW9wYWNpdHk6MSIvPiYjeGE7ICAgICAgICA8cmVjdCByeT0iNi4zOTE5OTkyIiB5PSIxNjkuMTkxOTkiIHg9IjUzNS41IiBoZWlnaHQ9IjUwLjA2MTg5MyIgd2lkdGg9IjI3IiBpZD0icmVjdDE3MDAtNy01Ni0zLTYxMC00LTQtNCIgc3R5bGU9ImZpbGw6I2FkYmFjNztmaWxsLW9wYWNpdHk6MTtmaWxsLXJ1bGU6ZXZlbm9kZDtzdHJva2U6bm9uZTtzdHJva2Utd2lkdGg6MC45ODUzMDQ7c3Ryb2tlLW9wYWNpdHk6MSIvPiYjeGE7ICAgICAgICA8cmVjdCByeT0iNi4zOTE5OTkyIiB5PSIyNS4yNTg4NzEiIHg9IjUzNS41IiBoZWlnaHQ9IjEzMC44OTE3NCIgd2lkdGg9IjI3IiBpZD0icmVjdDE3MDAtNy01Ni0zLTYzLTctNC01IiBzdHlsZT0iZmlsbDojYWRiYWM3O2ZpbGwtb3BhY2l0eToxO2ZpbGwtcnVsZTpldmVub2RkO3N0cm9rZTpub25lO3N0cm9rZS13aWR0aDowLjk4NTMwNDtzdHJva2Utb3BhY2l0eToxIi8+JiN4YTsgICAgICA8L2c+JiN4YTsgICAgICA8ZyB0cmFuc2Zvcm09InRyYW5zbGF0ZSgtMTUuOTMyNywtMTMuNDI2NTMpIiBzdHlsZT0iZmlsbDojYWRiYWM3O2ZpbGwtb3BhY2l0eToxO3N0cm9rZTpub25lO3N0cm9rZS1vcGFjaXR5OjEiIGlkPSJnMzEzNy00LTEtNCI+JiN4YTsgICAgICAgIDxyZWN0IHJ5PSI2LjM5MTk5OTIiIHk9IjM1LjEyMjY4NCIgeD0iNTc2LjA0NTc4IiBoZWlnaHQ9IjE2Mi40NDA4MSIgd2lkdGg9IjI3IiBpZD0icmVjdDE3MDAtNy01Ni0zLTIwLTQtNi0xIiBzdHlsZT0iZmlsbDojYWRiYWM3O2ZpbGwtb3BhY2l0eToxO2ZpbGwtcnVsZTpldmVub2RkO3N0cm9rZTpub25lO3N0cm9rZS13aWR0aDowLjk4NTMwNDtzdHJva2Utb3BhY2l0eToxIi8+JiN4YTsgICAgICAgIDxyZWN0IHJ5PSI2LjM5MTk5OTIiIHk9IjM2OC4zMzIyMSIgeD0iNTc2LjA0NTc4IiBoZWlnaHQ9IjM2LjI1Mzg3NiIgd2lkdGg9IjI3IiBpZD0icmVjdDE3MDAtNy01Ni0zLTYxNS0zLTgtNiIgc3R5bGU9ImZpbGw6I2FkYmFjNztmaWxsLW9wYWNpdHk6MTtmaWxsLXJ1bGU6ZXZlbm9kZDtzdHJva2U6bm9uZTtzdHJva2Utd2lkdGg6MC45ODUzMDQ7c3Ryb2tlLW9wYWNpdHk6MSIvPiYjeGE7ICAgICAgPC9nPiYjeGE7ICAgICAgPGcgdHJhbnNmb3JtPSJ0cmFuc2xhdGUoLTE1LjkzMjcsLTEzLjQyNjUzKSIgc3R5bGU9ImZpbGw6I2FkYmFjNztmaWxsLW9wYWNpdHk6MTtzdHJva2U6bm9uZTtzdHJva2Utb3BhY2l0eToxIiBpZD0iZzMxNDEtMC00LTEiPiYjeGE7ICAgICAgICA8cmVjdCByeT0iNi4zOTE5OTkyIiB5PSI0Ni45NTM3ODEiIHg9IjYxNS40ODgzNCIgaGVpZ2h0PSI1MC4wNjE4NzEiIHdpZHRoPSIyNyIgaWQ9InJlY3QxNzAwLTctNTYtMy01NC03OC02LTEiIHN0eWxlPSJmaWxsOiNhZGJhYzc7ZmlsbC1vcGFjaXR5OjE7ZmlsbC1ydWxlOmV2ZW5vZGQ7c3Ryb2tlOm5vbmU7c3Ryb2tlLXdpZHRoOjAuOTg1MzA0O3N0cm9rZS1vcGFjaXR5OjEiLz4mI3hhOyAgICAgICAgPHJlY3Qgcnk9IjYuMzkxOTk5MiIgeT0iMTEwLjAzODAzIiB4PSI2MTUuNDg4MzQiIGhlaWdodD0iODMuNTcyOCIgd2lkdGg9IjI3IiBpZD0icmVjdDE3MDAtNy01Ni0zLTc2LTYtOC0yIiBzdHlsZT0iZmlsbDojYWRiYWM3O2ZpbGwtb3BhY2l0eToxO2ZpbGwtcnVsZTpldmVub2RkO3N0cm9rZTpub25lO3N0cm9rZS13aWR0aDowLjk4NTMwNDtzdHJva2Utb3BhY2l0eToxIi8+JiN4YTsgICAgICA8L2c+JiN4YTsgICAgICA8ZyB0cmFuc2Zvcm09InRyYW5zbGF0ZSgtMTUuOTMyNywtMTMuNDI2NTMpIiBzdHlsZT0iZmlsbDojYWRiYWM3O2ZpbGwtb3BhY2l0eToxO3N0cm9rZTpub25lO3N0cm9rZS1vcGFjaXR5OjEiIGlkPSJnMzE0Ni04LTgtODUiPiYjeGE7ICAgICAgICA8cmVjdCByeT0iNi4zOTE5OTkyIiB5PSI1Ni43OTc4OTciIHg9IjY1NiIgaGVpZ2h0PSIzNi4yNTM4NzYiIHdpZHRoPSIyNyIgaWQ9InJlY3QxNzAwLTctNTYtMy01Ni04LTMtMTciIHN0eWxlPSJmaWxsOiNhZGJhYzc7ZmlsbC1vcGFjaXR5OjE7ZmlsbC1ydWxlOmV2ZW5vZGQ7c3Ryb2tlOm5vbmU7c3Ryb2tlLXdpZHRoOjAuOTg1MzA0O3N0cm9rZS1vcGFjaXR5OjEiLz4mI3hhOyAgICAgICAgPHJlY3Qgcnk9IjYuMzkxOTk5MiIgeT0iMTA0LjEyMDYiIHg9IjY1NiIgaGVpZ2h0PSIzNC4yODI2NDIiIHdpZHRoPSIyNyIgaWQ9InJlY3QxNzAwLTctNTYtMy05My00LTYtOCIgc3R5bGU9ImZpbGw6I2FkYmFjNztmaWxsLW9wYWNpdHk6MTtmaWxsLXJ1bGU6ZXZlbm9kZDtzdHJva2U6bm9uZTtzdHJva2Utd2lkdGg6MC45ODUzMDQ7c3Ryb2tlLW9wYWNpdHk6MSIvPiYjeGE7ICAgICAgICA8cmVjdCByeT0iNi4zOTE5OTkyIiB5PSIxNDkuNDY2MDYiIHg9IjY1NiIgaGVpZ2h0PSI0OC4wODEyNjEiIHdpZHRoPSIyNyIgaWQ9InJlY3QxNzAwLTctNTYtMy03NC0zLTgtMyIgc3R5bGU9ImZpbGw6I2FkYmFjNztmaWxsLW9wYWNpdHk6MTtmaWxsLXJ1bGU6ZXZlbm9kZDtzdHJva2U6bm9uZTtzdHJva2Utd2lkdGg6MC45ODUzMDQ7c3Ryb2tlLW9wYWNpdHk6MSIvPiYjeGE7ICAgICAgPC9nPiYjeGE7ICAgICAgPHJlY3Qgcnk9IjYuMzkxOTk5MiIgeT0iNTUuMjA4ODE3IiB4PSI2ODAuMDY3MzgiIGhlaWdodD0iMTM0LjgzNDIiIHdpZHRoPSIyNyIgaWQ9InJlY3QxNzAwLTctNTYtMy01Mi0xLTYtNyIgc3R5bGU9ImZpbGw6I2FkYmFjNztmaWxsLW9wYWNpdHk6MTtmaWxsLXJ1bGU6ZXZlbm9kZDtzdHJva2U6bm9uZTtzdHJva2Utd2lkdGg6MC45ODUzMDQ7c3Ryb2tlLW9wYWNpdHk6MSIvPiYjeGE7ICAgICAgPHJlY3Qgcnk9IjYuMzkxOTk5MiIgeT0iOTAuNjkxODQ5IiB4PSI3MTkuODE4ODUiIGhlaWdodD0iOTUuNDAwMTkyIiB3aWR0aD0iMjciIGlkPSJyZWN0MTcwMC03LTU2LTMtNTQ3LTQtNi03IiBzdHlsZT0iZmlsbDojYWRiYWM3O2ZpbGwtb3BhY2l0eToxO2ZpbGwtcnVsZTpldmVub2RkO3N0cm9rZTpub25lO3N0cm9rZS13aWR0aDowLjk4NTMwNDtzdHJva2Utb3BhY2l0eToxIi8+JiN4YTsgICAgICA8cmVjdCByeT0iNi4zOTE5OTkyIiB5PSIxMzYuMDQzMTEiIHg9Ijc1OS4yNTczMiIgaGVpZ2h0PSIzNi4yNTM4NzYiIHdpZHRoPSIyNyIgaWQ9InJlY3QxNzAwLTctNTYtMy00NC05LTAtNiIgc3R5bGU9ImZpbGw6I2FkYmFjNztmaWxsLW9wYWNpdHk6MTtmaWxsLXJ1bGU6ZXZlbm9kZDtzdHJva2U6bm9uZTtzdHJva2Utd2lkdGg6MC45ODUzMDQ7c3Ryb2tlLW9wYWNpdHk6MSIvPiYjeGE7ICAgIDwvZz4mI3hhOyAgICA8cGF0aCBpZD0icGF0aDEyNzE5LTUtNiIgc3R5bGU9ImZvbnQtc2l6ZTo5MC4zMTExcHg7LWlua3NjYXBlLWZvbnQtc3BlY2lmaWNhdGlvbjpzYW5zLXNlcmlmO2ZpbGw6I2NkNzkyYztzdHJva2Utd2lkdGg6MC4yNjQ1ODMiIGQ9Im0gNTU4LjUzNDM4LC02OS43Mzc3NzggcSAwLDYuNzQ2ODc0IC01LjYwMDQsMTEuMDY4NDAxIC01LjU1NjIsNC4zMjE1MjcgLTE1LjIxMzUsNC4zMjE1MjcgLTUuNDY4MSwwIC0xMC4wNTQyLC0xLjI3ODgxOSAtNC41NDIsLTEuMzIyOTE3IC03LjYyODgsLTIuODY2MzE5IHYgLTkuMzA0NTEzIGggMC40NDEgcSAzLjkyNDYsMi45NTQ1MTQgOC43MzEyLDQuNzE4NDAyIDQuODA2NiwxLjcxOTc5MiA5LjIxNjMsMS43MTk3OTIgNS40NjgxLDAgOC41NTQ5LC0xLjc2Mzg4OSAzLjA4NjgsLTEuNzYzODg4IDMuMDg2OCwtNS41NTYyNDkgMCwtMi45MTA0MTYgLTEuNjc1NywtNC40MDk3MjEgLTEuNjc1NywtMS40OTkzMDYgLTYuNDM4MiwtMi41NTc2MzkgLTEuNzYzOSwtMC4zOTY4NzUgLTQuNjMwMiwtMC45MjYwNDEgLTIuODIyMiwtMC41MjkxNjcgLTUuMTU5NCwtMS4xNDY1MjggLTYuNDgyMywtMS43MTk3OTEgLTkuMjE2MywtNS4wMjcwODIgLTIuNjg5OSwtMy4zNTEzODkgLTIuNjg5OSwtOC4yMDIwODIgMCwtMy4wNDI3MDggMS4yMzQ3LC01LjczMjYzOCAxLjI3ODgsLTIuNjg5OTMxIDMuODM2NSwtNC44MDY1OTQgMi40Njk0LC0yLjA3MjU3IDYuMjYxOCwtMy4yNjMyIDMuODM2NCwtMS4yMzQ3MiA4LjU1NDgsLTEuMjM0NzIgNC40MDk3LDAgOC45MDc3LDEuMTAyNDMgNC41NDIsMS4wNTgzMyA3LjU0MDYsMi42MDE3NCB2IDguODYzNTM3IGggLTAuNDQxIHEgLTMuMTc1LC0yLjMzNzE1MiAtNy43MTcsLTMuOTI0NjUyIC00LjU0MiwtMS42MzE1OTcgLTguOTA3NiwtMS42MzE1OTcgLTQuNTQyMSwwIC03LjY3MywxLjc2Mzg4OSAtMy4xMzA5LDEuNzE5NzkxIC0zLjEzMDksNS4xNTkzNzQgMCwzLjA0MjcwOCAxLjg5NjIsNC41ODYxMTEgMS44NTIxLDEuNTQzNDAyIDUuOTk3MiwyLjUxMzU0MSAyLjI5MzEsMC41MjkxNjYgNS4xMTUzLDEuMDU4MzMzIDIuODY2MywwLjUyOTE2NiA0Ljc2MjUsMC45NzAxMzkgNS43NzY4LDEuMzIyOTE2IDguOTA3Nyw0LjU0MjAxMyAzLjEzMDksMy4yNjMxOTQgMy4xMzA5LDguNjQzMDU0IHoiLz4mI3hhOyAgPC9nPiYjeGE7PC9zdmc+;" vertex="1" parent="1">
          <mxGeometry x="560" y="370" width="170" height="39.23" as="geometry" />
        </mxCell>
        <mxCell id="goY5rZ3ymkB16XzDZ8tm-10" value="" style="shape=image;verticalLabelPosition=bottom;labelBackgroundColor=default;verticalAlign=top;aspect=fixed;imageAspect=0;image=data:image/svg+xml,PHN2ZyB4bWxucz0iaHR0cDovL3d3dy53My5vcmcvMjAwMC9zdmciIHhtbDpzcGFjZT0icHJlc2VydmUiIHZpZXdCb3g9IjAgMCA0MTQgMjE1IiB2ZXJzaW9uPSIxLjEiPiYjeGE7PHRpdGxlPkFwYWNoZSBTcGFyayBsb2dvPC90aXRsZT4mI3hhOzxtZXRhZGF0YT4mI3hhOyAgICAmI3hhOyAgICAgICAgJiN4YTsgICAgICAgICAgICBpbWFnZS9zdmcreG1sJiN4YTsgICAgICAgICAgICAmI3hhOyAgICAgICAgICAgICYjeGE7ICAgICAgICAmI3hhOyAgICAmI3hhOzwvbWV0YWRhdGE+JiN4YTs8ZyB0cmFuc2Zvcm09Im1hdHJpeCgxLjMzIDAgMCAxLjMzIDAgNC4wNWUtNikiPjxwYXRoIHN0eWxlPSJmaWxsLXJ1bGU6ZXZlbm9kZDtmaWxsOiNlMjVhMWMiIGQ9Im0yODQgODEuNWMtLjI2OS0uNTc1LS4zOS0uODY0LS41MzUtMS4xNC0zLjg5LTcuNC03Ljc3LTE0LjgtMTEuNy0yMi4yLS4zOTQtLjc0Mi0uMzQ0LTEuMTguMTk1LTEuODIgNi4xOS03LjIzIDEyLjMtMTQuNSAxOC41LTIxLjcuMjE5LS4yNTQuNDE0LS41MjMuNDk2LS45NzYtMS44LjQ2OS0zLjYuOTMzLTUuNDEgMS40MS03LjQ3IDEuOTgtMTUgMy45NS0yMi40IDUuOTYtLjY5NS4xODctMS4wMS0uMDE2LTEuMzYtLjU5NC00LjI0LTcuMDktOC41MS0xNC4yLTEyLjgtMjEuMi0uMjE5LS4zNjctLjQ1OC0uNzIzLS45MjYtMS4wMy0uMzQ0IDEuODktLjY5MiAzLjc3LTEuMDMgNS42Ni0xLjE5IDYuNjctMi4zOCAxMy4zLTMuNTYgMjAtLjEyOS43MTktLjMwNSAxLjQ0LS4zNjcgMi4xNi0uMDU5LjY4OC0uNDE0Ljk0Mi0xLjA0IDEuMTQtOC44MSAyLjc3LTE3LjYgNS41Ni0yNi40IDguMzUtLjM4Ni4xMjEtLjc2NS4yODEtMS4xOC42NTYgNy4yIDIuODYgMTQuNCA1LjcyIDIxLjcgOC42My0uMjY2LjIxMS0uNDQyLjM3NS0uNjM3LjUtNC41IDIuOTEtOS4wMSA1LjgyLTEzLjUgOC43NC0uNTM5LjM1Mi0uOTY1LjQwMi0xLjU3LjEyOS01LjM4LTIuNDItMTAuOC00LjgtMTYuMi03LjItMi40Mi0xLjA4LTQuNTktMi41MS02LjI4LTQuNTktMy44My00LjY4LTMuMDctMTAgMi4wMy0xMy4zIDEuNjctMS4wNyAzLjU3LTEuODYgNS40Ni0yLjQ4IDguNjMtMi44MSAxNy4zLTUuNTIgMjUuOS04LjI0LjcyNi0uMjMxIDEuMDYtLjU1NSAxLjItMS4zNCAxLjE2LTYuNjggMi4zNS0xMy40IDMuNTYtMjAgLjY0NC0zLjU3Ljk4NC03LjIyIDIuNzItMTAuNS42NjUtMS4yNiAxLjQ2LTIuNDkgMi40Mi0zLjU0IDMuNDQtMy44MiA4LjIzLTMuOTYgMTEuOS0uMzI4IDEuMjMgMS4yMyAyLjI4IDIuNjcgMy4xOSA0LjE2IDQgNi41MyA3Ljk0IDEzLjEgMTEuOSAxOS43LjQ2NS43NzcuODgzLjkzMyAxLjc0LjcwNyA5LjY1LTIuNTkgMTkuMy01LjE0IDI5LTcuNjkgMi0uNTI3IDQuMDEtLjcxOCA2LjA2LS4zMzUgNC40NS44MzIgNi40IDQuMjIgNC44OSA4LjUzLS42ODMgMS45Ni0xLjg3IDMuNjEtMy4yIDUuMTgtNi43NCA3LjkzLTEzLjUgMTUuOS0yMC4yIDIzLjgtLjU1MS42NDgtLjU2MiAxLjExLS4xOCAxLjg0IDQuMDQgNy42MSA4LjA0IDE1LjIgMTIuMSAyMi45Ljk2MSAxLjgyIDEuNyAzLjcyIDEuNzIgNS44MS4wNDcgNC43Ni0zLjQ0IDguNjYtOC4xNyA5LjM2LTIuNjUuMzg3LTUuMTEtLjE3OS03LjYtLjk0NS02LjA1LTEuODctMTIuMS0zLjcxLTE4LjItNS41NC0uNTYzLS4xNjgtLjc3OC0uMzkxLS44NzktLjk5Ni0uNjk2LTQuMjctMS40Ni04LjUzLTIuMi0xMi44LS4wMTktLjExNy4wMTYtLjI0Mi4wMzYtLjUwNCA2LjkxIDEuOTEgMTMuOCAzLjc5IDIwLjkgNS43NiIvPjxwYXRoIHN0eWxlPSJmaWxsLXJ1bGU6ZXZlbm9kZDtmaWxsOiMzYzNhM2UiIGQ9Im0yNzIgMTQ0Yy01LjQ2LS4wMDgtMTAuOS0uMDM1LTE2LjQtLjAxMS0uNzIzIDAtMS4xMy0uMjA3LTEuNTMtLjgyMS02LjQ2LTkuODQtMTMtMTkuNy0xOS40LTI5LjUtLjIwNy0uMzEyLS40MjYtLjYxMy0uNzkzLTEuMTQtMS4zOSAxMC42LTIuNzYgMjEtNC4xMyAzMS40aC0xNC4zYy4xNjgtMS4zOS4zMTctMi43NC40OTMtNC4wOCAxLjM5LTEwLjcgMi44LTIxLjMgNC4yLTMyIDEuMzQtMTAuMiAyLjY3LTIwLjQgNC4wMy0zMC42LjAzOS0uMzAxLjI0Mi0uNjg4LjQ4OC0uODQ4IDQuOTItMy4yMSA5Ljg2LTYuMzkgMTQuOC05LjU3LjA3MS0uMDQ3LjE3Mi0uMDUxLjQyNi0uMTI1LTEuNDkgMTEuNC0yLjk3IDIyLjctNC40NiAzNCAuMDU5LjAzOS4xMTcuMDgyLjE3Ni4xMjEgNy43NS04LjU4IDE1LjUtMTcuMiAyMy40LTI1LjkuMjI3IDEuMzIuNDI2IDIuNDUuNjIxIDMuNTguNTU1IDMuMjMgMS4wOSA2LjQ4IDEuNjggOS43MS4xMjEuNjUyLS4wNTUgMS4wNS0uNDg4IDEuNTEtNS4wMSA1LjI0LTEwIDEwLjUtMTUgMTUuOC0uMjE5LjIzMS0uNDI2LjQ2OS0uNjc2Ljc0My4xNi4yNTMuMjk3LjUuNDU3LjcyNiA4LjYxIDEyLjEgMTcuMiAyNC4yIDI1LjggMzYuMy4xNTYuMjE5LjM4Mi4zOTEuNTc0LjU4NnYuMTkxIi8+PHBhdGggc3R5bGU9ImZpbGwtcnVsZTpldmVub2RkO2ZpbGw6IzNjM2EzZSIgZD0ibTEwMyAxMTJjLS4yMTktMS4xMS0uMzc1LTIuNzUtLjg3MS00LjI4LTIuNC03LjM5LTkuOTctMTEuNC0xNy44LTkuNjEtOC42MSAyLTE0LjggOC43Ny0xNS42IDE3LjYtLjY2IDYuNSAyLjg0IDEyLjggOS4zNCAxNS4xIDUuMjQgMS44OSAxMC4zIDEuMSAxNS0xLjcxIDYuMjEtMy43MiA5LjU3LTkuMjUgMTAtMTcuMXptLTM3LjggMjcuNWMtLjQyMiAzLjE4LS44MjggNi4xNy0xLjIyIDkuMTctLjUyMyAzLjk4LTEuMDUgNy45Ny0xLjU1IDEyLS4wNTguNDY1LS4xOTkuNjcyLS42OTkuNjY4LTMuOTMtLjAxNS03Ljg2LS4wMTEtMTEuOC0uMDE5LS4wOSAwLS4xOC0uMDQ3LS4zOTEtLjEwOS4yMzgtMS44OC40NjktMy43Ny43MTUtNS42NS44NjctNi42IDEuNzMtMTMuMiAyLjYxLTE5LjggMS4wMS03LjU2IDEuOC0xNS4xIDMuMDktMjIuNiAyLjI4LTEzLjMgMTMuNi0yNC43IDI2LjgtMjcuNiA3LjY3LTEuNjYgMTUtLjg5MSAyMS43IDMuNDMgNi42OCA0LjMgMTAuNSAxMC42IDExLjQgMTguNCAxLjI0IDExLjEtMi44NSAyMC4zLTEwLjcgMjgtNS4xOCA1LjAxLTExLjQgOC4xOS0xOC41IDkuMjctNy4zNyAxLjExLTE0LjMtLjExNy0yMC41LTQuNDYtLjIyNy0uMTYtLjQ3My0uMy0uODYzLS41NDYiLz48cGF0aCBzdHlsZT0iZmlsbC1ydWxlOmV2ZW5vZGQ7ZmlsbDojM2MzYTNlIiBkPSJtNTguNiA3Ni41Yy00LjQgMy4yOC04LjY1IDYuNDQtMTIuOSA5LjYxLS42ODctMS4wOC0xLjMtMi4xNi0yLjAyLTMuMTctMS44NS0yLjU5LTQuMTUtNC41Mi03LjQ5LTQuNzUtMi43OC0uMTk2LTUuMTYuNzE4LTcuMDUgMi43Ny0xLjY5IDEuODMtMS45MSA0LjQ0LS4zMzIgNi41MSAxLjc0IDIuMjggMy42NCA0LjQ0IDUuNTkgNi41NSAzLjIzIDMuNSA2LjYgNi44NiA5LjggMTAuNCAyLjkxIDMuMiA1LjI0IDYuNzggNS45NiAxMS4yLjg1NiA1LjItLjE4MyAxMC4xLTIuNjQgMTQuNy00LjU1IDguNDUtMTEuNyAxMy40LTIxLjIgMTQuOS00LjE4LjY3NS04LjM0LjU0My0xMi40LS42NTctNS40MS0xLjU5LTkuMTgtNS4xNC0xMS42LTEwLjEtLjg1NS0xLjc3LTEuNTEtMy42NC0yLjI4LTUuNTQgNC43My0yLjUzIDkuMzQtNSAxNC03LjQ5LjE2LjM4Ny4yNzcuNzExLjQyNiAxLjAyLjc5NyAxLjU5IDEuNDUgMy4yOCAyLjQzIDQuNzUgMi45MyA0LjM1IDcuNjUgNS42NyAxMi40IDMuNTIgMS4yMy0uNTU1IDIuNDItMS4zMyAzLjQzLTIuMjMgMy4wOC0yLjc0IDMuNjYtNi41NiAxLjM4LTEwLTEuMzEtMS45OC0yLjk1LTMuNzYtNC41NS01LjUzLTMuODItNC4yNC03LjgtOC4zNS0xMS41LTEyLjctMi41Ny0yLjk4LTQuMzItNi40NC00Ljg4LTEwLjQtLjYwNS00LjM2LjI2Ni04LjQ2IDIuNTMtMTIuMSA1LjYzLTkuMTEgMTMuOC0xMy44IDI0LjYtMTMuNSA2LjE3LjIyMyAxMS4xIDMuMTEgMTQuOSA3LjkxIDEuMTMgMS40MiAyLjE5IDIuODkgMy4zNCA0LjQzIi8+PHBhdGggc3R5bGU9ImZpbGwtcnVsZTpldmVub2RkO2ZpbGw6IzNjM2EzZSIgZD0ibTE2MyAxMjVjLS43MTkgNS40OS0xLjQgMTAuNy0yLjEgMTUuOS0uMDM5LjI2Ni0uMjQ2LjYyNS0uNDY5LjcyNy0xMC43IDQuOTQtMjQuNyA0LjI1LTMzLjQtNS42OS00LjctNS4zNC02LjY3LTExLjctNi4zOC0xOC43LjY4My0xNi4zIDE0LjItMzAuNiAzMC40LTMyLjYgOS40NS0xLjE2IDE3LjcgMS4zOSAyNC4xIDguNzQgNC4zNiA1IDYuMzggMTEgNi4wOCAxNy42LS4xOTUgNC4zNi0uODc5IDguNjktMS40MiAxMy0uNzcgNi4xNC0xLjYxIDEyLjMtMi40MiAxOC40LS4wMzEuMjE0LS4wNzQuNDMzLS4xMjUuNzExaC0xMi43Yy4xNjgtMS40MS4zMjQtMi43OS41MDQtNC4xNy45MjItNy4wOSAxLjk0LTE0LjIgMi43NS0yMS4zLjUwNC00LjQyLjE4Ny04LjgxLTEuODQtMTIuOS0yLjE1LTQuMzUtNS43NS02LjY2LTEwLjUtNy4xNi05LjgyLTEuMDQtMTkuMiA1Ljc4LTIxLjIgMTUuNC0xLjM4IDYuMzguNzk3IDEyLjUgNS44OCAxNS45IDQuOTUgMy4yOSAxMC4yIDMuMyAxNS42IDEuMTcgMi43NC0xLjA4IDUuMDYtMi44IDcuMjgtNS4xMSIvPjxwYXRoIHN0eWxlPSJmaWxsLXJ1bGU6ZXZlbm9kZDtmaWxsOiMzYzNhM2UiIGQ9Im0yMTcgODYuM2MtLjU4MiA0LjQyLTEuMTYgOC43Ny0xLjc0IDEzLjItMi43IDAtNS4zNC0uMDE1LTcuOTguMDA0LTIuMTQuMDE2LTQuMDkgMS40LTQuNzQgMy40LS4yNS43ODEtLjM0MyAxLjYyLS40NTMgMi40NC0xLjM0IDEwLjItMi42NyAyMC4zLTQgMzAuNC0uMzM2IDIuNTYtLjY2IDUuMTItLjk5NiA3LjcyaC0xMy4zYy4yNDYtMS45NS40OC0zLjg0LjcyNi01LjczLjg2My02LjU4IDEuNzMtMTMuMiAyLjYtMTkuNy43NTQtNS42OSAxLjQzLTExLjQgMi4zMi0xNy4xIDEuMTktNy42IDguNzUtMTQuNCAxNi40LTE0LjcgMy42Ni0uMTYgNy4zMy0uMDI3IDExLjEtLjAyNyIvPjxwYXRoIHN0eWxlPSJmaWxsOiMzYzNhM2UiIGQ9Im0yODggMTQ0di01LjZoLS4wMzFsLTIuMiA1LjZoLS42OTlsLTIuMi01LjZoLS4wMzV2NS42aC0xLjF2LTYuNzFoMS43MWwyIDUuMSAxLjk3LTUuMWgxLjd2Ni43MXptLTkuNzQtNS44MXY1LjgxaC0xLjF2LTUuODFoLTIuMXYtLjg5OWg1LjMxdi44OTloLTIuMSIvPjxwYXRoIHN0eWxlPSJmaWxsOiMzYzNhM2UiIGQ9Im03Ni4zIDY3LjFoMy4yOWwtLjc3OC00Ljk4em0zLjgxIDMuMjJoLTUuNDdsLTEuNzQgMy40MWgtMy44OGw4LjU1LTE2aDMuNzRsMi45MSAxNmgtMy41OWwtLjUxNi0zLjQxIi8+PHBhdGggc3R5bGU9ImZpbGw6IzNjM2EzZSIgZD0ibTk5LjcgNjFoLTEuOTVsLS42NTYgMy42OWgxLjk1YzEuMTggMCAyLjExLS43NzMgMi4xMS0yLjIzIDAtLjk2NS0uNTg2LTEuNDYtMS40Ni0xLjQ2em0tNC43Mi0zLjIyaDUuMTJjMi42OCAwIDQuNTUgMS42IDQuNTUgNC4zNCAwIDMuNDYtMi40NCA1Ljc4LTUuOTIgNS43OGgtMi4yMWwtMS4wNCA1Ljg1aC0zLjM0bDIuODItMTYiLz48cGF0aCBzdHlsZT0iZmlsbDojM2MzYTNlIiBkPSJtMTE2IDY3LjFoMy4yOWwtLjc3Ny00Ljk4em0zLjggMy4yMmgtNS40N2wtMS43NCAzLjQxaC0zLjg4bDguNTUtMTZoMy43NGwyLjkxIDE2aC0zLjU5bC0uNTE2LTMuNDEiLz48cGF0aCBzdHlsZT0iZmlsbDojM2MzYTNlIiBkPSJtMTQxIDczLjJjLTEuMTMuNTE2LTIuMzcuODI0LTMuNjIuODI0LTQuMjMgMC02Ljg4LTMuMTctNi44OC03LjE0IDAtNS4wOCA0LjI3LTkuMzUgOS4zNS05LjM1IDEuMjcgMCAyLjQyLjMwNSAzLjM2LjgybC0uNDY5IDMuODNjLS43MDMtLjc3Ny0xLjg0LTEuMzItMy4yNC0xLjMyLTIuOTEgMC01LjUgMi42My01LjUgNS42OCAwIDIuMzIgMS40NiA0LjE0IDMuNzYgNC4xNCAxLjQxIDAgMi43Ny0uNTQzIDMuNjktMS4yOWwtLjQ0NSAzLjgiLz48cGF0aCBzdHlsZT0iZmlsbDojM2MzYTNlIiBkPSJtMTYyIDY3LjNoLTYuOTVsLTEuMTMgNi40M2gtMy4zM2wyLjgyLTE2aDMuMzRsLTEuMTIgNi4zMmg2Ljk1bDEuMTMtNi4zMmgzLjM0bC0yLjgyIDE2aC0zLjM0bDEuMTItNi40MyIvPjxwYXRoIHN0eWxlPSJmaWxsOiMzYzNhM2UiIGQ9Im0xNzQgNzMuNyAyLjgyLTE2aDguODZsLS41NjMgMy4yMmgtNS41MmwtLjU2MyAzLjFoNS4wN2wtLjU2MyAzLjIyaC01LjA3bC0uNTYzIDMuMjJoNS41MmwtLjU2MyAzLjIyaC04Ljg2Ii8+PC9nPjwvc3ZnPg==;" vertex="1" parent="1">
          <mxGeometry x="680" y="280.02" width="154" height="79.98" as="geometry" />
        </mxCell>
        <mxCell id="goY5rZ3ymkB16XzDZ8tm-11" value="" style="shape=flexArrow;endArrow=classic;startArrow=classic;html=1;rounded=0;" edge="1" parent="1">
          <mxGeometry width="100" height="100" relative="1" as="geometry">
            <mxPoint x="320" y="440" as="sourcePoint" />
            <mxPoint x="420" y="340" as="targetPoint" />
          </mxGeometry>
        </mxCell>
        <mxCell id="goY5rZ3ymkB16XzDZ8tm-12" value="&lt;h1&gt;Heading&lt;/h1&gt;&lt;p&gt;Lorem ipsum dolor sit amet, consectetur adipisicing elit, sed do eiusmod tempor incididunt ut labore et dolore magna aliqua.&lt;/p&gt;" style="text;html=1;strokeColor=none;fillColor=none;spacing=5;spacingTop=-20;whiteSpace=wrap;overflow=hidden;rounded=0;" vertex="1" parent="1">
          <mxGeometry x="170" y="300" width="190" height="120" as="geometry" />
        </mxCell>
      </root>
    </mxGraphModel>
  </diagram>
</mxfile>
